<svg width="736" height="277" viewBox="0 0 736 277" fill="none" xmlns="http://www.w3.org/2000/svg">
<path d="M36.7 42.27C39.76 35.79 43 29.13 45.88 23.28C48.4 18.51 50.47 14.19 52 10.86H52.27C52.18 14.1 52.09 18.51 52.36 23.1C52.36 28.95 52.27 35.7 52.09 42.27C49.21 42.27 46.51 42.27 44.35 42.27H36.7ZM74.77 69C73.24 51.81 72.43 10.95 72.25 1.49999H36.16C31.57 10.77 10.42 52.08 0.7 69H24.64C25.72 66.3 27.7 61.71 30.22 56.13C34.18 56.13 38.05 56.13 40.84 56.13C43.81 56.13 47.59 56.13 51.55 56.13C51.19 61.89 50.83 66.57 50.47 69H74.77ZM121.945 34.08C117.355 33.99 113.305 33.99 110.785 33.9C112.135 28.32 113.485 22.47 114.925 16.62C118.345 16.53 122.485 16.44 124.285 16.44C131.215 16.44 134.095 18.87 132.205 26.43C130.855 31.74 127.525 34.08 121.945 34.08ZM97.2855 1.49999C95.0355 11.22 92.6955 20.94 89.0955 35.25C85.4955 49.65 82.9755 59.19 80.4555 69H103.135C103.945 63.78 105.475 56.31 107.455 47.67C111.775 47.58 112.315 47.58 115.645 47.58C121.945 47.58 122.755 49.56 122.935 60.9C123.295 67.83 123.745 69 127.165 69H145.975C145.795 65.94 145.615 60.18 145.255 55.14C144.805 46.32 142.105 43.53 133.825 42.27L134.005 41.73C145.615 40.2 151.555 35.34 154.165 24.72C157.765 10.14 149.485 1.49999 132.835 1.49999H97.2855ZM165.561 1.49999C165.021 4.01999 164.031 7.89 163.221 11.4C162.321 14.73 161.331 18.96 160.521 21.66C165.921 21.57 171.231 21.48 176.181 21.48C170.781 43.26 165.381 64.23 163.941 69.09C167.181 68.82 172.131 68.82 175.731 68.82C179.331 68.82 184.461 68.82 187.611 69.09C188.601 64.23 193.731 43.17 199.041 21.48C203.901 21.48 209.211 21.57 214.521 21.66C215.151 18.96 216.141 14.73 217.041 11.4C217.851 7.89 218.841 4.01999 219.561 1.49999H165.561ZM232.952 69C235.202 59.19 237.632 49.47 241.232 35.16C244.742 20.76 247.172 11.13 249.782 1.49999H226.922C224.762 11.13 222.332 20.85 218.732 35.25C215.222 49.56 212.702 59.28 210.092 69H232.952ZM261.463 1.49999C259.393 10.86 256.873 20.94 253.273 35.25C249.763 49.56 247.063 59.64 244.633 69H267.943C269.113 63.06 270.553 56.58 272.083 50.01C282.163 50.01 292.153 50.1 300.793 50.19C301.873 45.69 304.033 37.05 305.293 32.73C296.473 33 286.303 33.09 276.133 33.09L276.403 31.83L279.373 20.22C288.103 20.22 298.453 20.31 309.073 20.4C309.613 17.88 310.423 14.28 311.233 10.95C312.043 7.8 313.123 4.01999 313.843 1.49999H261.463ZM329.016 69C331.266 59.19 333.696 49.47 337.296 35.16C340.806 20.76 343.236 11.13 345.846 1.49999H322.986C320.826 11.13 318.396 20.85 314.796 35.25C311.286 49.56 308.766 59.28 306.156 69H329.016ZM391.908 29.58C395.508 29.4 399.018 29.4 402.618 29.4C406.218 29.4 409.908 29.4 413.418 29.58C413.958 27.96 414.408 26.43 414.768 24.99C417.918 11.85 410.898 0.329999 386.868 0.329999C365.088 0.329999 352.578 10.14 347.178 31.65C340.697 57.75 350.868 70.17 374.808 70.17C396.408 70.17 405.948 61.35 410.448 43.53C410.718 42.36 411.078 41.01 411.258 39.57C407.658 39.66 403.968 39.66 400.368 39.66C396.768 39.66 393.168 39.66 389.568 39.57C389.388 40.38 389.298 41.19 389.028 41.91C387.588 47.94 383.898 51.9 377.328 51.9C369.768 51.9 365.988 47.58 369.318 34.08C372.558 20.85 377.058 17.43 384.438 17.34C391.368 17.34 394.338 19.95 392.537 27.6C392.358 28.14 392.178 28.86 391.908 29.58ZM436.243 69C438.493 59.19 440.923 49.47 444.523 35.16C448.033 20.76 450.463 11.13 453.073 1.49999H430.213C428.053 11.13 425.623 20.85 422.023 35.25C418.513 49.56 415.993 59.28 413.383 69H436.243ZM478.614 42.27C481.674 35.79 484.914 29.13 487.794 23.28C490.314 18.51 492.384 14.19 493.914 10.86H494.184C494.094 14.1 494.004 18.51 494.274 23.1C494.274 28.95 494.184 35.7 494.004 42.27C491.124 42.27 488.424 42.27 486.264 42.27H478.614ZM516.684 69C515.154 51.81 514.344 10.95 514.164 1.49999H478.074C473.484 10.77 452.334 52.08 442.614 69H466.554C467.634 66.3 469.614 61.71 472.134 56.13C476.094 56.13 479.964 56.13 482.754 56.13C485.724 56.13 489.504 56.13 493.464 56.13C493.104 61.89 492.744 66.57 492.384 69H516.684ZM553.51 35.16C557.29 20.22 560.89 6.54 562.33 1.49999H539.11C537.76 7.98 534.88 19.77 530.92 35.25C527.41 49.65 523.63 63.51 522.28 69H566.83C567.64 65.58 568.36 62.25 569.26 58.83C570.16 55.41 571.06 52.08 571.96 48.75C564.67 49.02 556.39 49.02 550.09 49.02L553.51 35.16ZM28.87 172C31.12 162.19 33.55 152.47 37.15 138.16C40.66 123.76 43.09 114.13 45.7 104.5H22.84C20.68 114.13 18.25 123.85 14.65 138.25C11.14 152.56 8.62 162.28 6.01 172H28.87ZM102.471 104.5C101.481 109.99 98.961 121.24 96.531 131.14C95.451 135.46 94.551 140.32 93.741 145.45L93.291 145.63C92.751 141.4 91.761 137.35 90.951 133.84C87.891 122.95 83.211 108.82 82.491 104.5H57.381C55.401 113.41 52.701 123.94 49.101 138.25C45.591 152.65 42.891 163 40.551 172H60.711C61.431 168.22 63.681 159.22 66.831 145.99C68.001 140.68 69.081 135.37 70.161 129.52H70.431C70.971 134.2 71.961 138.88 73.131 143.38C76.551 154 80.961 165.97 82.311 172H105.261C107.241 163.27 109.761 153.1 113.541 138.16C117.051 123.85 120.471 110.98 122.181 104.5H102.471ZM129.526 104.5C128.986 107.02 127.996 110.89 127.186 114.4C126.286 117.73 125.296 121.96 124.486 124.66C129.886 124.57 135.196 124.48 140.146 124.48C134.746 146.26 129.346 167.23 127.906 172.09C131.146 171.82 136.096 171.82 139.696 171.82C143.296 171.82 148.426 171.82 151.576 172.09C152.566 167.23 157.696 146.17 163.006 124.48C167.866 124.48 173.176 124.57 178.486 124.66C179.116 121.96 180.106 117.73 181.006 114.4C181.816 110.89 182.806 107.02 183.526 104.5H129.526ZM190.887 104.5C188.997 113.32 186.297 123.94 182.697 138.25C179.187 152.65 176.577 162.82 174.057 172H228.147C228.687 169.84 229.497 166.15 230.217 163.36C231.027 160.3 231.927 156.25 232.647 154.18C222.387 154.27 209.787 154.36 200.697 154.36L203.127 144.55C213.747 144.55 225.447 144.64 234.177 144.91C234.987 141.22 236.967 133.39 237.957 130.06C228.957 130.33 217.347 130.33 206.727 130.33L209.067 120.88C218.067 120.88 230.037 120.97 240.837 121.06C241.287 119.08 242.277 115.21 242.907 112.33C243.537 109.81 244.437 106.39 244.977 104.5H190.887ZM270.062 138.16C273.842 123.22 277.442 109.54 278.882 104.5H255.662C254.312 110.98 251.432 122.77 247.472 138.25C243.962 152.65 240.182 166.51 238.832 172H283.382C284.192 168.58 284.912 165.25 285.812 161.83C286.712 158.41 287.612 155.08 288.512 151.75C281.222 152.02 272.942 152.02 266.642 152.02L270.062 138.16ZM321.654 138.16C325.434 123.22 329.034 109.54 330.474 104.5H307.254C305.904 110.98 303.024 122.77 299.064 138.25C295.554 152.65 291.774 166.51 290.424 172H334.974C335.784 168.58 336.504 165.25 337.404 161.83C338.304 158.41 339.204 155.08 340.104 151.75C332.814 152.02 324.534 152.02 318.234 152.02L321.654 138.16ZM364.876 172C367.126 162.19 369.556 152.47 373.156 138.16C376.666 123.76 379.096 114.13 381.706 104.5H358.846C356.686 114.13 354.256 123.85 350.656 138.25C347.146 152.56 344.626 162.28 342.016 172H364.876ZM449.007 134.38C442.707 134.56 436.497 134.47 431.637 134.47C427.407 134.47 421.557 134.47 415.887 134.38C415.527 136.18 414.897 138.52 414.267 141.31C413.907 142.66 413.097 145.99 412.647 147.34C416.337 147.25 421.017 147.16 425.337 147.16C422.997 154.36 419.577 157.15 413.007 157.15C403.377 157.15 401.487 151.3 404.997 137.08C408.417 123.4 413.187 118.9 421.017 118.9C427.947 118.9 430.737 121.78 429.477 126.82C429.297 127.45 429.117 128.26 428.847 128.98C431.637 128.8 435.597 128.8 439.647 128.8C443.697 128.8 447.927 128.89 450.807 128.98C450.987 128.17 451.257 127.45 451.437 126.64C454.227 115.57 447.837 103.33 423.267 103.33C401.307 103.33 388.437 113.14 383.037 134.74C376.917 159.22 385.557 173.17 410.577 173.17C437.577 173.17 444.327 160.3 449.187 134.38H449.007ZM467.654 104.5C465.764 113.32 463.064 123.94 459.464 138.25C455.954 152.65 453.344 162.82 450.824 172H504.914C505.454 169.84 506.264 166.15 506.984 163.36C507.794 160.3 508.694 156.25 509.414 154.18C499.154 154.27 486.554 154.36 477.464 154.36L479.894 144.55C490.514 144.55 502.214 144.64 510.944 144.91C511.754 141.22 513.734 133.39 514.724 130.06C505.724 130.33 494.114 130.33 483.494 130.33L485.834 120.88C494.834 120.88 506.804 120.97 517.604 121.06C518.054 119.08 519.044 115.21 519.674 112.33C520.304 109.81 521.204 106.39 521.744 104.5H467.654ZM577.52 104.5C576.53 109.99 574.01 121.24 571.58 131.14C570.5 135.46 569.6 140.32 568.79 145.45L568.34 145.63C567.8 141.4 566.81 137.35 566 133.84C562.94 122.95 558.26 108.82 557.54 104.5H532.43C530.45 113.41 527.75 123.94 524.15 138.25C520.64 152.65 517.94 163 515.6 172H535.76C536.48 168.22 538.73 159.22 541.88 145.99C543.05 140.68 544.13 135.37 545.21 129.52H545.48C546.02 134.2 547.01 138.88 548.18 143.38C551.6 154 556.01 165.97 557.36 172H580.31C582.29 163.27 584.81 153.1 588.59 138.16C592.1 123.85 595.52 110.98 597.23 104.5H577.52ZM643.275 132.58C646.875 132.4 650.385 132.4 653.985 132.4C657.585 132.4 661.275 132.4 664.785 132.58C665.325 130.96 665.775 129.43 666.135 127.99C669.285 114.85 662.265 103.33 638.235 103.33C616.455 103.33 603.945 113.14 598.545 134.65C592.065 160.75 602.235 173.17 626.175 173.17C647.775 173.17 657.315 164.35 661.815 146.53C662.085 145.36 662.445 144.01 662.625 142.57C659.025 142.66 655.335 142.66 651.735 142.66C648.135 142.66 644.535 142.66 640.935 142.57C640.755 143.38 640.665 144.19 640.395 144.91C638.955 150.94 635.265 154.9 628.695 154.9C621.135 154.9 617.355 150.58 620.685 137.08C623.925 123.85 628.425 120.43 635.805 120.34C642.735 120.34 645.705 122.95 643.905 130.6C643.725 131.14 643.545 131.86 643.275 132.58ZM681.58 104.5C679.69 113.32 676.99 123.94 673.39 138.25C669.88 152.65 667.27 162.82 664.75 172H718.84C719.38 169.84 720.19 166.15 720.91 163.36C721.72 160.3 722.62 156.25 723.34 154.18C713.08 154.27 700.48 154.36 691.39 154.36L693.82 144.55C704.44 144.55 716.14 144.64 724.87 144.91C725.68 141.22 727.66 133.39 728.65 130.06C719.65 130.33 708.04 130.33 697.42 130.33L699.76 120.88C708.76 120.88 720.73 120.97 731.53 121.06C731.98 119.08 732.97 115.21 733.6 112.33C734.23 109.81 735.13 106.39 735.67 104.5H681.58ZM57.22 235.58C60.82 235.4 64.33 235.4 67.93 235.4C71.53 235.4 75.22 235.4 78.73 235.58C79.27 233.96 79.72 232.43 80.08 230.99C83.23 217.85 76.21 206.33 52.18 206.33C30.4 206.33 17.89 216.14 12.49 237.65C6.01 263.75 16.18 276.17 40.12 276.17C61.72 276.17 71.26 267.35 75.76 249.53C76.03 248.36 76.39 247.01 76.57 245.57C72.97 245.66 69.28 245.66 65.68 245.66C62.08 245.66 58.48 245.66 54.88 245.57C54.7 246.38 54.61 247.19 54.34 247.91C52.9 253.94 49.21 257.9 42.64 257.9C35.08 257.9 31.3 253.58 34.63 240.08C37.87 226.85 42.37 223.43 49.75 223.34C56.68 223.34 59.65 225.95 57.85 233.6C57.67 234.14 57.49 234.86 57.22 235.58ZM109.926 241.16C113.706 226.22 117.306 212.54 118.746 207.5H95.5255C94.1755 213.98 91.2955 225.77 87.3355 241.25C83.8255 255.65 80.0455 269.51 78.6955 275H123.246C124.056 271.58 124.776 268.25 125.676 264.83C126.576 261.41 127.476 258.08 128.376 254.75C121.086 255.02 112.806 255.02 106.506 255.02L109.926 241.16ZM188.017 207.5C185.497 218.12 181.177 236.12 178.747 246.38C176.677 254.21 173.347 257.72 166.507 257.72C158.317 257.72 156.067 253.58 157.957 246.38C160.477 236.12 165.067 218.21 168.037 207.5H145.267C144.007 213.35 142.747 219.11 140.587 227.84C139.237 233.06 136.987 241.16 135.547 247.19C131.677 262.85 137.077 276.17 164.977 276.17C185.767 276.17 195.577 266.81 199.357 251.51C201.247 243.95 203.497 234.14 205.117 227.84C207.277 219.11 208.897 213.35 210.517 207.5H188.017ZM252.332 254.21C251.072 258.98 248.192 260.33 242.072 260.33C238.742 260.33 234.962 260.33 230.552 260.15C231.452 256.01 232.622 251.24 233.792 246.47C238.022 246.29 241.982 246.2 245.402 246.2C251.432 246.2 253.772 248.27 252.332 254.21ZM258.092 228.47C256.922 233.24 253.862 235.04 248.462 235.13C244.952 235.13 240.992 235.22 236.672 235.04C237.932 230 239.102 225.14 240.182 221.18C244.322 221 248.102 221 251.792 221C256.742 221 259.442 222.89 258.092 228.47ZM221.732 207.5C219.842 216.68 217.322 226.94 213.812 241.25C210.212 255.56 207.692 265.55 204.902 275H247.652C262.592 275 270.242 269.96 273.032 258.62C275.192 250.16 273.572 244.49 266.912 242.15C265.652 241.7 264.122 241.43 262.322 241.16L262.412 240.62C265.112 240.35 267.452 239.9 269.342 239.18C275.282 236.84 278.252 233.69 279.872 226.94C282.752 215.78 275.462 207.5 260.612 207.5H221.732Z" fill="white"/>
</svg>
