<svg width="36" height="36" viewBox="0 0 36 36" fill="none" xmlns="http://www.w3.org/2000/svg">
<path fill-rule="evenodd" clip-rule="evenodd" d="M36 18C36 27.9411 27.9411 36 18 36C8.05887 36 0 27.9411 0 18C0 8.05887 8.05887 0 18 0C27.9411 0 36 8.05887 36 18ZM21.0726 9.81563C23.843 10.0266 26.1844 11.8617 26.1844 11.8617C26.1844 11.8617 28.8 15.6586 29.264 23.1117C26.6273 26.1562 22.6195 26.1773 22.6195 26.1773L21.7828 25.0594C23.2031 24.5672 24.8133 23.6813 26.1984 22.0852C24.5391 23.3438 22.043 24.6445 18.0141 24.6445C13.9852 24.6445 11.482 23.3367 9.82969 22.0852C11.2148 23.6813 12.825 24.5672 14.2453 25.0594L13.4086 26.1773C13.4086 26.1773 9.40078 26.1562 6.76406 23.1117C7.21406 15.6586 9.82969 11.8617 9.82969 11.8617C9.82969 11.8617 12.0375 10.0898 14.9414 9.81563L15.1875 10.3148C12.9023 10.8281 11.5383 11.8055 10.3359 12.8812C12.4031 11.8266 14.4492 10.8352 18.007 10.8352C21.5648 10.8352 23.6109 11.8266 25.6781 12.8812C24.4758 11.8055 23.3297 10.9266 20.8266 10.3148L21.0726 9.81563ZM12.8812 19.0195C12.8812 20.1516 13.6828 21.0656 14.6742 21.0656C15.6656 21.0656 16.4672 20.1516 16.4672 19.0195C16.4672 17.8875 15.6656 16.9734 14.6742 16.9734C13.6828 16.9734 12.8812 17.8875 12.8812 19.0195ZM19.5328 19.0195C19.5328 20.1516 20.3344 21.0656 21.3258 21.0656C22.3101 21.0656 23.1187 20.1516 23.1187 19.0195C23.1187 17.8875 22.3172 16.9734 21.3258 16.9734C20.3344 16.9734 19.5328 17.8875 19.5328 19.0195Z" fill="white"/>
</svg>
