<svg width="36" height="36" viewBox="0 0 36 36" fill="none" xmlns="http://www.w3.org/2000/svg">
<path fill-rule="evenodd" clip-rule="evenodd" d="M36 18C36 27.936 27.936 36 18 36C8.064 36 0 27.936 0 18C0 8.064 8.064 0 18 0C27.936 0 36 8.064 36 18ZM8.89214 18.612L8.96414 18.504L13.6441 11.196C13.7161 11.088 13.8601 11.088 13.9321 11.232C14.7241 12.996 15.3721 15.156 15.0841 16.524C14.9401 17.1 14.5801 17.856 14.1481 18.54C14.1121 18.648 14.0401 18.756 13.9681 18.828C13.9321 18.864 13.8961 18.9 13.8241 18.9H9.00014C8.89214 18.864 8.82014 18.72 8.89214 18.612ZM29.7359 21.1321V19.9801C29.7359 19.8721 29.6639 19.8001 29.4479 19.9081L23.9759 21.4921C23.9399 21.4921 23.9399 21.4921 23.9039 21.5281C23.4416 22.0176 23.0409 22.3839 22.826 22.5803C22.7564 22.6439 22.7064 22.6897 22.6799 22.7161C22.3559 23.0041 21.9239 23.1481 21.4919 23.1481H19.5119V21.1321H21.0959C21.1319 21.1321 21.1679 21.1321 21.2039 21.0961L21.4199 20.9161C21.5279 20.8441 21.6359 20.7361 21.7439 20.6281L21.7439 20.6281C21.8177 20.5789 21.8747 20.5128 21.9264 20.453C21.9503 20.4253 21.9731 20.3989 21.9959 20.3761C22.0697 20.3269 22.1267 20.2608 22.1784 20.201C22.2023 20.1733 22.2251 20.1469 22.2479 20.1241C22.3019 20.0521 22.3649 19.9801 22.4279 19.9081C22.4909 19.8361 22.5539 19.7641 22.6079 19.6921C22.7159 19.5841 22.7879 19.4761 22.8599 19.3681C22.8959 19.3141 22.9409 19.2601 22.9859 19.2061C23.0309 19.1521 23.0759 19.0981 23.1119 19.0441C23.1372 18.9683 23.1802 18.9102 23.2284 18.8451C23.249 18.8173 23.2705 18.7883 23.2919 18.7561C23.3639 18.6481 23.4359 18.5401 23.4719 18.4681L23.472 18.468C23.616 18.216 23.7599 17.964 23.8679 17.7121C23.9229 17.6021 23.9569 17.4921 23.986 17.3981C23.9949 17.3691 24.0034 17.3416 24.0119 17.3161C24.0299 17.2441 24.0479 17.1811 24.0659 17.1181C24.0839 17.0551 24.1019 16.9921 24.1199 16.9201C24.1217 16.9038 24.1236 16.8876 24.1254 16.8715C24.1594 16.567 24.1901 16.2918 24.1559 15.9841C24.1559 15.8761 24.1559 15.7681 24.1199 15.6961C24.1199 15.6601 24.1199 15.5881 24.0839 15.5161C24.0479 15.1921 23.9399 14.9041 23.7959 14.6161C23.7779 14.5621 23.7509 14.5081 23.7239 14.4541C23.6969 14.4001 23.6699 14.3461 23.6519 14.2921C23.5799 14.1841 23.5169 14.0761 23.4539 13.9681C23.3909 13.8601 23.3279 13.7521 23.2559 13.6441C23.2333 13.5763 23.1966 13.5227 23.1634 13.4743C23.1437 13.4457 23.1253 13.4189 23.1119 13.3921C23.0579 13.3201 22.9949 13.2391 22.9319 13.1581C22.8689 13.0771 22.8059 12.9961 22.7519 12.9241C22.6979 12.8701 22.6529 12.8071 22.6079 12.7441C22.5629 12.6811 22.5179 12.6181 22.4639 12.5641C22.4099 12.5101 22.3649 12.4561 22.3199 12.4021C22.2749 12.3481 22.2299 12.2941 22.1759 12.2401C21.8159 11.8441 21.4559 11.4841 21.1319 11.1961C21.1087 11.1496 21.0704 11.1181 21.0269 11.0822C21.003 11.0626 20.9774 11.0416 20.9519 11.0161C20.6999 10.8001 20.4479 10.5841 20.2679 10.4401C20.16 10.3681 20.088 10.2961 20.016 10.2241L20.0159 10.2241C19.9079 10.1521 19.8359 10.0801 19.7999 10.0441C19.7999 10.0081 19.7639 10.0081 19.7639 10.0081L19.5479 9.93606V8.20806C19.5479 7.92006 19.4399 7.66806 19.2599 7.48806C19.0799 7.30806 18.8279 7.20006 18.5399 7.20006C17.9999 7.20006 17.5319 7.66806 17.5319 8.24406V9.43206L17.4239 9.39606L17.1359 9.32406L16.8839 9.25206L14.9039 8.71206C14.8319 8.67606 14.7599 8.78406 14.7959 8.85606L15.1199 9.43206L15.2279 9.64806C15.2459 9.70206 15.2729 9.75606 15.2999 9.81006C15.3269 9.86406 15.3539 9.91806 15.3719 9.97206C15.3899 10.0261 15.4169 10.0711 15.4439 10.1161C15.4709 10.1611 15.4979 10.2061 15.5159 10.2601C15.6239 10.476 15.7319 10.728 15.8399 10.98L15.8399 10.9801L16.0559 11.5201C16.2359 11.9521 16.4159 12.4561 16.5599 12.9601C16.6203 13.0807 16.6553 13.2266 16.6863 13.3554C16.6923 13.3804 16.6981 13.4047 16.7039 13.4281L16.7399 13.5001C16.8119 13.7521 16.8479 13.9681 16.8839 14.2201C16.9199 14.3641 16.9559 14.5441 16.9559 14.6881C16.9559 14.7781 16.9649 14.8681 16.9739 14.9581C16.9829 15.0481 16.9919 15.1381 16.9919 15.2281C17.0279 15.4081 17.0279 15.5881 17.0279 15.7321C17.0279 16.1641 16.9919 16.5601 16.9199 16.9201L16.8119 17.2441C16.7985 17.2843 16.7801 17.3295 16.7605 17.3778C16.7273 17.4593 16.6905 17.5497 16.6679 17.6401C16.6319 17.7481 16.5959 17.8201 16.5599 17.8921C16.3799 18.3241 16.1639 18.7921 15.9119 19.1881C15.5519 19.8001 15.2279 20.3041 14.9759 20.6641C14.9399 20.7361 14.9039 20.7721 14.8679 20.8081C14.7959 20.9161 14.8679 21.0601 15.0119 21.0601H17.5679V23.0761H14.9759C14.2919 23.0761 13.6439 22.7161 13.3199 22.0681C13.1759 21.7441 13.1039 21.3841 13.1399 21.0601C13.1399 20.9881 13.0679 20.8801 12.9599 20.8801H7.66794C7.59594 20.8801 7.52394 20.9521 7.52394 21.0241V21.1321C7.52394 24.4801 10.2239 27.1801 13.5359 27.1801H22.9319C24.6679 27.1801 25.6635 25.5903 26.6469 24.0199C26.9279 23.5712 27.2079 23.1241 27.5039 22.7161C28.0079 21.9961 29.2679 21.4201 29.6279 21.2761C29.6999 21.2401 29.7359 21.2041 29.7359 21.1321Z" fill="white"/>
</svg>
