<svg width="228" height="592" viewBox="0 0 228 592" fill="none" xmlns="http://www.w3.org/2000/svg">
<line x1="15" y1="23" x2="15" y2="238" stroke="#FFFF00" stroke-width="4"/>
<line x1="15" y1="241" x2="15" y2="571" stroke="white" stroke-width="4"/>
<circle cx="15" cy="21" r="15" transform="rotate(90 15 21)" fill="#FFFF00"/>
<path fill-rule="evenodd" clip-rule="evenodd" d="M24 15.9947L22.0053 14L11.9707 24.0346L7.99471 20.0586L6 22.0533L11.9707 28.024L24 15.9947Z" fill="#121212"/>
<circle cx="15" cy="131" r="15" transform="rotate(90 15 131)" fill="#FFFF00"/>
<path fill-rule="evenodd" clip-rule="evenodd" d="M24 125.995L22.0053 124L11.9707 134.035L7.99471 130.059L6 132.053L11.9707 138.024L24 125.995Z" fill="#121212"/>
<circle cx="15" cy="241" r="15" transform="rotate(90 15 241)" fill="white"/>
<path d="M9 239C7.9 239 7 239.9 7 241C7 242.1 7.9 243 9 243C10.1 243 11 242.1 11 241C11 239.9 10.1 239 9 239ZM21 239C19.9 239 19 239.9 19 241C19 242.1 19.9 243 21 243C22.1 243 23 242.1 23 241C23 239.9 22.1 239 21 239ZM15 239C13.9 239 13 239.9 13 241C13 242.1 13.9 243 15 243C16.1 243 17 242.1 17 241C17 239.9 16.1 239 15 239Z" fill="#121212"/>
<circle cx="15" cy="351" r="13" transform="rotate(90 15 351)" fill="#121212" stroke="white" stroke-width="4"/>
<circle cx="15" cy="461" r="13" transform="rotate(90 15 461)" fill="#121212" stroke="white" stroke-width="4"/>
<circle cx="15" cy="571" r="13" transform="rotate(90 15 571)" fill="#121212" stroke="white" stroke-width="4"/>
<path d="M51.036 7.5C51.078 8.508 51.092 10.384 51.092 12.75C51.092 14.99 51.05 17.09 51.036 18H60.276C60.262 17.426 60.248 16.866 60.248 16.292C60.248 15.718 60.262 15.144 60.276 14.584C58.708 14.626 56.888 14.626 55.544 14.626C55.544 14.052 55.544 13.422 55.544 12.792C55.558 10.468 55.572 8.284 55.614 7.5H51.036ZM67.893 13.758C67.473 13.758 66.941 13.758 66.381 13.744C66.675 12.806 66.997 11.854 67.277 11.014C67.543 10.286 67.753 9.67 67.907 9.18C68.061 9.67 68.257 10.3 68.537 10.986C68.845 11.84 69.153 12.806 69.447 13.758H67.893ZM75.677 18C74.431 15.298 72.135 9.068 71.617 7.5H64.435C63.945 9.054 61.677 15.326 60.487 18H65.177C65.247 17.58 65.429 16.894 65.667 16.068C66.493 16.068 67.305 16.068 67.893 16.068C68.509 16.068 69.307 16.068 70.119 16.068C70.357 16.922 70.511 17.622 70.567 18H75.677ZM85.1812 7.5C85.2092 9.096 85.2372 11.658 85.2372 13.128C85.2372 14.458 84.6072 15.046 82.9552 15.046C81.2892 15.046 80.5612 14.458 80.5612 13.128C80.5612 11.658 80.5892 9.096 80.6452 7.5H76.1232C76.1512 8.382 76.1792 9.25 76.1792 10.566C76.1792 11.35 76.1512 12.554 76.1512 13.394C76.1512 16.712 77.7332 18.252 82.8572 18.252C87.9952 18.252 89.5492 16.712 89.5492 13.394C89.5492 12.554 89.5212 11.35 89.5212 10.566C89.5212 9.25 89.5492 8.382 89.5912 7.5H85.1812ZM101.106 7.5C101.176 8.27 101.218 9.922 101.218 11.49C101.232 12.106 101.26 12.834 101.33 13.604L101.302 13.618C101.05 13.072 100.728 12.554 100.406 12.078C99.2158 10.594 97.0038 8.144 96.6818 7.5H91.6698C91.7258 8.914 91.7118 10.524 91.7118 12.75C91.7118 14.99 91.6838 16.586 91.6698 18H95.6038C95.5758 17.44 95.5758 16.11 95.5478 14.178C95.5198 13.352 95.4918 12.554 95.4218 11.7C95.7438 12.302 96.1498 12.904 96.5698 13.506C97.8998 15.018 99.8038 17.09 100.35 18H104.97C104.928 16.642 104.928 15.06 104.928 12.736C104.928 10.51 104.956 8.62 104.984 7.5H101.106ZM116.078 11.896C116.736 11.882 117.506 11.882 118.22 11.882C118.934 11.882 119.648 11.882 120.362 11.896C120.39 11.588 120.404 11.294 120.404 11.028C120.404 8.382 118.332 7.29 113.67 7.29C108.924 7.29 106.586 8.802 106.586 12.596C106.586 16.586 108.644 18.21 113.656 18.21C118.57 18.21 120.446 16.838 120.446 13.954C120.446 13.758 120.432 13.548 120.418 13.324C119.704 13.338 118.976 13.338 118.262 13.338C117.548 13.338 116.75 13.338 116.092 13.324V13.66C116.092 14.556 115.462 15.116 113.754 15.116C111.906 15.116 111.094 14.388 111.094 12.596C111.094 10.72 111.864 10.202 113.67 10.16C115.322 10.16 116.078 10.552 116.078 11.644V11.896ZM131.243 7.5C131.285 8.466 131.299 9.964 131.313 11.21C130.585 11.238 129.773 11.238 128.961 11.238C128.163 11.238 127.351 11.238 126.623 11.21C126.623 9.964 126.637 8.48 126.679 7.5H122.185C122.255 8.97 122.255 10.538 122.255 12.75C122.255 14.976 122.255 16.488 122.185 18H126.679C126.637 17.02 126.623 15.564 126.623 14.36C127.351 14.346 128.163 14.346 128.961 14.346C129.773 14.346 130.585 14.346 131.313 14.374C131.299 15.564 131.285 17.006 131.243 18H135.737C135.695 16.488 135.667 14.976 135.667 12.75C135.667 10.538 135.695 8.956 135.737 7.5H131.243ZM156.089 12.162C154.843 12.204 153.653 12.19 152.715 12.19C151.665 12.19 150.237 12.19 148.837 12.162C148.851 12.442 148.851 12.792 148.851 13.198C148.851 13.422 148.851 13.982 148.837 14.192C149.733 14.164 150.895 14.15 151.945 14.15C151.763 15.158 151.091 15.578 149.565 15.578C147.465 15.578 146.723 14.682 146.723 12.708C146.723 10.594 147.507 9.866 149.411 9.866C151.049 9.866 151.763 10.216 151.763 11.07C151.763 11.154 151.749 11.252 151.749 11.35C152.295 11.322 153.051 11.308 153.863 11.308C154.661 11.308 155.487 11.322 156.103 11.35C156.117 11.182 156.117 11.014 156.117 10.846C156.117 8.564 154.241 7.248 149.425 7.248C144.679 7.248 142.229 8.746 142.229 12.638C142.229 16.502 144.665 18.252 149.453 18.252C155.431 18.252 156.355 16.278 156.089 12.162ZM158.005 7.5C158.061 8.9 158.061 10.524 158.061 12.75C158.061 14.99 158.061 16.572 158.005 18H169.317C169.303 17.636 169.303 17.076 169.303 16.628C169.303 16.11 169.303 15.508 169.317 15.158C167.343 15.172 164.319 15.186 162.443 15.186V13.716C164.585 13.716 167.469 13.744 169.163 13.772C169.163 13.198 169.163 11.994 169.177 11.462C167.441 11.504 164.599 11.504 162.443 11.504V10.09C164.305 10.09 167.161 10.104 169.317 10.118C169.289 9.796 169.289 9.222 169.289 8.774C169.289 8.34 169.303 7.808 169.317 7.5H158.005ZM180.772 7.5C180.842 8.27 180.884 9.922 180.884 11.49C180.898 12.106 180.926 12.834 180.996 13.604L180.968 13.618C180.716 13.072 180.394 12.554 180.072 12.078C178.882 10.594 176.67 8.144 176.348 7.5H171.336C171.392 8.914 171.378 10.524 171.378 12.75C171.378 14.99 171.35 16.586 171.336 18H175.27C175.242 17.44 175.242 16.11 175.214 14.178C175.186 13.352 175.158 12.554 175.088 11.7C175.41 12.302 175.816 12.904 176.236 13.506C177.566 15.018 179.47 17.09 180.016 18H184.636C184.594 16.642 184.594 15.06 184.594 12.736C184.594 10.51 184.622 8.62 184.65 7.5H180.772ZM191.763 18.014C192.771 17.972 193.499 17.972 194.157 17.972C194.829 17.972 195.529 17.972 196.579 18C196.537 16.544 196.523 14.976 196.523 12.75C196.523 10.51 196.537 8.76 196.579 7.5C196.313 7.514 195.907 7.514 195.473 7.514C195.109 7.514 194.731 7.514 194.283 7.5C193.555 8.06 192.673 8.62 191.651 8.984C191.693 9.572 191.805 10.482 191.805 12.75C191.805 14.99 191.791 16.53 191.763 18.014ZM60.01 32.896C60.668 32.882 61.438 32.882 62.152 32.882C62.866 32.882 63.58 32.882 64.294 32.896C64.322 32.588 64.336 32.294 64.336 32.028C64.336 29.382 62.264 28.29 57.602 28.29C52.856 28.29 50.518 29.802 50.518 33.596C50.518 37.586 52.576 39.21 57.588 39.21C62.502 39.21 64.378 37.838 64.378 34.954C64.378 34.758 64.364 34.548 64.35 34.324C63.636 34.338 62.908 34.338 62.194 34.338C61.48 34.338 60.682 34.338 60.024 34.324V34.66C60.024 35.556 59.394 36.116 57.686 36.116C55.838 36.116 55.026 35.388 55.026 33.596C55.026 31.72 55.796 31.202 57.602 31.16C59.254 31.16 60.01 31.552 60.01 32.644V32.896ZM80.0887 33.596C80.0887 29.858 77.6947 28.22 72.8087 28.22C67.9227 28.22 65.5987 29.858 65.5987 33.596C65.5987 37.306 67.6567 39.28 72.7947 39.28C77.9467 39.28 80.0887 37.306 80.0887 33.596ZM72.8087 36.214C70.8767 36.214 70.0927 35.374 70.0927 33.624C70.0927 31.888 70.8907 31.132 72.8087 31.132C74.7407 31.132 75.5247 31.902 75.5247 33.624C75.5247 35.36 74.7547 36.214 72.8087 36.214ZM81.6747 28.5C81.7167 29.508 81.7307 31.384 81.7307 33.75C81.7307 35.99 81.6887 38.09 81.6747 39H90.9147C90.9007 38.426 90.8867 37.866 90.8867 37.292C90.8867 36.718 90.9007 36.144 90.9147 35.584C89.3467 35.626 87.5267 35.626 86.1827 35.626C86.1827 35.052 86.1827 34.422 86.1827 33.792C86.1967 31.468 86.2107 29.284 86.2527 28.5H81.6747ZM92.1337 28.5C92.1757 29.508 92.1897 31.384 92.1897 33.75C92.1897 35.99 92.1477 38.09 92.1337 39H101.374C101.36 38.426 101.346 37.866 101.346 37.292C101.346 36.718 101.36 36.144 101.374 35.584C99.8057 35.626 97.9857 35.626 96.6417 35.626C96.6417 35.052 96.6417 34.422 96.6417 33.792C96.6557 31.468 96.6697 29.284 96.7117 28.5H92.1337ZM102.621 28.5C102.677 29.9 102.677 31.524 102.677 33.75C102.677 35.99 102.677 37.572 102.621 39H113.933C113.919 38.636 113.919 38.076 113.919 37.628C113.919 37.11 113.919 36.508 113.933 36.158C111.959 36.172 108.935 36.186 107.059 36.186V34.716C109.201 34.716 112.085 34.744 113.779 34.772C113.779 34.198 113.779 32.994 113.793 32.462C112.057 32.504 109.215 32.504 107.059 32.504V31.09C108.921 31.09 111.777 31.104 113.933 31.118C113.905 30.796 113.905 30.222 113.905 29.774C113.905 29.34 113.919 28.808 113.933 28.5H102.621ZM124.883 32.896C125.541 32.882 126.311 32.882 127.025 32.882C127.739 32.882 128.453 32.882 129.167 32.896C129.195 32.588 129.209 32.294 129.209 32.028C129.209 29.382 127.137 28.29 122.475 28.29C117.729 28.29 115.391 29.802 115.391 33.596C115.391 37.586 117.449 39.21 122.461 39.21C127.375 39.21 129.251 37.838 129.251 34.954C129.251 34.758 129.237 34.548 129.223 34.324C128.509 34.338 127.781 34.338 127.067 34.338C126.353 34.338 125.555 34.338 124.897 34.324V34.66C124.897 35.556 124.267 36.116 122.559 36.116C120.711 36.116 119.899 35.388 119.899 33.596C119.899 31.72 120.669 31.202 122.475 31.16C124.127 31.16 124.883 31.552 124.883 32.644V32.896ZM130.122 28.5C130.136 28.934 130.136 29.578 130.136 30.166C130.136 30.74 130.136 31.44 130.122 31.902C131.312 31.874 132.474 31.874 133.552 31.86C133.538 35.192 133.51 38.272 133.468 39.014C134.126 38.972 135.106 38.972 135.82 38.972C136.534 38.972 137.542 38.972 138.158 39.014C138.116 38.258 138.102 35.178 138.102 31.86C139.18 31.874 140.342 31.874 141.518 31.902C141.49 31.44 141.49 30.74 141.49 30.166C141.49 29.578 141.49 28.92 141.518 28.5H130.122ZM147.255 39C147.227 37.418 147.213 35.948 147.213 33.736C147.213 31.496 147.213 30.04 147.255 28.5H142.775C142.817 30.054 142.817 31.524 142.817 33.75C142.817 35.976 142.817 37.432 142.775 39H147.255ZM163.35 33.596C163.35 29.858 160.956 28.22 156.07 28.22C151.184 28.22 148.86 29.858 148.86 33.596C148.86 37.306 150.918 39.28 156.056 39.28C161.208 39.28 163.35 37.306 163.35 33.596ZM156.07 36.214C154.138 36.214 153.354 35.374 153.354 33.624C153.354 31.888 154.152 31.132 156.07 31.132C158.002 31.132 158.786 31.902 158.786 33.624C158.786 35.36 158.016 36.214 156.07 36.214ZM174.414 28.5C174.484 29.27 174.526 30.922 174.526 32.49C174.54 33.106 174.568 33.834 174.638 34.604L174.61 34.618C174.358 34.072 174.036 33.554 173.714 33.078C172.524 31.594 170.312 29.144 169.99 28.5H164.978C165.034 29.914 165.02 31.524 165.02 33.75C165.02 35.99 164.992 37.586 164.978 39H168.912C168.884 38.44 168.884 37.11 168.856 35.178C168.828 34.352 168.8 33.554 168.73 32.7C169.052 33.302 169.458 33.904 169.878 34.506C171.208 36.018 173.112 38.09 173.658 39H178.278C178.236 37.642 178.236 36.06 178.236 33.736C178.236 31.51 178.264 29.62 178.292 28.5H174.414Z" fill="white"/>
<path d="M57.434 123.758C57.014 123.758 56.482 123.758 55.922 123.744C56.216 122.806 56.538 121.854 56.818 121.014C57.084 120.286 57.294 119.67 57.448 119.18C57.602 119.67 57.798 120.3 58.078 120.986C58.386 121.84 58.694 122.806 58.988 123.758H57.434ZM65.218 128C63.972 125.298 61.676 119.068 61.158 117.5H53.976C53.486 119.054 51.218 125.326 50.028 128H54.718C54.788 127.58 54.97 126.894 55.208 126.068C56.034 126.068 56.846 126.068 57.434 126.068C58.05 126.068 58.848 126.068 59.66 126.068C59.898 126.922 60.052 127.622 60.108 128H65.218ZM66.1708 117.5C66.2128 118.508 66.2268 120.384 66.2268 122.75C66.2268 124.99 66.1848 127.09 66.1708 128H75.4108C75.3968 127.426 75.3828 126.866 75.3828 126.292C75.3828 125.718 75.3968 125.144 75.4108 124.584C73.8428 124.626 72.0228 124.626 70.6788 124.626C70.6788 124.052 70.6788 123.422 70.6788 122.792C70.6928 120.468 70.7068 118.284 70.7488 117.5H66.1708ZM83.2378 123.114C82.2858 123.114 81.4318 123.1 80.9138 123.1C80.8998 122.176 80.8998 121.182 80.8998 120.132C81.6558 120.118 82.8178 120.104 83.3077 120.104C84.6518 120.104 85.1838 120.426 85.1838 121.588C85.1838 122.722 84.6938 123.114 83.2378 123.114ZM76.6158 117.5C76.6578 118.97 76.6858 120.524 76.6858 122.75C76.6858 124.99 76.6578 126.474 76.6158 128H81.0818C81.0258 127.356 80.9838 126.586 80.9558 125.69C82.1178 125.718 83.0138 125.718 84.0078 125.718C87.8858 125.718 89.3558 124.472 89.3558 121.476C89.3558 118.312 87.5498 117.5 84.4138 117.5H76.6158ZM99.8525 117.5C99.8945 118.466 99.9085 119.964 99.9225 121.21C99.1945 121.238 98.3825 121.238 97.5705 121.238C96.7725 121.238 95.9605 121.238 95.2325 121.21C95.2325 119.964 95.2465 118.48 95.2885 117.5H90.7945C90.8645 118.97 90.8645 120.538 90.8645 122.75C90.8645 124.976 90.8645 126.488 90.7945 128H95.2885C95.2465 127.02 95.2325 125.564 95.2325 124.36C95.9605 124.346 96.7725 124.346 97.5705 124.346C98.3825 124.346 99.1945 124.346 99.9225 124.374C99.9085 125.564 99.8945 127.006 99.8525 128H104.346C104.304 126.488 104.276 124.976 104.276 122.75C104.276 120.538 104.304 118.956 104.346 117.5H99.8525ZM112.846 123.758C112.426 123.758 111.894 123.758 111.334 123.744C111.628 122.806 111.95 121.854 112.23 121.014C112.496 120.286 112.706 119.67 112.86 119.18C113.014 119.67 113.21 120.3 113.49 120.986C113.798 121.84 114.106 122.806 114.4 123.758H112.846ZM120.63 128C119.384 125.298 117.088 119.068 116.57 117.5H109.388C108.898 119.054 106.63 125.326 105.44 128H110.13C110.2 127.58 110.382 126.894 110.62 126.068C111.446 126.068 112.258 126.068 112.846 126.068C113.462 126.068 114.26 126.068 115.072 126.068C115.31 126.922 115.464 127.622 115.52 128H120.63ZM135.561 121.896C136.219 121.882 136.989 121.882 137.703 121.882C138.417 121.882 139.131 121.882 139.845 121.896C139.873 121.588 139.887 121.294 139.887 121.028C139.887 118.382 137.815 117.29 133.153 117.29C128.407 117.29 126.069 118.802 126.069 122.596C126.069 126.586 128.127 128.21 133.139 128.21C138.053 128.21 139.929 126.838 139.929 123.954C139.929 123.758 139.915 123.548 139.901 123.324C139.187 123.338 138.459 123.338 137.745 123.338C137.031 123.338 136.233 123.338 135.575 123.324V123.66C135.575 124.556 134.945 125.116 133.237 125.116C131.389 125.116 130.577 124.388 130.577 122.596C130.577 120.72 131.347 120.202 133.153 120.16C134.805 120.16 135.561 120.552 135.561 121.644V121.896ZM147.901 123.758C147.481 123.758 146.949 123.758 146.389 123.744C146.683 122.806 147.005 121.854 147.285 121.014C147.551 120.286 147.761 119.67 147.915 119.18C148.069 119.67 148.265 120.3 148.545 120.986C148.853 121.84 149.161 122.806 149.455 123.758H147.901ZM155.685 128C154.439 125.298 152.143 119.068 151.625 117.5H144.443C143.953 119.054 141.685 125.326 140.495 128H145.185C145.255 127.58 145.437 126.894 145.675 126.068C146.501 126.068 147.313 126.068 147.901 126.068C148.517 126.068 149.315 126.068 150.127 126.068C150.365 126.922 150.519 127.622 150.575 128H155.685ZM156.638 117.5C156.68 118.508 156.694 120.384 156.694 122.75C156.694 124.99 156.652 127.09 156.638 128H165.878C165.864 127.426 165.85 126.866 165.85 126.292C165.85 125.718 165.864 125.144 165.878 124.584C164.31 124.626 162.49 124.626 161.146 124.626C161.146 124.052 161.146 123.422 161.146 122.792C161.16 120.468 161.174 118.284 161.216 117.5H156.638ZM167.097 117.5C167.139 118.508 167.153 120.384 167.153 122.75C167.153 124.99 167.111 127.09 167.097 128H176.337C176.323 127.426 176.309 126.866 176.309 126.292C176.309 125.718 176.323 125.144 176.337 124.584C174.769 124.626 172.949 124.626 171.605 124.626C171.605 124.052 171.605 123.422 171.605 122.792C171.619 120.468 171.633 118.284 171.675 117.5H167.097ZM181.113 124.542C180.721 124.57 180.217 124.584 179.671 124.584C178.789 124.584 177.865 124.528 177.221 124.472C177.193 124.738 177.179 124.99 177.179 125.228C177.179 127.314 178.677 128.252 183.577 128.252C188.267 128.252 189.835 127.118 189.835 124.864C189.835 122.666 188.603 121.812 184.641 121.462C181.771 121.21 181.519 120.888 181.519 120.398C181.519 119.978 181.883 119.726 183.535 119.726C185.453 119.726 185.817 120.02 185.817 120.622C185.817 120.692 185.817 120.79 185.803 120.874C186.153 120.86 186.727 120.846 187.329 120.846C188.127 120.846 189.065 120.874 189.611 120.916C189.625 120.692 189.625 120.482 189.625 120.272C189.625 118.186 188.239 117.248 183.381 117.248C178.985 117.248 177.207 118.368 177.207 120.594C177.207 122.554 178.215 123.576 182.583 123.912C185.229 124.094 185.523 124.444 185.523 124.99C185.523 125.466 185.173 125.732 183.367 125.732C181.617 125.732 181.113 125.438 181.113 124.71V124.542ZM195.123 130.044C195.753 130.03 196.565 130.03 197.209 130.03C197.615 130.03 198.623 130.03 199.267 130.044C199.687 127.706 201.787 118.438 202.249 117.038C201.605 117.066 200.667 117.066 200.149 117.066C199.547 117.066 198.805 117.066 198.119 117.038C197.853 118.662 195.851 127.664 195.123 130.044ZM65.442 138.5C65.302 139.522 64.812 142.14 64.42 144.128C64.266 144.814 64.168 145.402 64.084 145.906H64C63.902 145.416 63.79 144.814 63.608 144.128C63.146 142.14 62.712 139.438 62.586 138.5C62.068 138.514 60.962 138.528 60.29 138.528C59.562 138.528 58.218 138.514 57.658 138.5C57.546 139.522 56.986 142.14 56.594 144.072C56.454 144.716 56.314 145.332 56.202 145.85H56.118C56.006 145.346 55.894 144.73 55.768 144.1C55.362 142.168 54.844 139.242 54.76 138.5H50.014C50.91 141.006 52.478 147.166 52.982 149C53.416 148.986 54.242 148.972 55.642 148.972C56.51 148.972 57.49 149 57.966 149C58.19 148.048 58.638 146.2 59.03 144.548C59.198 143.792 59.352 142.882 59.478 142.084H59.59C59.702 142.868 59.842 143.736 59.982 144.506C60.346 146.284 60.766 148.146 60.948 149C61.34 148.986 62.39 148.972 63.762 148.972C64.798 148.972 65.708 148.986 66.352 149C66.758 147.418 68.466 140.992 69.292 138.5H65.442ZM70.3407 138.5C70.3827 139.508 70.3967 141.384 70.3967 143.75C70.3967 145.99 70.3547 148.09 70.3407 149H79.5807C79.5667 148.426 79.5527 147.866 79.5527 147.292C79.5527 146.718 79.5667 146.144 79.5807 145.584C78.0127 145.626 76.1927 145.626 74.8487 145.626C74.8487 145.052 74.8487 144.422 74.8487 143.792C74.8627 141.468 74.8767 139.284 74.9187 138.5H70.3407ZM99.0502 143.162C97.8042 143.204 96.6142 143.19 95.6762 143.19C94.6262 143.19 93.1982 143.19 91.7982 143.162C91.8122 143.442 91.8122 143.792 91.8122 144.198C91.8122 144.422 91.8122 144.982 91.7982 145.192C92.6942 145.164 93.8562 145.15 94.9062 145.15C94.7242 146.158 94.0522 146.578 92.5262 146.578C90.4262 146.578 89.6842 145.682 89.6842 143.708C89.6842 141.594 90.4682 140.866 92.3722 140.866C94.0102 140.866 94.7242 141.216 94.7242 142.07C94.7242 142.154 94.7102 142.252 94.7102 142.35C95.2562 142.322 96.0122 142.308 96.8242 142.308C97.6222 142.308 98.4482 142.322 99.0642 142.35C99.0782 142.182 99.0782 142.014 99.0782 141.846C99.0782 139.564 97.2022 138.248 92.3862 138.248C87.6402 138.248 85.1902 139.746 85.1902 143.638C85.1902 147.502 87.6262 149.252 92.4142 149.252C98.3922 149.252 99.3162 147.278 99.0502 143.162ZM105.446 149C105.418 147.418 105.404 145.948 105.404 143.736C105.404 141.496 105.404 140.04 105.446 138.5H100.966C101.008 140.054 101.008 141.524 101.008 143.75C101.008 145.976 101.008 147.432 100.966 149H105.446ZM116.222 138.5C116.012 139.466 115.06 142.518 114.332 144.814C114.136 145.388 113.968 145.906 113.828 146.368C113.688 145.906 113.534 145.374 113.324 144.814C112.554 142.504 111.63 139.452 111.462 138.5H106.52C107.668 141.104 109.852 147.32 110.37 149C111.042 148.986 112.134 148.972 113.786 148.972C115.088 148.972 116.25 148.986 117.104 149C117.622 147.306 119.736 141.146 120.842 138.5H116.222ZM121.925 138.5C121.981 139.9 121.981 141.524 121.981 143.75C121.981 145.99 121.981 147.572 121.925 149H133.237C133.223 148.636 133.223 148.076 133.223 147.628C133.223 147.11 133.223 146.508 133.237 146.158C131.263 146.172 128.239 146.186 126.363 146.186V144.716C128.505 144.716 131.389 144.744 133.083 144.772C133.083 144.198 133.083 142.994 133.097 142.462C131.361 142.504 128.519 142.504 126.363 142.504V141.09C128.225 141.09 131.081 141.104 133.237 141.118C133.209 140.796 133.209 140.222 133.209 139.774C133.209 139.34 133.223 138.808 133.237 138.5H121.925ZM141.612 144.758C141.192 144.758 140.66 144.758 140.1 144.744C140.394 143.806 140.716 142.854 140.996 142.014C141.262 141.286 141.472 140.67 141.626 140.18C141.78 140.67 141.976 141.3 142.256 141.986C142.564 142.84 142.872 143.806 143.166 144.758H141.612ZM149.396 149C148.15 146.298 145.854 140.068 145.336 138.5H138.154C137.664 140.054 135.396 146.326 134.206 149H138.896C138.966 148.58 139.148 147.894 139.386 147.068C140.212 147.068 141.024 147.068 141.612 147.068C142.228 147.068 143.026 147.068 143.838 147.068C144.076 147.922 144.23 148.622 144.286 149H149.396ZM164.044 138.5C163.904 139.522 163.414 142.14 163.022 144.128C162.868 144.814 162.77 145.402 162.686 145.906H162.602C162.504 145.416 162.392 144.814 162.21 144.128C161.748 142.14 161.314 139.438 161.188 138.5C160.67 138.514 159.564 138.528 158.892 138.528C158.164 138.528 156.82 138.514 156.26 138.5C156.148 139.522 155.588 142.14 155.196 144.072C155.056 144.716 154.916 145.332 154.804 145.85H154.72C154.608 145.346 154.496 144.73 154.37 144.1C153.964 142.168 153.446 139.242 153.362 138.5H148.616C149.512 141.006 151.08 147.166 151.584 149C152.018 148.986 152.844 148.972 154.244 148.972C155.112 148.972 156.092 149 156.568 149C156.792 148.048 157.24 146.2 157.632 144.548C157.8 143.792 157.954 142.882 158.08 142.084H158.192C158.304 142.868 158.444 143.736 158.584 144.506C158.948 146.284 159.368 148.146 159.55 149C159.942 148.986 160.992 148.972 162.364 148.972C163.4 148.972 164.31 148.986 164.954 149C165.36 147.418 167.068 140.992 167.894 138.5H164.044ZM174.493 144.758C174.073 144.758 173.541 144.758 172.981 144.744C173.275 143.806 173.597 142.854 173.877 142.014C174.143 141.286 174.353 140.67 174.507 140.18C174.661 140.67 174.857 141.3 175.137 141.986C175.445 142.84 175.753 143.806 176.047 144.758H174.493ZM182.277 149C181.031 146.298 178.735 140.068 178.217 138.5H171.035C170.545 140.054 168.277 146.326 167.087 149H171.777C171.847 148.58 172.029 147.894 172.267 147.068C173.093 147.068 173.905 147.068 174.493 147.068C175.109 147.068 175.907 147.068 176.719 147.068C176.957 147.922 177.111 148.622 177.167 149H182.277ZM190.276 138.5C190.066 139.06 189.31 140.46 188.806 141.622C188.47 142.322 188.26 142.938 188.106 143.442H187.966C187.784 142.924 187.546 142.28 187.238 141.552C186.762 140.418 186.104 139.06 185.838 138.5H180.84C182.072 140.166 184.536 144.296 185.306 145.836C185.306 147.39 185.278 148.58 185.236 149.014C185.908 148.986 186.986 148.986 187.784 148.986C188.61 148.986 189.66 148.986 190.346 149.014C190.332 148.594 190.304 147.418 190.29 145.892C191.074 144.408 193.524 140.236 194.756 138.5H190.276ZM198.681 145.542C198.289 145.57 197.785 145.584 197.239 145.584C196.357 145.584 195.433 145.528 194.789 145.472C194.761 145.738 194.747 145.99 194.747 146.228C194.747 148.314 196.245 149.252 201.145 149.252C205.835 149.252 207.403 148.118 207.403 145.864C207.403 143.666 206.171 142.812 202.209 142.462C199.339 142.21 199.087 141.888 199.087 141.398C199.087 140.978 199.451 140.726 201.103 140.726C203.021 140.726 203.385 141.02 203.385 141.622C203.385 141.692 203.385 141.79 203.371 141.874C203.721 141.86 204.295 141.846 204.897 141.846C205.695 141.846 206.633 141.874 207.179 141.916C207.193 141.692 207.193 141.482 207.193 141.272C207.193 139.186 205.807 138.248 200.949 138.248C196.553 138.248 194.775 139.368 194.775 141.594C194.775 143.554 195.783 144.576 200.151 144.912C202.797 145.094 203.091 145.444 203.091 145.99C203.091 146.466 202.741 146.732 200.935 146.732C199.185 146.732 198.681 146.438 198.681 145.71V145.542Z" fill="white"/>
<path d="M65.442 227.5C65.302 228.522 64.812 231.14 64.42 233.128C64.266 233.814 64.168 234.402 64.084 234.906H64C63.902 234.416 63.79 233.814 63.608 233.128C63.146 231.14 62.712 228.438 62.586 227.5C62.068 227.514 60.962 227.528 60.29 227.528C59.562 227.528 58.218 227.514 57.658 227.5C57.546 228.522 56.986 231.14 56.594 233.072C56.454 233.716 56.314 234.332 56.202 234.85H56.118C56.006 234.346 55.894 233.73 55.768 233.1C55.362 231.168 54.844 228.242 54.76 227.5H50.014C50.91 230.006 52.478 236.166 52.982 238C53.416 237.986 54.242 237.972 55.642 237.972C56.51 237.972 57.49 238 57.966 238C58.19 237.048 58.638 235.2 59.03 233.548C59.198 232.792 59.352 231.882 59.478 231.084H59.59C59.702 231.868 59.842 232.736 59.982 233.506C60.346 235.284 60.766 237.146 60.948 238C61.34 237.986 62.39 237.972 63.762 237.972C64.798 237.972 65.708 237.986 66.352 238C66.758 236.418 68.466 229.992 69.292 227.5H65.442ZM79.4267 227.5C79.4687 228.466 79.4827 229.964 79.4967 231.21C78.7687 231.238 77.9567 231.238 77.1447 231.238C76.3467 231.238 75.5347 231.238 74.8067 231.21C74.8067 229.964 74.8207 228.48 74.8627 227.5H70.3687C70.4387 228.97 70.4387 230.538 70.4387 232.75C70.4387 234.976 70.4387 236.488 70.3687 238H74.8627C74.8207 237.02 74.8067 235.564 74.8067 234.36C75.5347 234.346 76.3467 234.346 77.1447 234.346C77.9567 234.346 78.7687 234.346 79.4967 234.374C79.4827 235.564 79.4687 237.006 79.4267 238H83.9207C83.8787 236.488 83.8507 234.976 83.8507 232.75C83.8507 230.538 83.8787 228.956 83.9207 227.5H79.4267ZM90.5303 238C90.5023 236.418 90.4883 234.948 90.4883 232.736C90.4883 230.496 90.4883 229.04 90.5303 227.5H86.0503C86.0923 229.054 86.0923 230.524 86.0923 232.75C86.0923 234.976 86.0923 236.432 86.0503 238H90.5303ZM91.7858 227.5C91.7998 227.934 91.7998 228.578 91.7998 229.166C91.7998 229.74 91.7998 230.44 91.7858 230.902C92.9758 230.874 94.1378 230.874 95.2158 230.86C95.2018 234.192 95.1738 237.272 95.1318 238.014C95.7898 237.972 96.7698 237.972 97.4838 237.972C98.1978 237.972 99.2058 237.972 99.8218 238.014C99.7798 237.258 99.7658 234.178 99.7658 230.86C100.844 230.874 102.006 230.874 103.182 230.902C103.154 230.44 103.154 229.74 103.154 229.166C103.154 228.578 103.154 227.92 103.182 227.5H91.7858ZM104.439 227.5C104.495 228.9 104.495 230.524 104.495 232.75C104.495 234.99 104.495 236.572 104.439 238H115.751C115.737 237.636 115.737 237.076 115.737 236.628C115.737 236.11 115.737 235.508 115.751 235.158C113.777 235.172 110.753 235.186 108.877 235.186V233.716C111.019 233.716 113.903 233.744 115.597 233.772C115.597 233.198 115.597 231.994 115.611 231.462C113.875 231.504 111.033 231.504 108.877 231.504V230.09C110.739 230.09 113.595 230.104 115.751 230.118C115.723 229.796 115.723 229.222 115.723 228.774C115.723 228.34 115.737 227.808 115.751 227.5H104.439ZM117.727 227.5C117.769 228.508 117.783 230.384 117.783 232.75C117.783 234.99 117.741 237.09 117.727 238H126.967C126.953 237.426 126.939 236.866 126.939 236.292C126.939 235.718 126.953 235.144 126.967 234.584C125.399 234.626 123.579 234.626 122.235 234.626C122.235 234.052 122.235 233.422 122.235 232.792C122.249 230.468 122.263 228.284 122.305 227.5H117.727ZM132.694 238C132.666 236.418 132.652 234.948 132.652 232.736C132.652 230.496 132.652 229.04 132.694 227.5H128.214C128.256 229.054 128.256 230.524 128.256 232.75C128.256 234.976 128.256 236.432 128.214 238H132.694ZM138.388 234.542C137.996 234.57 137.492 234.584 136.946 234.584C136.064 234.584 135.14 234.528 134.496 234.472C134.468 234.738 134.454 234.99 134.454 235.228C134.454 237.314 135.952 238.252 140.852 238.252C145.542 238.252 147.11 237.118 147.11 234.864C147.11 232.666 145.878 231.812 141.916 231.462C139.046 231.21 138.794 230.888 138.794 230.398C138.794 229.978 139.158 229.726 140.81 229.726C142.728 229.726 143.092 230.02 143.092 230.622C143.092 230.692 143.092 230.79 143.078 230.874C143.428 230.86 144.002 230.846 144.604 230.846C145.402 230.846 146.34 230.874 146.886 230.916C146.9 230.692 146.9 230.482 146.9 230.272C146.9 228.186 145.514 227.248 140.656 227.248C136.26 227.248 134.482 228.368 134.482 230.594C134.482 232.554 135.49 233.576 139.858 233.912C142.504 234.094 142.798 234.444 142.798 234.99C142.798 235.466 142.448 235.732 140.642 235.732C138.892 235.732 138.388 235.438 138.388 234.71V234.542ZM147.882 227.5C147.896 227.934 147.896 228.578 147.896 229.166C147.896 229.74 147.896 230.44 147.882 230.902C149.072 230.874 150.234 230.874 151.312 230.86C151.298 234.192 151.27 237.272 151.228 238.014C151.886 237.972 152.866 237.972 153.58 237.972C154.294 237.972 155.302 237.972 155.918 238.014C155.876 237.258 155.862 234.178 155.862 230.86C156.94 230.874 158.102 230.874 159.278 230.902C159.25 230.44 159.25 229.74 159.25 229.166C159.25 228.578 159.25 227.92 159.278 227.5H147.882ZM67.108 259C67.038 257.488 67.024 255.962 67.024 253.736C67.024 251.44 67.052 249.872 67.08 248.5H61.928C61.508 249.494 60.794 251.09 60.038 252.756C59.842 253.246 59.604 253.862 59.38 254.478C59.142 253.862 58.904 253.246 58.694 252.756C57.896 251.034 57.238 249.508 56.818 248.5H51.12C51.162 249.872 51.176 251.44 51.176 253.736C51.176 255.962 51.162 257.488 51.092 259H54.816C54.76 257.502 54.732 256.186 54.718 254.464C54.704 253.708 54.662 252.98 54.62 252.252L54.69 252.238C54.942 252.966 55.236 253.722 55.516 254.296L57.882 259H59.996L62.208 254.548C62.488 253.974 62.768 253.218 63.034 252.448L63.104 252.462C63.062 253.204 63.02 253.974 63.02 254.646C63.006 256.284 62.964 257.516 62.908 259H67.108ZM75.6176 254.758C75.1976 254.758 74.6656 254.758 74.1056 254.744C74.3996 253.806 74.7216 252.854 75.0016 252.014C75.2676 251.286 75.4776 250.67 75.6316 250.18C75.7856 250.67 75.9816 251.3 76.2616 251.986C76.5696 252.84 76.8776 253.806 77.1716 254.758H75.6176ZM83.4016 259C82.1556 256.298 79.8596 250.068 79.3416 248.5H72.1596C71.6696 250.054 69.4016 256.326 68.2116 259H72.9016C72.9716 258.58 73.1536 257.894 73.3916 257.068C74.2176 257.068 75.0296 257.068 75.6176 257.068C76.2336 257.068 77.0316 257.068 77.8436 257.068C78.0816 257.922 78.2356 258.622 78.2916 259H83.4016ZM91.3124 253.484C90.2344 253.484 89.2544 253.484 88.6664 253.456C88.6524 252.672 88.6524 251.846 88.6524 251.034C89.4784 251.006 90.7104 250.992 91.2004 250.992C92.5164 250.992 93.0624 251.244 93.0624 252.224C93.0624 253.092 92.5584 253.484 91.3124 253.484ZM94.2104 254.632C96.4084 254.352 97.2904 253.484 97.2904 251.608C97.2904 249.41 95.6104 248.5 92.4464 248.5H84.3824C84.4244 250.012 84.4524 251.524 84.4524 253.75C84.4524 256.004 84.4104 257.474 84.3824 259H88.8624C88.7784 258.216 88.7224 257.096 88.6944 255.78H91.0184C92.3344 255.78 92.6004 256.074 92.9084 257.642C93.1464 258.818 93.3144 259 94.0004 259H97.8084C97.6544 258.552 97.4584 257.684 97.2484 256.9C96.8844 255.374 96.0864 254.926 94.2104 254.716V254.632ZM107.46 248.5C106.998 249.242 106.41 250.222 105.332 251.552C104.87 252.112 104.338 252.686 103.834 253.26H103.736C103.736 251.51 103.736 249.928 103.806 248.5H99.2984C99.3544 250.068 99.3684 251.524 99.3684 253.75C99.3684 255.976 99.3544 257.404 99.2984 259H103.806C103.75 257.768 103.736 256.48 103.736 255.01H103.862C104.87 255.822 106.088 257.432 106.956 258.51C107.194 258.874 107.46 259 108.062 259H112.878C112.472 258.552 111.744 257.586 110.064 255.682C109.42 254.828 108.692 254.184 107.754 253.834C109.42 252.798 111.492 249.984 112.71 248.5H107.46ZM113.627 248.5C113.683 249.9 113.683 251.524 113.683 253.75C113.683 255.99 113.683 257.572 113.627 259H124.939C124.925 258.636 124.925 258.076 124.925 257.628C124.925 257.11 124.925 256.508 124.939 256.158C122.965 256.172 119.941 256.186 118.065 256.186V254.716C120.207 254.716 123.091 254.744 124.785 254.772C124.785 254.198 124.785 252.994 124.799 252.462C123.063 252.504 120.221 252.504 118.065 252.504V251.09C119.927 251.09 122.783 251.104 124.939 251.118C124.911 250.796 124.911 250.222 124.911 249.774C124.911 249.34 124.925 248.808 124.939 248.5H113.627ZM126.075 248.5C126.089 248.934 126.089 249.578 126.089 250.166C126.089 250.74 126.089 251.44 126.075 251.902C127.265 251.874 128.427 251.874 129.505 251.86C129.491 255.192 129.463 258.272 129.421 259.014C130.079 258.972 131.059 258.972 131.773 258.972C132.487 258.972 133.495 258.972 134.111 259.014C134.069 258.258 134.055 255.178 134.055 251.86C135.133 251.874 136.295 251.874 137.471 251.902C137.443 251.44 137.443 250.74 137.443 250.166C137.443 249.578 137.443 248.92 137.471 248.5H126.075ZM145.308 254.114C144.356 254.114 143.502 254.1 142.984 254.1C142.97 253.176 142.97 252.182 142.97 251.132C143.726 251.118 144.888 251.104 145.378 251.104C146.722 251.104 147.254 251.426 147.254 252.588C147.254 253.722 146.764 254.114 145.308 254.114ZM138.686 248.5C138.728 249.97 138.756 251.524 138.756 253.75C138.756 255.99 138.728 257.474 138.686 259H143.152C143.096 258.356 143.054 257.586 143.026 256.69C144.188 256.718 145.084 256.718 146.078 256.718C149.956 256.718 151.426 255.472 151.426 252.476C151.426 249.312 149.62 248.5 146.484 248.5H138.686ZM152.837 248.5C152.879 249.508 152.893 251.384 152.893 253.75C152.893 255.99 152.851 258.09 152.837 259H162.077C162.063 258.426 162.049 257.866 162.049 257.292C162.049 256.718 162.063 256.144 162.077 255.584C160.509 255.626 158.689 255.626 157.345 255.626C157.345 255.052 157.345 254.422 157.345 253.792C157.359 251.468 157.373 249.284 157.415 248.5H152.837ZM169.694 254.758C169.274 254.758 168.742 254.758 168.182 254.744C168.476 253.806 168.798 252.854 169.078 252.014C169.344 251.286 169.554 250.67 169.708 250.18C169.862 250.67 170.058 251.3 170.338 251.986C170.646 252.84 170.954 253.806 171.248 254.758H169.694ZM177.478 259C176.232 256.298 173.936 250.068 173.418 248.5H166.236C165.746 250.054 163.478 256.326 162.288 259H166.978C167.048 258.58 167.23 257.894 167.468 257.068C168.294 257.068 169.106 257.068 169.694 257.068C170.31 257.068 171.108 257.068 171.92 257.068C172.158 257.922 172.312 258.622 172.368 259H177.478ZM186.926 252.896C187.584 252.882 188.354 252.882 189.068 252.882C189.782 252.882 190.496 252.882 191.21 252.896C191.238 252.588 191.252 252.294 191.252 252.028C191.252 249.382 189.18 248.29 184.518 248.29C179.772 248.29 177.434 249.802 177.434 253.596C177.434 257.586 179.492 259.21 184.504 259.21C189.418 259.21 191.294 257.838 191.294 254.954C191.294 254.758 191.28 254.548 191.266 254.324C190.552 254.338 189.824 254.338 189.11 254.338C188.396 254.338 187.598 254.338 186.94 254.324V254.66C186.94 255.556 186.31 256.116 184.602 256.116C182.754 256.116 181.942 255.388 181.942 253.596C181.942 251.72 182.712 251.202 184.518 251.16C186.17 251.16 186.926 251.552 186.926 252.644V252.896ZM193.033 248.5C193.089 249.9 193.089 251.524 193.089 253.75C193.089 255.99 193.089 257.572 193.033 259H204.345C204.331 258.636 204.331 258.076 204.331 257.628C204.331 257.11 204.331 256.508 204.345 256.158C202.371 256.172 199.347 256.186 197.471 256.186V254.716C199.613 254.716 202.497 254.744 204.191 254.772C204.191 254.198 204.191 252.994 204.205 252.462C202.469 252.504 199.627 252.504 197.471 252.504V251.09C199.333 251.09 202.189 251.104 204.345 251.118C204.317 250.796 204.317 250.222 204.317 249.774C204.317 249.34 204.331 248.808 204.345 248.5H193.033Z" fill="white"/>
<path d="M64.392 342.162C63.146 342.204 61.956 342.19 61.018 342.19C59.968 342.19 58.54 342.19 57.14 342.162C57.154 342.442 57.154 342.792 57.154 343.198C57.154 343.422 57.154 343.982 57.14 344.192C58.036 344.164 59.198 344.15 60.248 344.15C60.066 345.158 59.394 345.578 57.868 345.578C55.768 345.578 55.026 344.682 55.026 342.708C55.026 340.594 55.81 339.866 57.714 339.866C59.352 339.866 60.066 340.216 60.066 341.07C60.066 341.154 60.052 341.252 60.052 341.35C60.598 341.322 61.354 341.308 62.166 341.308C62.964 341.308 63.79 341.322 64.406 341.35C64.42 341.182 64.42 341.014 64.42 340.846C64.42 338.564 62.544 337.248 57.728 337.248C52.982 337.248 50.532 338.746 50.532 342.638C50.532 346.502 52.968 348.252 57.756 348.252C63.734 348.252 64.658 346.278 64.392 342.162ZM72.432 343.758C72.012 343.758 71.48 343.758 70.92 343.744C71.214 342.806 71.536 341.854 71.816 341.014C72.082 340.286 72.292 339.67 72.446 339.18C72.6 339.67 72.796 340.3 73.076 340.986C73.384 341.84 73.692 342.806 73.986 343.758H72.432ZM80.216 348C78.97 345.298 76.674 339.068 76.156 337.5H68.974C68.484 339.054 66.216 345.326 65.026 348H69.716C69.786 347.58 69.968 346.894 70.206 346.068C71.032 346.068 71.844 346.068 72.432 346.068C73.048 346.068 73.846 346.068 74.658 346.068C74.896 346.922 75.05 347.622 75.106 348H80.216ZM97.3502 348C97.2802 346.488 97.2662 344.962 97.2662 342.736C97.2662 340.44 97.2942 338.872 97.3222 337.5H92.1702C91.7502 338.494 91.0362 340.09 90.2802 341.756C90.0842 342.246 89.8462 342.862 89.6222 343.478C89.3842 342.862 89.1462 342.246 88.9362 341.756C88.1382 340.034 87.4802 338.508 87.0602 337.5H81.3622C81.4042 338.872 81.4182 340.44 81.4182 342.736C81.4182 344.962 81.4042 346.488 81.3342 348H85.0582C85.0022 346.502 84.9742 345.186 84.9602 343.464C84.9462 342.708 84.9042 341.98 84.8622 341.252L84.9322 341.238C85.1842 341.966 85.4782 342.722 85.7582 343.296L88.1242 348H90.2382L92.4502 343.548C92.7302 342.974 93.0102 342.218 93.2762 341.448L93.3462 341.462C93.3042 342.204 93.2622 342.974 93.2622 343.646C93.2482 345.284 93.2062 346.516 93.1502 348H97.3502ZM99.4898 337.5C99.5458 338.9 99.5458 340.524 99.5458 342.75C99.5458 344.99 99.5458 346.572 99.4898 348H110.802C110.788 347.636 110.788 347.076 110.788 346.628C110.788 346.11 110.788 345.508 110.802 345.158C108.828 345.172 105.804 345.186 103.928 345.186V343.716C106.07 343.716 108.954 343.744 110.648 343.772C110.648 343.198 110.648 341.994 110.662 341.462C108.926 341.504 106.084 341.504 103.928 341.504V340.09C105.79 340.09 108.646 340.104 110.802 340.118C110.774 339.796 110.774 339.222 110.774 338.774C110.774 338.34 110.788 337.808 110.802 337.5H99.4898ZM124.239 345.088C123.413 345.088 122.797 345.102 122.041 345.032C122.027 344.444 122.027 343.73 122.027 342.778C122.027 341.952 122.041 341.07 122.055 340.258C122.769 340.23 123.483 340.216 124.253 340.216C125.821 340.216 126.507 340.65 126.507 342.582C126.507 344.584 125.779 345.088 124.239 345.088ZM117.659 337.5C117.701 338.9 117.715 340.538 117.715 342.764C117.715 344.99 117.701 346.53 117.659 348H124.631C129.349 348 130.903 346.53 130.903 342.47C130.903 338.746 129.195 337.5 124.687 337.5H117.659ZM132.535 337.5C132.591 338.9 132.591 340.524 132.591 342.75C132.591 344.99 132.591 346.572 132.535 348H143.847C143.833 347.636 143.833 347.076 143.833 346.628C143.833 346.11 143.833 345.508 143.847 345.158C141.873 345.172 138.849 345.186 136.973 345.186V343.716C139.115 343.716 141.999 343.744 143.693 343.772C143.693 343.198 143.693 341.994 143.707 341.462C141.971 341.504 139.129 341.504 136.973 341.504V340.09C138.835 340.09 141.691 340.104 143.847 340.118C143.819 339.796 143.819 339.222 143.819 338.774C143.819 338.34 143.833 337.808 143.847 337.5H132.535ZM161.895 348C161.825 346.488 161.811 344.962 161.811 342.736C161.811 340.44 161.839 338.872 161.867 337.5H156.715C156.295 338.494 155.581 340.09 154.825 341.756C154.629 342.246 154.391 342.862 154.167 343.478C153.929 342.862 153.691 342.246 153.481 341.756C152.683 340.034 152.025 338.508 151.605 337.5H145.907C145.949 338.872 145.963 340.44 145.963 342.736C145.963 344.962 145.949 346.488 145.879 348H149.603C149.547 346.502 149.519 345.186 149.505 343.464C149.491 342.708 149.449 341.98 149.407 341.252L149.477 341.238C149.729 341.966 150.023 342.722 150.303 343.296L152.669 348H154.783L156.995 343.548C157.275 342.974 157.555 342.218 157.821 341.448L157.891 341.462C157.849 342.204 157.807 342.974 157.807 343.646C157.793 345.284 157.751 346.516 157.695 348H161.895ZM178.007 342.596C178.007 338.858 175.613 337.22 170.727 337.22C165.841 337.22 163.517 338.858 163.517 342.596C163.517 346.306 165.575 348.28 170.713 348.28C175.865 348.28 178.007 346.306 178.007 342.596ZM170.727 345.214C168.795 345.214 168.011 344.374 168.011 342.624C168.011 340.888 168.809 340.132 170.727 340.132C172.659 340.132 173.443 340.902 173.443 342.624C173.443 344.36 172.673 345.214 170.727 345.214ZM188.995 340.608C190.885 340.608 193.139 340.622 195.449 340.636C195.435 340.23 195.421 339.642 195.421 339.096C195.421 338.55 195.449 337.92 195.463 337.5H184.543C184.571 338.942 184.571 340.524 184.571 342.75C184.571 344.976 184.557 346.544 184.515 348H189.149C189.093 347.16 189.065 346.25 189.037 345.326C191.249 345.326 193.419 345.354 195.295 345.354C195.295 344.598 195.295 343.17 195.323 342.442C193.405 342.498 191.235 342.498 188.995 342.498V342.204V340.608ZM211.243 342.596C211.243 338.858 208.849 337.22 203.963 337.22C199.077 337.22 196.753 338.858 196.753 342.596C196.753 346.306 198.811 348.28 203.949 348.28C209.101 348.28 211.243 346.306 211.243 342.596ZM203.963 345.214C202.031 345.214 201.247 344.374 201.247 342.624C201.247 340.888 202.045 340.132 203.963 340.132C205.895 340.132 206.679 340.902 206.679 342.624C206.679 344.36 205.909 345.214 203.963 345.214ZM219.787 342.484C218.709 342.484 217.729 342.484 217.141 342.456C217.127 341.672 217.127 340.846 217.127 340.034C217.953 340.006 219.185 339.992 219.675 339.992C220.991 339.992 221.537 340.244 221.537 341.224C221.537 342.092 221.033 342.484 219.787 342.484ZM222.685 343.632C224.883 343.352 225.765 342.484 225.765 340.608C225.765 338.41 224.085 337.5 220.921 337.5H212.857C212.899 339.012 212.927 340.524 212.927 342.75C212.927 345.004 212.885 346.474 212.857 348H217.337C217.253 347.216 217.197 346.096 217.169 344.78H219.493C220.809 344.78 221.075 345.074 221.383 346.642C221.621 347.818 221.789 348 222.475 348H226.283C226.129 347.552 225.933 346.684 225.723 345.9C225.359 344.374 224.561 343.926 222.685 343.716V343.632ZM64.392 363.162C63.146 363.204 61.956 363.19 61.018 363.19C59.968 363.19 58.54 363.19 57.14 363.162C57.154 363.442 57.154 363.792 57.154 364.198C57.154 364.422 57.154 364.982 57.14 365.192C58.036 365.164 59.198 365.15 60.248 365.15C60.066 366.158 59.394 366.578 57.868 366.578C55.768 366.578 55.026 365.682 55.026 363.708C55.026 361.594 55.81 360.866 57.714 360.866C59.352 360.866 60.066 361.216 60.066 362.07C60.066 362.154 60.052 362.252 60.052 362.35C60.598 362.322 61.354 362.308 62.166 362.308C62.964 362.308 63.79 362.322 64.406 362.35C64.42 362.182 64.42 362.014 64.42 361.846C64.42 359.564 62.544 358.248 57.728 358.248C52.982 358.248 50.532 359.746 50.532 363.638C50.532 367.502 52.968 369.252 57.756 369.252C63.734 369.252 64.658 367.278 64.392 363.162ZM66.3081 358.5C66.3641 359.9 66.3641 361.524 66.3641 363.75C66.3641 365.99 66.3641 367.572 66.3081 369H77.6201C77.6061 368.636 77.6061 368.076 77.6061 367.628C77.6061 367.11 77.6061 366.508 77.6201 366.158C75.6461 366.172 72.6221 366.186 70.7461 366.186V364.716C72.8881 364.716 75.7721 364.744 77.4661 364.772C77.4661 364.198 77.4661 362.994 77.4801 362.462C75.7441 362.504 72.9021 362.504 70.7461 362.504V361.09C72.6081 361.09 75.4641 361.104 77.6201 361.118C77.5921 360.796 77.5921 360.222 77.5921 359.774C77.5921 359.34 77.6061 358.808 77.6201 358.5H66.3081ZM89.0745 358.5C89.1445 359.27 89.1865 360.922 89.1865 362.49C89.2005 363.106 89.2285 363.834 89.2985 364.604L89.2705 364.618C89.0185 364.072 88.6965 363.554 88.3745 363.078C87.1845 361.594 84.9725 359.144 84.6505 358.5H79.6385C79.6945 359.914 79.6805 361.524 79.6805 363.75C79.6805 365.99 79.6525 367.586 79.6385 369H83.5725C83.5445 368.44 83.5445 367.11 83.5165 365.178C83.4885 364.352 83.4605 363.554 83.3905 362.7C83.7125 363.302 84.1185 363.904 84.5385 364.506C85.8685 366.018 87.7725 368.09 88.3185 369H92.9385C92.8965 367.642 92.8965 366.06 92.8965 363.736C92.8965 361.51 92.9245 359.62 92.9525 358.5H89.0745ZM100.066 369.014C101.074 368.972 101.802 368.972 102.46 368.972C103.132 368.972 103.832 368.972 104.882 369C104.84 367.544 104.826 365.976 104.826 363.75C104.826 361.51 104.84 359.76 104.882 358.5C104.616 358.514 104.21 358.514 103.776 358.514C103.412 358.514 103.034 358.514 102.586 358.5C101.858 359.06 100.976 359.62 99.9536 359.984C99.9956 360.572 100.108 361.482 100.108 363.75C100.108 365.99 100.094 367.53 100.066 369.014ZM120.921 358.5C120.963 359.466 120.977 360.964 120.991 362.21C120.263 362.238 119.451 362.238 118.639 362.238C117.841 362.238 117.029 362.238 116.301 362.21C116.301 360.964 116.315 359.48 116.357 358.5H111.863C111.933 359.97 111.933 361.538 111.933 363.75C111.933 365.976 111.933 367.488 111.863 369H116.357C116.315 368.02 116.301 366.564 116.301 365.36C117.029 365.346 117.841 365.346 118.639 365.346C119.451 365.346 120.263 365.346 120.991 365.374C120.977 366.564 120.963 368.006 120.921 369H125.415C125.373 367.488 125.345 365.976 125.345 363.75C125.345 361.538 125.373 359.956 125.415 358.5H120.921ZM141.516 363.596C141.516 359.858 139.122 358.22 134.236 358.22C129.35 358.22 127.026 359.858 127.026 363.596C127.026 367.306 129.084 369.28 134.222 369.28C139.374 369.28 141.516 367.306 141.516 363.596ZM134.236 366.214C132.304 366.214 131.52 365.374 131.52 363.624C131.52 361.888 132.318 361.132 134.236 361.132C136.168 361.132 136.952 361.902 136.952 363.624C136.952 365.36 136.182 366.214 134.236 366.214ZM143.102 358.5C143.144 359.508 143.158 361.384 143.158 363.75C143.158 365.99 143.116 368.09 143.102 369H152.342C152.328 368.426 152.314 367.866 152.314 367.292C152.314 366.718 152.328 366.144 152.342 365.584C150.774 365.626 148.954 365.626 147.61 365.626C147.61 365.052 147.61 364.422 147.61 363.792C147.624 361.468 147.638 359.284 147.68 358.5H143.102ZM160.127 366.088C159.301 366.088 158.685 366.102 157.929 366.032C157.915 365.444 157.915 364.73 157.915 363.778C157.915 362.952 157.929 362.07 157.943 361.258C158.657 361.23 159.371 361.216 160.141 361.216C161.709 361.216 162.395 361.65 162.395 363.582C162.395 365.584 161.667 366.088 160.127 366.088ZM153.547 358.5C153.589 359.9 153.603 361.538 153.603 363.764C153.603 365.99 153.589 367.53 153.547 369H160.519C165.237 369 166.791 367.53 166.791 363.47C166.791 359.746 165.083 358.5 160.575 358.5H153.547ZM168.423 358.5C168.479 359.9 168.479 361.524 168.479 363.75C168.479 365.99 168.479 367.572 168.423 369H179.735C179.721 368.636 179.721 368.076 179.721 367.628C179.721 367.11 179.721 366.508 179.735 366.158C177.761 366.172 174.737 366.186 172.861 366.186V364.716C175.003 364.716 177.887 364.744 179.581 364.772C179.581 364.198 179.581 362.994 179.595 362.462C177.859 362.504 175.017 362.504 172.861 362.504V361.09C174.723 361.09 177.579 361.104 179.735 361.118C179.707 360.796 179.707 360.222 179.707 359.774C179.707 359.34 179.721 358.808 179.735 358.5H168.423ZM188.67 363.484C187.592 363.484 186.612 363.484 186.024 363.456C186.01 362.672 186.01 361.846 186.01 361.034C186.836 361.006 188.068 360.992 188.558 360.992C189.874 360.992 190.42 361.244 190.42 362.224C190.42 363.092 189.916 363.484 188.67 363.484ZM191.568 364.632C193.766 364.352 194.648 363.484 194.648 361.608C194.648 359.41 192.968 358.5 189.804 358.5H181.74C181.782 360.012 181.81 361.524 181.81 363.75C181.81 366.004 181.768 367.474 181.74 369H186.22C186.136 368.216 186.08 367.096 186.052 365.78H188.376C189.692 365.78 189.958 366.074 190.266 367.642C190.504 368.818 190.672 369 191.358 369H195.166C195.012 368.552 194.816 367.684 194.606 366.9C194.242 365.374 193.444 364.926 191.568 364.716V364.632ZM200.171 365.542C199.779 365.57 199.275 365.584 198.729 365.584C197.847 365.584 196.923 365.528 196.279 365.472C196.251 365.738 196.237 365.99 196.237 366.228C196.237 368.314 197.735 369.252 202.635 369.252C207.325 369.252 208.893 368.118 208.893 365.864C208.893 363.666 207.661 362.812 203.699 362.462C200.829 362.21 200.577 361.888 200.577 361.398C200.577 360.978 200.941 360.726 202.593 360.726C204.511 360.726 204.875 361.02 204.875 361.622C204.875 361.692 204.875 361.79 204.861 361.874C205.211 361.86 205.785 361.846 206.387 361.846C207.185 361.846 208.123 361.874 208.669 361.916C208.683 361.692 208.683 361.482 208.683 361.272C208.683 359.186 207.297 358.248 202.439 358.248C198.043 358.248 196.265 359.368 196.265 361.594C196.265 363.554 197.273 364.576 201.641 364.912C204.287 365.094 204.581 365.444 204.581 365.99C204.581 366.466 204.231 366.732 202.425 366.732C200.675 366.732 200.171 366.438 200.171 365.71V365.542Z" fill="white"/>
<path d="M51.036 447.5C51.078 448.508 51.092 450.384 51.092 452.75C51.092 454.99 51.05 457.09 51.036 458H60.276C60.262 457.426 60.248 456.866 60.248 456.292C60.248 455.718 60.262 455.144 60.276 454.584C58.708 454.626 56.888 454.626 55.544 454.626C55.544 454.052 55.544 453.422 55.544 452.792C55.558 450.468 55.572 448.284 55.614 447.5H51.036ZM67.893 453.758C67.473 453.758 66.941 453.758 66.381 453.744C66.675 452.806 66.997 451.854 67.277 451.014C67.543 450.286 67.753 449.67 67.907 449.18C68.061 449.67 68.257 450.3 68.537 450.986C68.845 451.84 69.153 452.806 69.447 453.758H67.893ZM75.677 458C74.431 455.298 72.135 449.068 71.617 447.5H64.435C63.945 449.054 61.677 455.326 60.487 458H65.177C65.247 457.58 65.429 456.894 65.667 456.068C66.493 456.068 67.305 456.068 67.893 456.068C68.509 456.068 69.307 456.068 70.119 456.068C70.357 456.922 70.511 457.622 70.567 458H75.677ZM85.1812 447.5C85.2092 449.096 85.2372 451.658 85.2372 453.128C85.2372 454.458 84.6072 455.046 82.9552 455.046C81.2892 455.046 80.5612 454.458 80.5612 453.128C80.5612 451.658 80.5892 449.096 80.6452 447.5H76.1232C76.1512 448.382 76.1792 449.25 76.1792 450.566C76.1792 451.35 76.1512 452.554 76.1512 453.394C76.1512 456.712 77.7332 458.252 82.8572 458.252C87.9952 458.252 89.5492 456.712 89.5492 453.394C89.5492 452.554 89.5212 451.35 89.5212 450.566C89.5212 449.25 89.5492 448.382 89.5912 447.5H85.1812ZM101.106 447.5C101.176 448.27 101.218 449.922 101.218 451.49C101.232 452.106 101.26 452.834 101.33 453.604L101.302 453.618C101.05 453.072 100.728 452.554 100.406 452.078C99.2158 450.594 97.0038 448.144 96.6818 447.5H91.6698C91.7258 448.914 91.7118 450.524 91.7118 452.75C91.7118 454.99 91.6838 456.586 91.6698 458H95.6038C95.5758 457.44 95.5758 456.11 95.5478 454.178C95.5198 453.352 95.4918 452.554 95.4218 451.7C95.7438 452.302 96.1498 452.904 96.5698 453.506C97.8998 455.018 99.8038 457.09 100.35 458H104.97C104.928 456.642 104.928 455.06 104.928 452.736C104.928 450.51 104.956 448.62 104.984 447.5H101.106ZM116.078 451.896C116.736 451.882 117.506 451.882 118.22 451.882C118.934 451.882 119.648 451.882 120.362 451.896C120.39 451.588 120.404 451.294 120.404 451.028C120.404 448.382 118.332 447.29 113.67 447.29C108.924 447.29 106.586 448.802 106.586 452.596C106.586 456.586 108.644 458.21 113.656 458.21C118.57 458.21 120.446 456.838 120.446 453.954C120.446 453.758 120.432 453.548 120.418 453.324C119.704 453.338 118.976 453.338 118.262 453.338C117.548 453.338 116.75 453.338 116.092 453.324V453.66C116.092 454.556 115.462 455.116 113.754 455.116C111.906 455.116 111.094 454.388 111.094 452.596C111.094 450.72 111.864 450.202 113.67 450.16C115.322 450.16 116.078 450.552 116.078 451.644V451.896ZM131.243 447.5C131.285 448.466 131.299 449.964 131.313 451.21C130.585 451.238 129.773 451.238 128.961 451.238C128.163 451.238 127.351 451.238 126.623 451.21C126.623 449.964 126.637 448.48 126.679 447.5H122.185C122.255 448.97 122.255 450.538 122.255 452.75C122.255 454.976 122.255 456.488 122.185 458H126.679C126.637 457.02 126.623 455.564 126.623 454.36C127.351 454.346 128.163 454.346 128.961 454.346C129.773 454.346 130.585 454.346 131.313 454.374C131.299 455.564 131.285 457.006 131.243 458H135.737C135.695 456.488 135.667 454.976 135.667 452.75C135.667 450.538 135.695 448.956 135.737 447.5H131.243ZM156.089 452.162C154.843 452.204 153.653 452.19 152.715 452.19C151.665 452.19 150.237 452.19 148.837 452.162C148.851 452.442 148.851 452.792 148.851 453.198C148.851 453.422 148.851 453.982 148.837 454.192C149.733 454.164 150.895 454.15 151.945 454.15C151.763 455.158 151.091 455.578 149.565 455.578C147.465 455.578 146.723 454.682 146.723 452.708C146.723 450.594 147.507 449.866 149.411 449.866C151.049 449.866 151.763 450.216 151.763 451.07C151.763 451.154 151.749 451.252 151.749 451.35C152.295 451.322 153.051 451.308 153.863 451.308C154.661 451.308 155.487 451.322 156.103 451.35C156.117 451.182 156.117 451.014 156.117 450.846C156.117 448.564 154.241 447.248 149.425 447.248C144.679 447.248 142.229 448.746 142.229 452.638C142.229 456.502 144.665 458.252 149.453 458.252C155.431 458.252 156.355 456.278 156.089 452.162ZM158.005 447.5C158.061 448.9 158.061 450.524 158.061 452.75C158.061 454.99 158.061 456.572 158.005 458H169.317C169.303 457.636 169.303 457.076 169.303 456.628C169.303 456.11 169.303 455.508 169.317 455.158C167.343 455.172 164.319 455.186 162.443 455.186V453.716C164.585 453.716 167.469 453.744 169.163 453.772C169.163 453.198 169.163 451.994 169.177 451.462C167.441 451.504 164.599 451.504 162.443 451.504V450.09C164.305 450.09 167.161 450.104 169.317 450.118C169.289 449.796 169.289 449.222 169.289 448.774C169.289 448.34 169.303 447.808 169.317 447.5H158.005ZM180.772 447.5C180.842 448.27 180.884 449.922 180.884 451.49C180.898 452.106 180.926 452.834 180.996 453.604L180.968 453.618C180.716 453.072 180.394 452.554 180.072 452.078C178.882 450.594 176.67 448.144 176.348 447.5H171.336C171.392 448.914 171.378 450.524 171.378 452.75C171.378 454.99 171.35 456.586 171.336 458H175.27C175.242 457.44 175.242 456.11 175.214 454.178C175.186 453.352 175.158 452.554 175.088 451.7C175.41 452.302 175.816 452.904 176.236 453.506C177.566 455.018 179.47 457.09 180.016 458H184.636C184.594 456.642 184.594 455.06 184.594 452.736C184.594 450.51 184.622 448.62 184.65 447.5H180.772ZM202.977 458C202.949 457.678 202.949 457.174 202.949 456.614C202.949 456.026 202.963 455.424 202.977 454.99C201.913 455.032 200.653 455.074 199.281 455.074C198.343 455.074 196.719 455.088 195.347 455.102C195.473 454.584 196.131 454.416 198.721 454.052C201.969 453.562 203.159 452.862 203.159 450.678C203.159 448.578 201.493 447.304 197.265 447.304C193.233 447.304 191.301 448.424 191.301 450.832C191.301 451.098 191.329 451.392 191.357 451.714C191.889 451.658 192.631 451.644 193.499 451.644C194.171 451.644 194.801 451.658 195.249 451.686C195.235 451.462 195.221 451.294 195.221 451.112C195.221 450.328 195.739 449.922 197.209 449.922C198.483 449.922 199.029 450.272 199.029 450.86C199.029 451.714 198.357 451.91 195.725 452.442C192.743 453.002 191.231 453.646 191.231 455.9C191.231 456.264 191.245 456.628 191.245 456.95C191.245 457.398 191.231 457.776 191.217 458H202.977ZM60.01 472.896C60.668 472.882 61.438 472.882 62.152 472.882C62.866 472.882 63.58 472.882 64.294 472.896C64.322 472.588 64.336 472.294 64.336 472.028C64.336 469.382 62.264 468.29 57.602 468.29C52.856 468.29 50.518 469.802 50.518 473.596C50.518 477.586 52.576 479.21 57.588 479.21C62.502 479.21 64.378 477.838 64.378 474.954C64.378 474.758 64.364 474.548 64.35 474.324C63.636 474.338 62.908 474.338 62.194 474.338C61.48 474.338 60.682 474.338 60.024 474.324V474.66C60.024 475.556 59.394 476.116 57.686 476.116C55.838 476.116 55.026 475.388 55.026 473.596C55.026 471.72 55.796 471.202 57.602 471.16C59.254 471.16 60.01 471.552 60.01 472.644V472.896ZM80.0887 473.596C80.0887 469.858 77.6947 468.22 72.8087 468.22C67.9227 468.22 65.5987 469.858 65.5987 473.596C65.5987 477.306 67.6567 479.28 72.7947 479.28C77.9467 479.28 80.0887 477.306 80.0887 473.596ZM72.8087 476.214C70.8767 476.214 70.0927 475.374 70.0927 473.624C70.0927 471.888 70.8907 471.132 72.8087 471.132C74.7407 471.132 75.5247 471.902 75.5247 473.624C75.5247 475.36 74.7547 476.214 72.8087 476.214ZM81.6747 468.5C81.7167 469.508 81.7307 471.384 81.7307 473.75C81.7307 475.99 81.6887 478.09 81.6747 479H90.9147C90.9007 478.426 90.8867 477.866 90.8867 477.292C90.8867 476.718 90.9007 476.144 90.9147 475.584C89.3467 475.626 87.5267 475.626 86.1827 475.626C86.1827 475.052 86.1827 474.422 86.1827 473.792C86.1967 471.468 86.2107 469.284 86.2527 468.5H81.6747ZM92.1337 468.5C92.1757 469.508 92.1897 471.384 92.1897 473.75C92.1897 475.99 92.1477 478.09 92.1337 479H101.374C101.36 478.426 101.346 477.866 101.346 477.292C101.346 476.718 101.36 476.144 101.374 475.584C99.8057 475.626 97.9857 475.626 96.6417 475.626C96.6417 475.052 96.6417 474.422 96.6417 473.792C96.6557 471.468 96.6697 469.284 96.7117 468.5H92.1337ZM102.621 468.5C102.677 469.9 102.677 471.524 102.677 473.75C102.677 475.99 102.677 477.572 102.621 479H113.933C113.919 478.636 113.919 478.076 113.919 477.628C113.919 477.11 113.919 476.508 113.933 476.158C111.959 476.172 108.935 476.186 107.059 476.186V474.716C109.201 474.716 112.085 474.744 113.779 474.772C113.779 474.198 113.779 472.994 113.793 472.462C112.057 472.504 109.215 472.504 107.059 472.504V471.09C108.921 471.09 111.777 471.104 113.933 471.118C113.905 470.796 113.905 470.222 113.905 469.774C113.905 469.34 113.919 468.808 113.933 468.5H102.621ZM124.883 472.896C125.541 472.882 126.311 472.882 127.025 472.882C127.739 472.882 128.453 472.882 129.167 472.896C129.195 472.588 129.209 472.294 129.209 472.028C129.209 469.382 127.137 468.29 122.475 468.29C117.729 468.29 115.391 469.802 115.391 473.596C115.391 477.586 117.449 479.21 122.461 479.21C127.375 479.21 129.251 477.838 129.251 474.954C129.251 474.758 129.237 474.548 129.223 474.324C128.509 474.338 127.781 474.338 127.067 474.338C126.353 474.338 125.555 474.338 124.897 474.324V474.66C124.897 475.556 124.267 476.116 122.559 476.116C120.711 476.116 119.899 475.388 119.899 473.596C119.899 471.72 120.669 471.202 122.475 471.16C124.127 471.16 124.883 471.552 124.883 472.644V472.896ZM130.122 468.5C130.136 468.934 130.136 469.578 130.136 470.166C130.136 470.74 130.136 471.44 130.122 471.902C131.312 471.874 132.474 471.874 133.552 471.86C133.538 475.192 133.51 478.272 133.468 479.014C134.126 478.972 135.106 478.972 135.82 478.972C136.534 478.972 137.542 478.972 138.158 479.014C138.116 478.258 138.102 475.178 138.102 471.86C139.18 471.874 140.342 471.874 141.518 471.902C141.49 471.44 141.49 470.74 141.49 470.166C141.49 469.578 141.49 468.92 141.518 468.5H130.122ZM147.255 479C147.227 477.418 147.213 475.948 147.213 473.736C147.213 471.496 147.213 470.04 147.255 468.5H142.775C142.817 470.054 142.817 471.524 142.817 473.75C142.817 475.976 142.817 477.432 142.775 479H147.255ZM163.35 473.596C163.35 469.858 160.956 468.22 156.07 468.22C151.184 468.22 148.86 469.858 148.86 473.596C148.86 477.306 150.918 479.28 156.056 479.28C161.208 479.28 163.35 477.306 163.35 473.596ZM156.07 476.214C154.138 476.214 153.354 475.374 153.354 473.624C153.354 471.888 154.152 471.132 156.07 471.132C158.002 471.132 158.786 471.902 158.786 473.624C158.786 475.36 158.016 476.214 156.07 476.214ZM174.414 468.5C174.484 469.27 174.526 470.922 174.526 472.49C174.54 473.106 174.568 473.834 174.638 474.604L174.61 474.618C174.358 474.072 174.036 473.554 173.714 473.078C172.524 471.594 170.312 469.144 169.99 468.5H164.978C165.034 469.914 165.02 471.524 165.02 473.75C165.02 475.99 164.992 477.586 164.978 479H168.912C168.884 478.44 168.884 477.11 168.856 475.178C168.828 474.352 168.8 473.554 168.73 472.7C169.052 473.302 169.458 473.904 169.878 474.506C171.208 476.018 173.112 478.09 173.658 479H178.278C178.236 477.642 178.236 476.06 178.236 473.736C178.236 471.51 178.264 469.62 178.292 468.5H174.414Z" fill="white"/>
<path d="M55.544 568C55.516 566.418 55.502 564.948 55.502 562.736C55.502 560.496 55.502 559.04 55.544 557.5H51.064C51.106 559.054 51.106 560.524 51.106 562.75C51.106 564.976 51.106 566.432 51.064 568H55.544ZM56.7995 557.5C56.8135 557.934 56.8135 558.578 56.8135 559.166C56.8135 559.74 56.8135 560.44 56.7995 560.902C57.9895 560.874 59.1515 560.874 60.2295 560.86C60.2155 564.192 60.1875 567.272 60.1455 568.014C60.8035 567.972 61.7835 567.972 62.4975 567.972C63.2115 567.972 64.2195 567.972 64.8355 568.014C64.7935 567.258 64.7795 564.178 64.7795 560.86C65.8575 560.874 67.0195 560.874 68.1955 560.902C68.1675 560.44 68.1675 559.74 68.1675 559.166C68.1675 558.578 68.1675 557.92 68.1955 557.5H56.7995ZM80.8852 565.088C80.0592 565.088 79.4432 565.102 78.6872 565.032C78.6732 564.444 78.6732 563.73 78.6732 562.778C78.6732 561.952 78.6872 561.07 78.7012 560.258C79.4152 560.23 80.1292 560.216 80.8992 560.216C82.4672 560.216 83.1532 560.65 83.1532 562.582C83.1532 564.584 82.4252 565.088 80.8852 565.088ZM74.3052 557.5C74.3472 558.9 74.3612 560.538 74.3612 562.764C74.3612 564.99 74.3472 566.53 74.3052 568H81.2772C85.9952 568 87.5492 566.53 87.5492 562.47C87.5492 558.746 85.8412 557.5 81.3332 557.5H74.3052ZM103.153 562.596C103.153 558.858 100.759 557.22 95.8732 557.22C90.9872 557.22 88.6632 558.858 88.6632 562.596C88.6632 566.306 90.7212 568.28 95.8592 568.28C101.011 568.28 103.153 566.306 103.153 562.596ZM95.8732 565.214C93.9412 565.214 93.1572 564.374 93.1572 562.624C93.1572 560.888 93.9552 560.132 95.8732 560.132C97.8052 560.132 98.5892 560.902 98.5892 562.624C98.5892 564.36 97.8192 565.214 95.8732 565.214ZM104.767 557.5C104.823 558.9 104.823 560.524 104.823 562.75C104.823 564.99 104.823 566.572 104.767 568H116.079C116.065 567.636 116.065 567.076 116.065 566.628C116.065 566.11 116.065 565.508 116.079 565.158C114.105 565.172 111.081 565.186 109.205 565.186V563.716C111.347 563.716 114.231 563.744 115.925 563.772C115.925 563.198 115.925 561.994 115.939 561.462C114.203 561.504 111.361 561.504 109.205 561.504V560.09C111.067 560.09 113.923 560.104 116.079 560.118C116.051 559.796 116.051 559.222 116.051 558.774C116.051 558.34 116.065 557.808 116.079 557.5H104.767ZM121.654 564.542C121.262 564.57 120.758 564.584 120.212 564.584C119.33 564.584 118.406 564.528 117.762 564.472C117.734 564.738 117.72 564.99 117.72 565.228C117.72 567.314 119.218 568.252 124.118 568.252C128.808 568.252 130.376 567.118 130.376 564.864C130.376 562.666 129.144 561.812 125.182 561.462C122.312 561.21 122.06 560.888 122.06 560.398C122.06 559.978 122.424 559.726 124.076 559.726C125.994 559.726 126.358 560.02 126.358 560.622C126.358 560.692 126.358 560.79 126.344 560.874C126.694 560.86 127.268 560.846 127.87 560.846C128.668 560.846 129.606 560.874 130.152 560.916C130.166 560.692 130.166 560.482 130.166 560.272C130.166 558.186 128.78 557.248 123.922 557.248C119.526 557.248 117.748 558.368 117.748 560.594C117.748 562.554 118.756 563.576 123.124 563.912C125.77 564.094 126.064 564.444 126.064 564.99C126.064 565.466 125.714 565.732 123.908 565.732C122.158 565.732 121.654 565.438 121.654 564.71V564.542ZM141.465 557.5C141.535 558.27 141.577 559.922 141.577 561.49C141.591 562.106 141.619 562.834 141.689 563.604L141.661 563.618C141.409 563.072 141.087 562.554 140.765 562.078C139.575 560.594 137.363 558.144 137.041 557.5H132.029C132.085 558.914 132.071 560.524 132.071 562.75C132.071 564.99 132.043 566.586 132.029 568H135.963C135.935 567.44 135.935 566.11 135.907 564.178C135.879 563.352 135.851 562.554 135.781 561.7C136.103 562.302 136.509 562.904 136.929 563.506C138.259 565.018 140.163 567.09 140.709 568H145.329C145.287 566.642 145.287 565.06 145.287 562.736C145.287 560.51 145.315 558.62 145.343 557.5H141.465ZM147.156 557.5C147.086 558.76 146.806 561.518 146.526 562.736C147.31 562.82 148.766 563.044 149.536 563.17C149.788 562.232 150.642 558.942 151.02 557.5C150.516 557.528 149.592 557.542 148.976 557.542C148.29 557.542 147.618 557.528 147.156 557.5ZM151.286 557.5C151.3 557.934 151.3 558.578 151.3 559.166C151.3 559.74 151.3 560.44 151.286 560.902C152.476 560.874 153.638 560.874 154.716 560.86C154.702 564.192 154.674 567.272 154.632 568.014C155.29 567.972 156.27 567.972 156.984 567.972C157.698 567.972 158.706 567.972 159.322 568.014C159.28 567.258 159.266 564.178 159.266 560.86C160.344 560.874 161.506 560.874 162.682 560.902C162.654 560.44 162.654 559.74 162.654 559.166C162.654 558.578 162.654 557.92 162.682 557.5H151.286ZM54.634 585.542C54.242 585.57 53.738 585.584 53.192 585.584C52.31 585.584 51.386 585.528 50.742 585.472C50.714 585.738 50.7 585.99 50.7 586.228C50.7 588.314 52.198 589.252 57.098 589.252C61.788 589.252 63.356 588.118 63.356 585.864C63.356 583.666 62.124 582.812 58.162 582.462C55.292 582.21 55.04 581.888 55.04 581.398C55.04 580.978 55.404 580.726 57.056 580.726C58.974 580.726 59.338 581.02 59.338 581.622C59.338 581.692 59.338 581.79 59.324 581.874C59.674 581.86 60.248 581.846 60.85 581.846C61.648 581.846 62.586 581.874 63.132 581.916C63.146 581.692 63.146 581.482 63.146 581.272C63.146 579.186 61.76 578.248 56.902 578.248C52.506 578.248 50.728 579.368 50.728 581.594C50.728 583.554 51.736 584.576 56.104 584.912C58.75 585.094 59.044 585.444 59.044 585.99C59.044 586.466 58.694 586.732 56.888 586.732C55.138 586.732 54.634 586.438 54.634 585.71V585.542ZM64.1276 578.5C64.1416 578.934 64.1416 579.578 64.1416 580.166C64.1416 580.74 64.1416 581.44 64.1276 581.902C65.3176 581.874 66.4796 581.874 67.5576 581.86C67.5436 585.192 67.5156 588.272 67.4736 589.014C68.1316 588.972 69.1116 588.972 69.8256 588.972C70.5396 588.972 71.5476 588.972 72.1636 589.014C72.1216 588.258 72.1076 585.178 72.1076 581.86C73.1856 581.874 74.3476 581.874 75.5236 581.902C75.4956 581.44 75.4956 580.74 75.4956 580.166C75.4956 579.578 75.4956 578.92 75.5236 578.5H64.1276ZM90.6708 583.596C90.6708 579.858 88.2768 578.22 83.3908 578.22C78.5048 578.22 76.1808 579.858 76.1808 583.596C76.1808 587.306 78.2388 589.28 83.3768 589.28C88.5288 589.28 90.6708 587.306 90.6708 583.596ZM83.3908 586.214C81.4588 586.214 80.6748 585.374 80.6748 583.624C80.6748 581.888 81.4728 581.132 83.3908 581.132C85.3228 581.132 86.1068 581.902 86.1068 583.624C86.1068 585.36 85.3368 586.214 83.3908 586.214ZM98.8647 584.114C97.9127 584.114 97.0587 584.1 96.5407 584.1C96.5267 583.176 96.5267 582.182 96.5267 581.132C97.2827 581.118 98.4447 581.104 98.9347 581.104C100.279 581.104 100.811 581.426 100.811 582.588C100.811 583.722 100.321 584.114 98.8647 584.114ZM92.2427 578.5C92.2847 579.97 92.3127 581.524 92.3127 583.75C92.3127 585.99 92.2847 587.474 92.2427 589H96.7087C96.6527 588.356 96.6107 587.586 96.5827 586.69C97.7447 586.718 98.6407 586.718 99.6347 586.718C103.513 586.718 104.983 585.472 104.983 582.476C104.983 579.312 103.177 578.5 100.041 578.5H92.2427ZM120.429 578.5C120.471 579.466 120.485 580.964 120.499 582.21C119.771 582.238 118.959 582.238 118.147 582.238C117.349 582.238 116.537 582.238 115.809 582.21C115.809 580.964 115.823 579.48 115.865 578.5H111.371C111.441 579.97 111.441 581.538 111.441 583.75C111.441 585.976 111.441 587.488 111.371 589H115.865C115.823 588.02 115.809 586.564 115.809 585.36C116.537 585.346 117.349 585.346 118.147 585.346C118.959 585.346 119.771 585.346 120.499 585.374C120.485 586.564 120.471 588.006 120.429 589H124.923C124.881 587.488 124.853 585.976 124.853 583.75C124.853 581.538 124.881 579.956 124.923 578.5H120.429ZM127.052 578.5C127.108 579.9 127.108 581.524 127.108 583.75C127.108 585.99 127.108 587.572 127.052 589H138.364C138.35 588.636 138.35 588.076 138.35 587.628C138.35 587.11 138.35 586.508 138.364 586.158C136.39 586.172 133.366 586.186 131.49 586.186V584.716C133.632 584.716 136.516 584.744 138.21 584.772C138.21 584.198 138.21 582.994 138.224 582.462C136.488 582.504 133.646 582.504 131.49 582.504V581.09C133.352 581.09 136.208 581.104 138.364 581.118C138.336 580.796 138.336 580.222 138.336 579.774C138.336 579.34 138.35 578.808 138.364 578.5H127.052ZM147.299 583.484C146.221 583.484 145.241 583.484 144.653 583.456C144.639 582.672 144.639 581.846 144.639 581.034C145.465 581.006 146.697 580.992 147.187 580.992C148.503 580.992 149.049 581.244 149.049 582.224C149.049 583.092 148.545 583.484 147.299 583.484ZM150.197 584.632C152.395 584.352 153.277 583.484 153.277 581.608C153.277 579.41 151.597 578.5 148.433 578.5H140.369C140.411 580.012 140.439 581.524 140.439 583.75C140.439 586.004 140.397 587.474 140.369 589H144.849C144.765 588.216 144.709 587.096 144.681 585.78H147.005C148.321 585.78 148.587 586.074 148.895 587.642C149.133 588.818 149.301 589 149.987 589H153.795C153.641 588.552 153.445 587.684 153.235 586.9C152.871 585.374 152.073 584.926 150.197 584.716V584.632ZM155.285 578.5C155.341 579.9 155.341 581.524 155.341 583.75C155.341 585.99 155.341 587.572 155.285 589H166.597C166.583 588.636 166.583 588.076 166.583 587.628C166.583 587.11 166.583 586.508 166.597 586.158C164.623 586.172 161.599 586.186 159.723 586.186V584.716C161.865 584.716 164.749 584.744 166.443 584.772C166.443 584.198 166.443 582.994 166.457 582.462C164.721 582.504 161.879 582.504 159.723 582.504V581.09C161.585 581.09 164.441 581.104 166.597 581.118C166.569 580.796 166.569 580.222 166.569 579.774C166.569 579.34 166.583 578.808 166.597 578.5H155.285ZM168.783 585.556C169.511 585.528 170.309 585.528 170.869 585.528C171.471 585.528 172.241 585.528 172.941 585.556C172.913 585.164 172.927 584.66 172.927 583.834C172.927 582.084 173.109 579.34 173.193 578.5C172.381 578.528 171.527 578.528 170.869 578.528C170.225 578.528 169.315 578.528 168.503 578.5C168.615 579.312 168.811 582.014 168.811 583.848C168.811 584.534 168.811 585.122 168.783 585.556ZM170.855 586.242C169.189 586.242 168.433 586.704 168.433 587.684C168.433 588.65 169.189 589.126 170.855 589.126C172.535 589.126 173.305 588.65 173.305 587.684C173.305 586.704 172.521 586.242 170.855 586.242Z" fill="white"/>
</svg>
