<svg width="1287" height="131" viewBox="0 0 1287 131" fill="none" xmlns="http://www.w3.org/2000/svg">
<path d="M1.23522 96.5C1.27722 97.508 1.29122 99.384 1.29122 101.75C1.29122 103.99 1.24922 106.09 1.23522 107H10.4752C10.4612 106.426 10.4472 105.866 10.4472 105.292C10.4472 104.718 10.4612 104.144 10.4752 103.584C8.90722 103.626 7.08722 103.626 5.74322 103.626C5.74322 103.052 5.74322 102.422 5.74322 101.792C5.75722 99.468 5.77122 97.284 5.81322 96.5H1.23522ZM18.0922 102.758C17.6722 102.758 17.1402 102.758 16.5802 102.744C16.8742 101.806 17.1962 100.854 17.4762 100.014C17.7422 99.286 17.9522 98.67 18.1062 98.18C18.2602 98.67 18.4562 99.3 18.7362 99.986C19.0442 100.84 19.3522 101.806 19.6462 102.758H18.0922ZM25.8762 107C24.6302 104.298 22.3342 98.068 21.8162 96.5H14.6342C14.1442 98.054 11.8762 104.326 10.6862 107H15.3762C15.4462 106.58 15.6282 105.894 15.8662 105.068C16.6922 105.068 17.5042 105.068 18.0922 105.068C18.7082 105.068 19.5062 105.068 20.3182 105.068C20.5562 105.922 20.7102 106.622 20.7662 107H25.8762ZM35.3805 96.5C35.4085 98.096 35.4365 100.658 35.4365 102.128C35.4365 103.458 34.8065 104.046 33.1545 104.046C31.4885 104.046 30.7605 103.458 30.7605 102.128C30.7605 100.658 30.7885 98.096 30.8445 96.5H26.3225C26.3505 97.382 26.3785 98.25 26.3785 99.566C26.3785 100.35 26.3505 101.554 26.3505 102.394C26.3505 105.712 27.9325 107.252 33.0565 107.252C38.1945 107.252 39.7485 105.712 39.7485 102.394C39.7485 101.554 39.7205 100.35 39.7205 99.566C39.7205 98.25 39.7485 97.382 39.7905 96.5H35.3805ZM51.305 96.5C51.375 97.27 51.417 98.922 51.417 100.49C51.431 101.106 51.459 101.834 51.529 102.604L51.501 102.618C51.249 102.072 50.927 101.554 50.605 101.078C49.415 99.594 47.203 97.144 46.881 96.5H41.869C41.925 97.914 41.911 99.524 41.911 101.75C41.911 103.99 41.883 105.586 41.869 107H45.803C45.775 106.44 45.775 105.11 45.747 103.178C45.719 102.352 45.691 101.554 45.621 100.7C45.943 101.302 46.349 101.904 46.769 102.506C48.099 104.018 50.003 106.09 50.549 107H55.169C55.127 105.642 55.127 104.06 55.127 101.736C55.127 99.51 55.155 97.62 55.183 96.5H51.305ZM66.2776 100.896C66.9356 100.882 67.7056 100.882 68.4196 100.882C69.1336 100.882 69.8476 100.882 70.5616 100.896C70.5896 100.588 70.6036 100.294 70.6036 100.028C70.6036 97.382 68.5316 96.29 63.8696 96.29C59.1236 96.29 56.7856 97.802 56.7856 101.596C56.7856 105.586 58.8436 107.21 63.8556 107.21C68.7696 107.21 70.6456 105.838 70.6456 102.954C70.6456 102.758 70.6316 102.548 70.6176 102.324C69.9036 102.338 69.1756 102.338 68.4616 102.338C67.7476 102.338 66.9496 102.338 66.2916 102.324V102.66C66.2916 103.556 65.6616 104.116 63.9536 104.116C62.1056 104.116 61.2936 103.388 61.2936 101.596C61.2936 99.72 62.0636 99.202 63.8696 99.16C65.5216 99.16 66.2776 99.552 66.2776 100.644V100.896ZM81.4423 96.5C81.4843 97.466 81.4983 98.964 81.5123 100.21C80.7843 100.238 79.9723 100.238 79.1603 100.238C78.3623 100.238 77.5503 100.238 76.8223 100.21C76.8223 98.964 76.8363 97.48 76.8783 96.5H72.3843C72.4543 97.97 72.4543 99.538 72.4543 101.75C72.4543 103.976 72.4543 105.488 72.3843 107H76.8783C76.8363 106.02 76.8223 104.564 76.8223 103.36C77.5503 103.346 78.3623 103.346 79.1603 103.346C79.9723 103.346 80.7843 103.346 81.5123 103.374C81.4983 104.564 81.4843 106.006 81.4423 107H85.9363C85.8943 105.488 85.8663 103.976 85.8663 101.75C85.8663 99.538 85.8943 97.956 85.9363 96.5H81.4423ZM106.288 101.162C105.042 101.204 103.852 101.19 102.914 101.19C101.864 101.19 100.436 101.19 99.0365 101.162C99.0505 101.442 99.0505 101.792 99.0505 102.198C99.0505 102.422 99.0505 102.982 99.0365 103.192C99.9325 103.164 101.094 103.15 102.144 103.15C101.962 104.158 101.29 104.578 99.7645 104.578C97.6645 104.578 96.9225 103.682 96.9225 101.708C96.9225 99.594 97.7065 98.866 99.6105 98.866C101.248 98.866 101.962 99.216 101.962 100.07C101.962 100.154 101.948 100.252 101.948 100.35C102.494 100.322 103.25 100.308 104.062 100.308C104.86 100.308 105.686 100.322 106.302 100.35C106.316 100.182 106.316 100.014 106.316 99.846C106.316 97.564 104.44 96.248 99.6245 96.248C94.8785 96.248 92.4285 97.746 92.4285 101.638C92.4285 105.502 94.8645 107.252 99.6525 107.252C105.63 107.252 106.554 105.278 106.288 101.162ZM108.205 96.5C108.261 97.9 108.261 99.524 108.261 101.75C108.261 103.99 108.261 105.572 108.205 107H119.517C119.503 106.636 119.503 106.076 119.503 105.628C119.503 105.11 119.503 104.508 119.517 104.158C117.543 104.172 114.519 104.186 112.643 104.186V102.716C114.785 102.716 117.669 102.744 119.363 102.772C119.363 102.198 119.363 100.994 119.377 100.462C117.641 100.504 114.799 100.504 112.643 100.504V99.09C114.505 99.09 117.361 99.104 119.517 99.118C119.489 98.796 119.489 98.222 119.489 97.774C119.489 97.34 119.503 96.808 119.517 96.5H108.205ZM130.971 96.5C131.041 97.27 131.083 98.922 131.083 100.49C131.097 101.106 131.125 101.834 131.195 102.604L131.167 102.618C130.915 102.072 130.593 101.554 130.271 101.078C129.081 99.594 126.869 97.144 126.547 96.5H121.535C121.591 97.914 121.577 99.524 121.577 101.75C121.577 103.99 121.549 105.586 121.535 107H125.469C125.441 106.44 125.441 105.11 125.413 103.178C125.385 102.352 125.357 101.554 125.287 100.7C125.609 101.302 126.015 101.904 126.435 102.506C127.765 104.018 129.669 106.09 130.215 107H134.835C134.793 105.642 134.793 104.06 134.793 101.736C134.793 99.51 134.821 97.62 134.849 96.5H130.971ZM141.962 107.014C142.97 106.972 143.698 106.972 144.356 106.972C145.028 106.972 145.728 106.972 146.778 107C146.736 105.544 146.722 103.976 146.722 101.75C146.722 99.51 146.736 97.76 146.778 96.5C146.512 96.514 146.106 96.514 145.672 96.514C145.308 96.514 144.93 96.514 144.482 96.5C143.754 97.06 142.872 97.62 141.85 97.984C141.892 98.572 142.004 99.482 142.004 101.75C142.004 103.99 141.99 105.53 141.962 107.014ZM19.3215 121.896C19.9795 121.882 20.7495 121.882 21.4635 121.882C22.1775 121.882 22.8915 121.882 23.6055 121.896C23.6335 121.588 23.6475 121.294 23.6475 121.028C23.6475 118.382 21.5755 117.29 16.9135 117.29C12.1675 117.29 9.82952 118.802 9.82952 122.596C9.82952 126.586 11.8875 128.21 16.8995 128.21C21.8135 128.21 23.6895 126.838 23.6895 123.954C23.6895 123.758 23.6755 123.548 23.6615 123.324C22.9475 123.338 22.2195 123.338 21.5055 123.338C20.7915 123.338 19.9935 123.338 19.3355 123.324V123.66C19.3355 124.556 18.7055 125.116 16.9975 125.116C15.1495 125.116 14.3375 124.388 14.3375 122.596C14.3375 120.72 15.1075 120.202 16.9135 120.16C18.5655 120.16 19.3215 120.552 19.3215 121.644V121.896ZM39.4003 122.596C39.4003 118.858 37.0063 117.22 32.1203 117.22C27.2343 117.22 24.9103 118.858 24.9103 122.596C24.9103 126.306 26.9683 128.28 32.1063 128.28C37.2583 128.28 39.4003 126.306 39.4003 122.596ZM32.1203 125.214C30.1883 125.214 29.4043 124.374 29.4043 122.624C29.4043 120.888 30.2023 120.132 32.1203 120.132C34.0523 120.132 34.8363 120.902 34.8363 122.624C34.8363 124.36 34.0663 125.214 32.1203 125.214ZM40.9862 117.5C41.0282 118.508 41.0422 120.384 41.0422 122.75C41.0422 124.99 41.0002 127.09 40.9862 128H50.2262C50.2122 127.426 50.1982 126.866 50.1982 126.292C50.1982 125.718 50.2122 125.144 50.2262 124.584C48.6582 124.626 46.8382 124.626 45.4942 124.626C45.4942 124.052 45.4942 123.422 45.4942 122.792C45.5082 120.468 45.5222 118.284 45.5642 117.5H40.9862ZM51.4452 117.5C51.4872 118.508 51.5012 120.384 51.5012 122.75C51.5012 124.99 51.4592 127.09 51.4452 128H60.6852C60.6712 127.426 60.6572 126.866 60.6572 126.292C60.6572 125.718 60.6712 125.144 60.6852 124.584C59.1172 124.626 57.2972 124.626 55.9532 124.626C55.9532 124.052 55.9532 123.422 55.9532 122.792C55.9672 120.468 55.9812 118.284 56.0232 117.5H51.4452ZM61.9322 117.5C61.9882 118.9 61.9882 120.524 61.9882 122.75C61.9882 124.99 61.9882 126.572 61.9322 128H73.2442C73.2302 127.636 73.2302 127.076 73.2302 126.628C73.2302 126.11 73.2302 125.508 73.2442 125.158C71.2702 125.172 68.2462 125.186 66.3702 125.186V123.716C68.5122 123.716 71.3962 123.744 73.0902 123.772C73.0902 123.198 73.0902 121.994 73.1042 121.462C71.3682 121.504 68.5262 121.504 66.3702 121.504V120.09C68.2322 120.09 71.0882 120.104 73.2442 120.118C73.2162 119.796 73.2162 119.222 73.2162 118.774C73.2162 118.34 73.2302 117.808 73.2442 117.5H61.9322ZM84.1946 121.896C84.8526 121.882 85.6226 121.882 86.3366 121.882C87.0506 121.882 87.7646 121.882 88.4786 121.896C88.5066 121.588 88.5206 121.294 88.5206 121.028C88.5206 118.382 86.4486 117.29 81.7866 117.29C77.0406 117.29 74.7026 118.802 74.7026 122.596C74.7026 126.586 76.7606 128.21 81.7726 128.21C86.6866 128.21 88.5626 126.838 88.5626 123.954C88.5626 123.758 88.5486 123.548 88.5346 123.324C87.8206 123.338 87.0926 123.338 86.3786 123.338C85.6646 123.338 84.8666 123.338 84.2086 123.324V123.66C84.2086 124.556 83.5786 125.116 81.8706 125.116C80.0226 125.116 79.2106 124.388 79.2106 122.596C79.2106 120.72 79.9806 120.202 81.7866 120.16C83.4386 120.16 84.1946 120.552 84.1946 121.644V121.896ZM89.4333 117.5C89.4473 117.934 89.4473 118.578 89.4473 119.166C89.4473 119.74 89.4473 120.44 89.4333 120.902C90.6233 120.874 91.7853 120.874 92.8633 120.86C92.8493 124.192 92.8213 127.272 92.7793 128.014C93.4373 127.972 94.4173 127.972 95.1313 127.972C95.8453 127.972 96.8533 127.972 97.4693 128.014C97.4273 127.258 97.4133 124.178 97.4133 120.86C98.4913 120.874 99.6533 120.874 100.829 120.902C100.801 120.44 100.801 119.74 100.801 119.166C100.801 118.578 100.801 117.92 100.829 117.5H89.4333ZM106.566 128C106.538 126.418 106.524 124.948 106.524 122.736C106.524 120.496 106.524 119.04 106.566 117.5H102.086C102.128 119.054 102.128 120.524 102.128 122.75C102.128 124.976 102.128 126.432 102.086 128H106.566ZM122.662 122.596C122.662 118.858 120.268 117.22 115.382 117.22C110.496 117.22 108.172 118.858 108.172 122.596C108.172 126.306 110.23 128.28 115.368 128.28C120.52 128.28 122.662 126.306 122.662 122.596ZM115.382 125.214C113.45 125.214 112.666 124.374 112.666 122.624C112.666 120.888 113.464 120.132 115.382 120.132C117.314 120.132 118.098 120.902 118.098 122.624C118.098 124.36 117.328 125.214 115.382 125.214ZM133.726 117.5C133.796 118.27 133.838 119.922 133.838 121.49C133.852 122.106 133.88 122.834 133.95 123.604L133.922 123.618C133.67 123.072 133.348 122.554 133.026 122.078C131.836 120.594 129.624 118.144 129.302 117.5H124.29C124.346 118.914 124.332 120.524 124.332 122.75C124.332 124.99 124.304 126.586 124.29 128H128.224C128.196 127.44 128.196 126.11 128.168 124.178C128.14 123.352 128.112 122.554 128.042 121.7C128.364 122.302 128.77 122.904 129.19 123.506C130.52 125.018 132.424 127.09 132.97 128H137.59C137.548 126.642 137.548 125.06 137.548 122.736C137.548 120.51 137.576 118.62 137.604 117.5H133.726Z" fill="white"/>
<path d="M235.446 102.758C235.026 102.758 234.494 102.758 233.934 102.744C234.228 101.806 234.55 100.854 234.83 100.014C235.096 99.286 235.306 98.67 235.46 98.18C235.614 98.67 235.81 99.3 236.09 99.986C236.398 100.84 236.706 101.806 237 102.758H235.446ZM243.23 107C241.984 104.298 239.688 98.068 239.17 96.5H231.988C231.498 98.054 229.23 104.326 228.04 107H232.73C232.8 106.58 232.982 105.894 233.22 105.068C234.046 105.068 234.858 105.068 235.446 105.068C236.062 105.068 236.86 105.068 237.672 105.068C237.91 105.922 238.064 106.622 238.12 107H243.23ZM244.182 96.5C244.224 97.508 244.238 99.384 244.238 101.75C244.238 103.99 244.196 106.09 244.182 107H253.422C253.408 106.426 253.394 105.866 253.394 105.292C253.394 104.718 253.408 104.144 253.422 103.584C251.854 103.626 250.034 103.626 248.69 103.626C248.69 103.052 248.69 102.422 248.69 101.792C248.704 99.468 248.718 97.284 248.76 96.5H244.182ZM261.249 102.114C260.297 102.114 259.443 102.1 258.925 102.1C258.911 101.176 258.911 100.182 258.911 99.132C259.667 99.118 260.829 99.104 261.319 99.104C262.663 99.104 263.195 99.426 263.195 100.588C263.195 101.722 262.705 102.114 261.249 102.114ZM254.627 96.5C254.669 97.97 254.697 99.524 254.697 101.75C254.697 103.99 254.669 105.474 254.627 107H259.093C259.037 106.356 258.995 105.586 258.967 104.69C260.129 104.718 261.025 104.718 262.019 104.718C265.897 104.718 267.367 103.472 267.367 100.476C267.367 97.312 265.561 96.5 262.425 96.5H254.627ZM277.864 96.5C277.906 97.466 277.92 98.964 277.934 100.21C277.206 100.238 276.394 100.238 275.582 100.238C274.784 100.238 273.972 100.238 273.244 100.21C273.244 98.964 273.258 97.48 273.3 96.5H268.806C268.876 97.97 268.876 99.538 268.876 101.75C268.876 103.976 268.876 105.488 268.806 107H273.3C273.258 106.02 273.244 104.564 273.244 103.36C273.972 103.346 274.784 103.346 275.582 103.346C276.394 103.346 277.206 103.346 277.934 103.374C277.92 104.564 277.906 106.006 277.864 107H282.358C282.316 105.488 282.288 103.976 282.288 101.75C282.288 99.538 282.316 97.956 282.358 96.5H277.864ZM290.858 102.758C290.438 102.758 289.906 102.758 289.346 102.744C289.64 101.806 289.962 100.854 290.242 100.014C290.508 99.286 290.718 98.67 290.872 98.18C291.026 98.67 291.222 99.3 291.502 99.986C291.81 100.84 292.118 101.806 292.412 102.758H290.858ZM298.642 107C297.396 104.298 295.1 98.068 294.582 96.5H287.4C286.91 98.054 284.642 104.326 283.452 107H288.142C288.212 106.58 288.394 105.894 288.632 105.068C289.458 105.068 290.27 105.068 290.858 105.068C291.474 105.068 292.272 105.068 293.084 105.068C293.322 105.922 293.476 106.622 293.532 107H298.642ZM313.573 100.896C314.231 100.882 315.001 100.882 315.715 100.882C316.429 100.882 317.143 100.882 317.857 100.896C317.885 100.588 317.899 100.294 317.899 100.028C317.899 97.382 315.827 96.29 311.165 96.29C306.419 96.29 304.081 97.802 304.081 101.596C304.081 105.586 306.139 107.21 311.151 107.21C316.065 107.21 317.941 105.838 317.941 102.954C317.941 102.758 317.927 102.548 317.913 102.324C317.199 102.338 316.471 102.338 315.757 102.338C315.043 102.338 314.245 102.338 313.587 102.324V102.66C313.587 103.556 312.957 104.116 311.249 104.116C309.401 104.116 308.589 103.388 308.589 101.596C308.589 99.72 309.359 99.202 311.165 99.16C312.817 99.16 313.573 99.552 313.573 100.644V100.896ZM325.913 102.758C325.493 102.758 324.961 102.758 324.401 102.744C324.695 101.806 325.017 100.854 325.297 100.014C325.563 99.286 325.773 98.67 325.927 98.18C326.081 98.67 326.277 99.3 326.557 99.986C326.865 100.84 327.173 101.806 327.467 102.758H325.913ZM333.697 107C332.451 104.298 330.155 98.068 329.637 96.5H322.455C321.965 98.054 319.697 104.326 318.507 107H323.197C323.267 106.58 323.449 105.894 323.687 105.068C324.513 105.068 325.325 105.068 325.913 105.068C326.529 105.068 327.327 105.068 328.139 105.068C328.377 105.922 328.531 106.622 328.587 107H333.697ZM334.649 96.5C334.691 97.508 334.705 99.384 334.705 101.75C334.705 103.99 334.663 106.09 334.649 107H343.889C343.875 106.426 343.861 105.866 343.861 105.292C343.861 104.718 343.875 104.144 343.889 103.584C342.321 103.626 340.501 103.626 339.157 103.626C339.157 103.052 339.157 102.422 339.157 101.792C339.171 99.468 339.185 97.284 339.227 96.5H334.649ZM345.108 96.5C345.15 97.508 345.164 99.384 345.164 101.75C345.164 103.99 345.122 106.09 345.108 107H354.348C354.334 106.426 354.32 105.866 354.32 105.292C354.32 104.718 354.334 104.144 354.348 103.584C352.78 103.626 350.96 103.626 349.616 103.626C349.616 103.052 349.616 102.422 349.616 101.792C349.63 99.468 349.644 97.284 349.686 96.5H345.108ZM359.124 103.542C358.732 103.57 358.228 103.584 357.682 103.584C356.8 103.584 355.876 103.528 355.232 103.472C355.204 103.738 355.19 103.99 355.19 104.228C355.19 106.314 356.688 107.252 361.588 107.252C366.278 107.252 367.846 106.118 367.846 103.864C367.846 101.666 366.614 100.812 362.652 100.462C359.782 100.21 359.53 99.888 359.53 99.398C359.53 98.978 359.894 98.726 361.546 98.726C363.464 98.726 363.828 99.02 363.828 99.622C363.828 99.692 363.828 99.79 363.814 99.874C364.164 99.86 364.738 99.846 365.34 99.846C366.138 99.846 367.076 99.874 367.622 99.916C367.636 99.692 367.636 99.482 367.636 99.272C367.636 97.186 366.25 96.248 361.392 96.248C356.996 96.248 355.218 97.368 355.218 99.594C355.218 101.554 356.226 102.576 360.594 102.912C363.24 103.094 363.534 103.444 363.534 103.99C363.534 104.466 363.184 104.732 361.378 104.732C359.628 104.732 359.124 104.438 359.124 103.71V103.542ZM373.134 109.044C373.764 109.03 374.576 109.03 375.22 109.03C375.626 109.03 376.634 109.03 377.278 109.044C377.698 106.706 379.798 97.438 380.26 96.038C379.616 96.066 378.678 96.066 378.16 96.066C377.558 96.066 376.816 96.066 376.13 96.038C375.864 97.662 373.862 106.664 373.134 109.044ZM240.453 117.5C240.313 118.522 239.823 121.14 239.431 123.128C239.277 123.814 239.179 124.402 239.095 124.906H239.011C238.913 124.416 238.801 123.814 238.619 123.128C238.157 121.14 237.723 118.438 237.597 117.5C237.079 117.514 235.973 117.528 235.301 117.528C234.573 117.528 233.229 117.514 232.669 117.5C232.557 118.522 231.997 121.14 231.605 123.072C231.465 123.716 231.325 124.332 231.213 124.85H231.129C231.017 124.346 230.905 123.73 230.779 123.1C230.373 121.168 229.855 118.242 229.771 117.5H225.025C225.921 120.006 227.489 126.166 227.993 128C228.427 127.986 229.253 127.972 230.653 127.972C231.521 127.972 232.501 128 232.977 128C233.201 127.048 233.649 125.2 234.041 123.548C234.209 122.792 234.363 121.882 234.489 121.084H234.601C234.713 121.868 234.853 122.736 234.993 123.506C235.357 125.284 235.777 127.146 235.959 128C236.351 127.986 237.401 127.972 238.773 127.972C239.809 127.972 240.719 127.986 241.363 128C241.769 126.418 243.477 119.992 244.303 117.5H240.453ZM245.351 117.5C245.393 118.508 245.407 120.384 245.407 122.75C245.407 124.99 245.365 127.09 245.351 128H254.591C254.577 127.426 254.563 126.866 254.563 126.292C254.563 125.718 254.577 125.144 254.591 124.584C253.023 124.626 251.203 124.626 249.859 124.626C249.859 124.052 249.859 123.422 249.859 122.792C249.873 120.468 249.887 118.284 249.929 117.5H245.351ZM274.061 122.162C272.815 122.204 271.625 122.19 270.687 122.19C269.637 122.19 268.209 122.19 266.809 122.162C266.823 122.442 266.823 122.792 266.823 123.198C266.823 123.422 266.823 123.982 266.809 124.192C267.705 124.164 268.867 124.15 269.917 124.15C269.735 125.158 269.063 125.578 267.537 125.578C265.437 125.578 264.695 124.682 264.695 122.708C264.695 120.594 265.479 119.866 267.383 119.866C269.021 119.866 269.735 120.216 269.735 121.07C269.735 121.154 269.721 121.252 269.721 121.35C270.267 121.322 271.023 121.308 271.835 121.308C272.633 121.308 273.459 121.322 274.075 121.35C274.089 121.182 274.089 121.014 274.089 120.846C274.089 118.564 272.213 117.248 267.397 117.248C262.651 117.248 260.201 118.746 260.201 122.638C260.201 126.502 262.637 128.252 267.425 128.252C273.403 128.252 274.327 126.278 274.061 122.162ZM280.457 128C280.429 126.418 280.415 124.948 280.415 122.736C280.415 120.496 280.415 119.04 280.457 117.5H275.977C276.019 119.054 276.019 120.524 276.019 122.75C276.019 124.976 276.019 126.432 275.977 128H280.457ZM291.233 117.5C291.023 118.466 290.071 121.518 289.343 123.814C289.147 124.388 288.979 124.906 288.839 125.368C288.699 124.906 288.545 124.374 288.335 123.814C287.565 121.504 286.641 118.452 286.473 117.5H281.531C282.679 120.104 284.863 126.32 285.381 128C286.053 127.986 287.145 127.972 288.797 127.972C290.099 127.972 291.261 127.986 292.115 128C292.633 126.306 294.747 120.146 295.853 117.5H291.233ZM296.936 117.5C296.992 118.9 296.992 120.524 296.992 122.75C296.992 124.99 296.992 126.572 296.936 128H308.248C308.234 127.636 308.234 127.076 308.234 126.628C308.234 126.11 308.234 125.508 308.248 125.158C306.274 125.172 303.25 125.186 301.374 125.186V123.716C303.516 123.716 306.4 123.744 308.094 123.772C308.094 123.198 308.094 121.994 308.108 121.462C306.372 121.504 303.53 121.504 301.374 121.504V120.09C303.236 120.09 306.092 120.104 308.248 120.118C308.22 119.796 308.22 119.222 308.22 118.774C308.22 118.34 308.234 117.808 308.248 117.5H296.936ZM316.622 123.758C316.202 123.758 315.67 123.758 315.11 123.744C315.404 122.806 315.726 121.854 316.006 121.014C316.272 120.286 316.482 119.67 316.636 119.18C316.79 119.67 316.986 120.3 317.266 120.986C317.574 121.84 317.882 122.806 318.176 123.758H316.622ZM324.406 128C323.16 125.298 320.864 119.068 320.346 117.5H313.164C312.674 119.054 310.406 125.326 309.216 128H313.906C313.976 127.58 314.158 126.894 314.396 126.068C315.222 126.068 316.034 126.068 316.622 126.068C317.238 126.068 318.036 126.068 318.848 126.068C319.086 126.922 319.24 127.622 319.296 128H324.406ZM339.054 117.5C338.914 118.522 338.424 121.14 338.032 123.128C337.878 123.814 337.78 124.402 337.696 124.906H337.612C337.514 124.416 337.402 123.814 337.22 123.128C336.758 121.14 336.324 118.438 336.198 117.5C335.68 117.514 334.574 117.528 333.902 117.528C333.174 117.528 331.83 117.514 331.27 117.5C331.158 118.522 330.598 121.14 330.206 123.072C330.066 123.716 329.926 124.332 329.814 124.85H329.73C329.618 124.346 329.506 123.73 329.38 123.1C328.974 121.168 328.456 118.242 328.372 117.5H323.626C324.522 120.006 326.09 126.166 326.594 128C327.028 127.986 327.854 127.972 329.254 127.972C330.122 127.972 331.102 128 331.578 128C331.802 127.048 332.25 125.2 332.642 123.548C332.81 122.792 332.964 121.882 333.09 121.084H333.202C333.314 121.868 333.454 122.736 333.594 123.506C333.958 125.284 334.378 127.146 334.56 128C334.952 127.986 336.002 127.972 337.374 127.972C338.41 127.972 339.32 127.986 339.964 128C340.37 126.418 342.078 119.992 342.904 117.5H339.054ZM349.503 123.758C349.083 123.758 348.551 123.758 347.991 123.744C348.285 122.806 348.607 121.854 348.887 121.014C349.153 120.286 349.363 119.67 349.517 119.18C349.671 119.67 349.867 120.3 350.147 120.986C350.455 121.84 350.763 122.806 351.057 123.758H349.503ZM357.287 128C356.041 125.298 353.745 119.068 353.227 117.5H346.045C345.555 119.054 343.287 125.326 342.097 128H346.787C346.857 127.58 347.039 126.894 347.277 126.068C348.103 126.068 348.915 126.068 349.503 126.068C350.119 126.068 350.917 126.068 351.729 126.068C351.967 126.922 352.121 127.622 352.177 128H357.287ZM365.286 117.5C365.076 118.06 364.32 119.46 363.816 120.622C363.48 121.322 363.27 121.938 363.116 122.442H362.976C362.794 121.924 362.556 121.28 362.248 120.552C361.772 119.418 361.114 118.06 360.848 117.5H355.85C357.082 119.166 359.546 123.296 360.316 124.836C360.316 126.39 360.288 127.58 360.246 128.014C360.918 127.986 361.996 127.986 362.794 127.986C363.62 127.986 364.67 127.986 365.356 128.014C365.342 127.594 365.314 126.418 365.3 124.892C366.084 123.408 368.534 119.236 369.766 117.5H365.286ZM373.692 124.542C373.3 124.57 372.796 124.584 372.25 124.584C371.368 124.584 370.444 124.528 369.8 124.472C369.772 124.738 369.758 124.99 369.758 125.228C369.758 127.314 371.256 128.252 376.156 128.252C380.846 128.252 382.414 127.118 382.414 124.864C382.414 122.666 381.182 121.812 377.22 121.462C374.35 121.21 374.098 120.888 374.098 120.398C374.098 119.978 374.462 119.726 376.114 119.726C378.032 119.726 378.396 120.02 378.396 120.622C378.396 120.692 378.396 120.79 378.382 120.874C378.732 120.86 379.306 120.846 379.908 120.846C380.706 120.846 381.644 120.874 382.19 120.916C382.204 120.692 382.204 120.482 382.204 120.272C382.204 118.186 380.818 117.248 375.96 117.248C371.564 117.248 369.786 118.368 369.786 120.594C369.786 122.554 370.794 123.576 375.162 123.912C377.808 124.094 378.102 124.444 378.102 124.99C378.102 125.466 377.752 125.732 375.946 125.732C374.196 125.732 373.692 125.438 373.692 124.71V124.542Z" fill="white"/>
<path d="M494.707 96.5C494.567 97.522 494.077 100.14 493.685 102.128C493.531 102.814 493.433 103.402 493.349 103.906H493.265C493.167 103.416 493.055 102.814 492.873 102.128C492.411 100.14 491.977 97.438 491.851 96.5C491.333 96.514 490.227 96.528 489.555 96.528C488.827 96.528 487.483 96.514 486.923 96.5C486.811 97.522 486.251 100.14 485.859 102.072C485.719 102.716 485.579 103.332 485.467 103.85H485.383C485.271 103.346 485.159 102.73 485.033 102.1C484.627 100.168 484.109 97.242 484.025 96.5H479.279C480.175 99.006 481.743 105.166 482.247 107C482.681 106.986 483.507 106.972 484.907 106.972C485.775 106.972 486.755 107 487.231 107C487.455 106.048 487.903 104.2 488.295 102.548C488.463 101.792 488.617 100.882 488.743 100.084H488.855C488.967 100.868 489.107 101.736 489.247 102.506C489.611 104.284 490.031 106.146 490.213 107C490.605 106.986 491.655 106.972 493.027 106.972C494.063 106.972 494.973 106.986 495.617 107C496.023 105.418 497.731 98.992 498.557 96.5H494.707ZM508.691 96.5C508.733 97.466 508.747 98.964 508.761 100.21C508.033 100.238 507.221 100.238 506.409 100.238C505.611 100.238 504.799 100.238 504.071 100.21C504.071 98.964 504.085 97.48 504.127 96.5H499.633C499.703 97.97 499.703 99.538 499.703 101.75C499.703 103.976 499.703 105.488 499.633 107H504.127C504.085 106.02 504.071 104.564 504.071 103.36C504.799 103.346 505.611 103.346 506.409 103.346C507.221 103.346 508.033 103.346 508.761 103.374C508.747 104.564 508.733 106.006 508.691 107H513.185C513.143 105.488 513.115 103.976 513.115 101.75C513.115 99.538 513.143 97.956 513.185 96.5H508.691ZM519.795 107C519.767 105.418 519.753 103.948 519.753 101.736C519.753 99.496 519.753 98.04 519.795 96.5H515.315C515.357 98.054 515.357 99.524 515.357 101.75C515.357 103.976 515.357 105.432 515.315 107H519.795ZM521.05 96.5C521.064 96.934 521.064 97.578 521.064 98.166C521.064 98.74 521.064 99.44 521.05 99.902C522.24 99.874 523.402 99.874 524.48 99.86C524.466 103.192 524.438 106.272 524.396 107.014C525.054 106.972 526.034 106.972 526.748 106.972C527.462 106.972 528.47 106.972 529.086 107.014C529.044 106.258 529.03 103.178 529.03 99.86C530.108 99.874 531.27 99.874 532.446 99.902C532.418 99.44 532.418 98.74 532.418 98.166C532.418 97.578 532.418 96.92 532.446 96.5H521.05ZM533.704 96.5C533.76 97.9 533.76 99.524 533.76 101.75C533.76 103.99 533.76 105.572 533.704 107H545.016C545.002 106.636 545.002 106.076 545.002 105.628C545.002 105.11 545.002 104.508 545.016 104.158C543.042 104.172 540.018 104.186 538.142 104.186V102.716C540.284 102.716 543.168 102.744 544.862 102.772C544.862 102.198 544.862 100.994 544.876 100.462C543.14 100.504 540.298 100.504 538.142 100.504V99.09C540.004 99.09 542.86 99.104 545.016 99.118C544.988 98.796 544.988 98.222 544.988 97.774C544.988 97.34 545.002 96.808 545.016 96.5H533.704ZM546.992 96.5C547.034 97.508 547.048 99.384 547.048 101.75C547.048 103.99 547.006 106.09 546.992 107H556.232C556.218 106.426 556.204 105.866 556.204 105.292C556.204 104.718 556.218 104.144 556.232 103.584C554.664 103.626 552.844 103.626 551.5 103.626C551.5 103.052 551.5 102.422 551.5 101.792C551.514 99.468 551.528 97.284 551.57 96.5H546.992ZM561.959 107C561.931 105.418 561.917 103.948 561.917 101.736C561.917 99.496 561.917 98.04 561.959 96.5H557.479C557.521 98.054 557.521 99.524 557.521 101.75C557.521 103.976 557.521 105.432 557.479 107H561.959ZM567.653 103.542C567.261 103.57 566.757 103.584 566.211 103.584C565.329 103.584 564.405 103.528 563.761 103.472C563.733 103.738 563.719 103.99 563.719 104.228C563.719 106.314 565.217 107.252 570.117 107.252C574.807 107.252 576.375 106.118 576.375 103.864C576.375 101.666 575.143 100.812 571.181 100.462C568.311 100.21 568.059 99.888 568.059 99.398C568.059 98.978 568.423 98.726 570.075 98.726C571.993 98.726 572.357 99.02 572.357 99.622C572.357 99.692 572.357 99.79 572.343 99.874C572.693 99.86 573.267 99.846 573.869 99.846C574.667 99.846 575.605 99.874 576.151 99.916C576.165 99.692 576.165 99.482 576.165 99.272C576.165 97.186 574.779 96.248 569.921 96.248C565.525 96.248 563.747 97.368 563.747 99.594C563.747 101.554 564.755 102.576 569.123 102.912C571.769 103.094 572.063 103.444 572.063 103.99C572.063 104.466 571.713 104.732 569.907 104.732C568.157 104.732 567.653 104.438 567.653 103.71V103.542ZM577.146 96.5C577.16 96.934 577.16 97.578 577.16 98.166C577.16 98.74 577.16 99.44 577.146 99.902C578.336 99.874 579.498 99.874 580.576 99.86C580.562 103.192 580.534 106.272 580.492 107.014C581.15 106.972 582.13 106.972 582.844 106.972C583.558 106.972 584.566 106.972 585.182 107.014C585.14 106.258 585.126 103.178 585.126 99.86C586.204 99.874 587.366 99.874 588.542 99.902C588.514 99.44 588.514 98.74 588.514 98.166C588.514 97.578 588.514 96.92 588.542 96.5H577.146ZM473.465 128C473.395 126.488 473.381 124.962 473.381 122.736C473.381 120.44 473.409 118.872 473.437 117.5H468.285C467.865 118.494 467.151 120.09 466.395 121.756C466.199 122.246 465.961 122.862 465.737 123.478C465.499 122.862 465.261 122.246 465.051 121.756C464.253 120.034 463.595 118.508 463.175 117.5H457.477C457.519 118.872 457.533 120.44 457.533 122.736C457.533 124.962 457.519 126.488 457.449 128H461.173C461.117 126.502 461.089 125.186 461.075 123.464C461.061 122.708 461.019 121.98 460.977 121.252L461.047 121.238C461.299 121.966 461.593 122.722 461.873 123.296L464.239 128H466.353L468.565 123.548C468.845 122.974 469.125 122.218 469.391 121.448L469.461 121.462C469.419 122.204 469.377 122.974 469.377 123.646C469.363 125.284 469.321 126.516 469.265 128H473.465ZM481.975 123.758C481.555 123.758 481.023 123.758 480.463 123.744C480.757 122.806 481.079 121.854 481.359 121.014C481.625 120.286 481.835 119.67 481.989 119.18C482.143 119.67 482.339 120.3 482.619 120.986C482.927 121.84 483.235 122.806 483.529 123.758H481.975ZM489.759 128C488.513 125.298 486.217 119.068 485.699 117.5H478.517C478.027 119.054 475.759 125.326 474.569 128H479.259C479.329 127.58 479.511 126.894 479.749 126.068C480.575 126.068 481.387 126.068 481.975 126.068C482.591 126.068 483.389 126.068 484.201 126.068C484.439 126.922 484.593 127.622 484.649 128H489.759ZM497.67 122.484C496.592 122.484 495.612 122.484 495.024 122.456C495.01 121.672 495.01 120.846 495.01 120.034C495.836 120.006 497.068 119.992 497.558 119.992C498.874 119.992 499.42 120.244 499.42 121.224C499.42 122.092 498.916 122.484 497.67 122.484ZM500.568 123.632C502.766 123.352 503.648 122.484 503.648 120.608C503.648 118.41 501.968 117.5 498.804 117.5H490.74C490.782 119.012 490.81 120.524 490.81 122.75C490.81 125.004 490.768 126.474 490.74 128H495.22C495.136 127.216 495.08 126.096 495.052 124.78H497.376C498.692 124.78 498.958 125.074 499.266 126.642C499.504 127.818 499.672 128 500.358 128H504.166C504.012 127.552 503.816 126.684 503.606 125.9C503.242 124.374 502.444 123.926 500.568 123.716V123.632ZM513.818 117.5C513.356 118.242 512.768 119.222 511.69 120.552C511.228 121.112 510.696 121.686 510.192 122.26H510.094C510.094 120.51 510.094 118.928 510.164 117.5H505.656C505.712 119.068 505.726 120.524 505.726 122.75C505.726 124.976 505.712 126.404 505.656 128H510.164C510.108 126.768 510.094 125.48 510.094 124.01H510.22C511.228 124.822 512.446 126.432 513.314 127.51C513.552 127.874 513.818 128 514.42 128H519.236C518.83 127.552 518.102 126.586 516.422 124.682C515.778 123.828 515.05 123.184 514.112 122.834C515.778 121.798 517.85 118.984 519.068 117.5H513.818ZM519.984 117.5C520.04 118.9 520.04 120.524 520.04 122.75C520.04 124.99 520.04 126.572 519.984 128H531.296C531.282 127.636 531.282 127.076 531.282 126.628C531.282 126.11 531.282 125.508 531.296 125.158C529.322 125.172 526.298 125.186 524.422 125.186V123.716C526.564 123.716 529.448 123.744 531.142 123.772C531.142 123.198 531.142 121.994 531.156 121.462C529.42 121.504 526.578 121.504 524.422 121.504V120.09C526.284 120.09 529.14 120.104 531.296 120.118C531.268 119.796 531.268 119.222 531.268 118.774C531.268 118.34 531.282 117.808 531.296 117.5H519.984ZM532.432 117.5C532.446 117.934 532.446 118.578 532.446 119.166C532.446 119.74 532.446 120.44 532.432 120.902C533.622 120.874 534.784 120.874 535.862 120.86C535.848 124.192 535.82 127.272 535.778 128.014C536.436 127.972 537.416 127.972 538.13 127.972C538.844 127.972 539.852 127.972 540.468 128.014C540.426 127.258 540.412 124.178 540.412 120.86C541.49 120.874 542.652 120.874 543.828 120.902C543.8 120.44 543.8 119.74 543.8 119.166C543.8 118.578 543.8 117.92 543.828 117.5H532.432ZM551.665 123.114C550.713 123.114 549.859 123.1 549.341 123.1C549.327 122.176 549.327 121.182 549.327 120.132C550.083 120.118 551.245 120.104 551.735 120.104C553.079 120.104 553.611 120.426 553.611 121.588C553.611 122.722 553.121 123.114 551.665 123.114ZM545.043 117.5C545.085 118.97 545.113 120.524 545.113 122.75C545.113 124.99 545.085 126.474 545.043 128H549.509C549.453 127.356 549.411 126.586 549.383 125.69C550.545 125.718 551.441 125.718 552.435 125.718C556.313 125.718 557.783 124.472 557.783 121.476C557.783 118.312 555.977 117.5 552.841 117.5H545.043ZM559.194 117.5C559.236 118.508 559.25 120.384 559.25 122.75C559.25 124.99 559.208 127.09 559.194 128H568.434C568.42 127.426 568.406 126.866 568.406 126.292C568.406 125.718 568.42 125.144 568.434 124.584C566.866 124.626 565.046 124.626 563.702 124.626C563.702 124.052 563.702 123.422 563.702 122.792C563.716 120.468 563.73 118.284 563.772 117.5H559.194ZM576.051 123.758C575.631 123.758 575.099 123.758 574.539 123.744C574.833 122.806 575.155 121.854 575.435 121.014C575.701 120.286 575.911 119.67 576.065 119.18C576.219 119.67 576.415 120.3 576.695 120.986C577.003 121.84 577.311 122.806 577.605 123.758H576.051ZM583.835 128C582.589 125.298 580.293 119.068 579.775 117.5H572.593C572.103 119.054 569.835 125.326 568.645 128H573.335C573.405 127.58 573.587 126.894 573.825 126.068C574.651 126.068 575.463 126.068 576.051 126.068C576.667 126.068 577.465 126.068 578.277 126.068C578.515 126.922 578.669 127.622 578.725 128H583.835ZM593.283 121.896C593.941 121.882 594.711 121.882 595.425 121.882C596.139 121.882 596.853 121.882 597.567 121.896C597.595 121.588 597.609 121.294 597.609 121.028C597.609 118.382 595.537 117.29 590.875 117.29C586.129 117.29 583.791 118.802 583.791 122.596C583.791 126.586 585.849 128.21 590.861 128.21C595.775 128.21 597.651 126.838 597.651 123.954C597.651 123.758 597.637 123.548 597.623 123.324C596.909 123.338 596.181 123.338 595.467 123.338C594.753 123.338 593.955 123.338 593.297 123.324V123.66C593.297 124.556 592.667 125.116 590.959 125.116C589.111 125.116 588.299 124.388 588.299 122.596C588.299 120.72 589.069 120.202 590.875 120.16C592.527 120.16 593.283 120.552 593.283 121.644V121.896ZM599.39 117.5C599.446 118.9 599.446 120.524 599.446 122.75C599.446 124.99 599.446 126.572 599.39 128H610.702C610.688 127.636 610.688 127.076 610.688 126.628C610.688 126.11 610.688 125.508 610.702 125.158C608.728 125.172 605.704 125.186 603.828 125.186V123.716C605.97 123.716 608.854 123.744 610.548 123.772C610.548 123.198 610.548 121.994 610.562 121.462C608.826 121.504 605.984 121.504 603.828 121.504V120.09C605.69 120.09 608.546 120.104 610.702 120.118C610.674 119.796 610.674 119.222 610.674 118.774C610.674 118.34 610.688 117.808 610.702 117.5H599.39Z" fill="white"/>
<path d="M690.517 101.162C689.271 101.204 688.081 101.19 687.143 101.19C686.093 101.19 684.665 101.19 683.265 101.162C683.279 101.442 683.279 101.792 683.279 102.198C683.279 102.422 683.279 102.982 683.265 103.192C684.161 103.164 685.323 103.15 686.373 103.15C686.191 104.158 685.519 104.578 683.993 104.578C681.893 104.578 681.151 103.682 681.151 101.708C681.151 99.594 681.935 98.866 683.839 98.866C685.477 98.866 686.191 99.216 686.191 100.07C686.191 100.154 686.177 100.252 686.177 100.35C686.723 100.322 687.479 100.308 688.291 100.308C689.089 100.308 689.915 100.322 690.531 100.35C690.545 100.182 690.545 100.014 690.545 99.846C690.545 97.564 688.669 96.248 683.853 96.248C679.107 96.248 676.657 97.746 676.657 101.638C676.657 105.502 679.093 107.252 683.881 107.252C689.859 107.252 690.783 105.278 690.517 101.162ZM698.557 102.758C698.137 102.758 697.605 102.758 697.045 102.744C697.339 101.806 697.661 100.854 697.941 100.014C698.207 99.286 698.417 98.67 698.571 98.18C698.725 98.67 698.921 99.3 699.201 99.986C699.509 100.84 699.817 101.806 700.111 102.758H698.557ZM706.341 107C705.095 104.298 702.799 98.068 702.281 96.5H695.099C694.609 98.054 692.341 104.326 691.151 107H695.841C695.911 106.58 696.093 105.894 696.331 105.068C697.157 105.068 697.969 105.068 698.557 105.068C699.173 105.068 699.971 105.068 700.783 105.068C701.021 105.922 701.175 106.622 701.231 107H706.341ZM723.475 107C723.405 105.488 723.391 103.962 723.391 101.736C723.391 99.44 723.419 97.872 723.447 96.5H718.295C717.875 97.494 717.161 99.09 716.405 100.756C716.209 101.246 715.971 101.862 715.747 102.478C715.509 101.862 715.271 101.246 715.061 100.756C714.263 99.034 713.605 97.508 713.185 96.5H707.487C707.529 97.872 707.543 99.44 707.543 101.736C707.543 103.962 707.529 105.488 707.459 107H711.183C711.127 105.502 711.099 104.186 711.085 102.464C711.071 101.708 711.029 100.98 710.987 100.252L711.057 100.238C711.309 100.966 711.603 101.722 711.883 102.296L714.249 107H716.363L718.575 102.548C718.855 101.974 719.135 101.218 719.401 100.448L719.471 100.462C719.429 101.204 719.387 101.974 719.387 102.646C719.373 104.284 719.331 105.516 719.275 107H723.475ZM725.615 96.5C725.671 97.9 725.671 99.524 725.671 101.75C725.671 103.99 725.671 105.572 725.615 107H736.927C736.913 106.636 736.913 106.076 736.913 105.628C736.913 105.11 736.913 104.508 736.927 104.158C734.953 104.172 731.929 104.186 730.053 104.186V102.716C732.195 102.716 735.079 102.744 736.773 102.772C736.773 102.198 736.773 100.994 736.787 100.462C735.051 100.504 732.209 100.504 730.053 100.504V99.09C731.915 99.09 734.771 99.104 736.927 99.118C736.899 98.796 736.899 98.222 736.899 97.774C736.899 97.34 736.913 96.808 736.927 96.5H725.615ZM750.364 104.088C749.538 104.088 748.922 104.102 748.166 104.032C748.152 103.444 748.152 102.73 748.152 101.778C748.152 100.952 748.166 100.07 748.18 99.258C748.894 99.23 749.608 99.216 750.378 99.216C751.946 99.216 752.632 99.65 752.632 101.582C752.632 103.584 751.904 104.088 750.364 104.088ZM743.784 96.5C743.826 97.9 743.84 99.538 743.84 101.764C743.84 103.99 743.826 105.53 743.784 107H750.756C755.474 107 757.028 105.53 757.028 101.47C757.028 97.746 755.32 96.5 750.812 96.5H743.784ZM758.66 96.5C758.716 97.9 758.716 99.524 758.716 101.75C758.716 103.99 758.716 105.572 758.66 107H769.972C769.958 106.636 769.958 106.076 769.958 105.628C769.958 105.11 769.958 104.508 769.972 104.158C767.998 104.172 764.974 104.186 763.098 104.186V102.716C765.24 102.716 768.124 102.744 769.818 102.772C769.818 102.198 769.818 100.994 769.832 100.462C768.096 100.504 765.254 100.504 763.098 100.504V99.09C764.96 99.09 767.816 99.104 769.972 99.118C769.944 98.796 769.944 98.222 769.944 97.774C769.944 97.34 769.958 96.808 769.972 96.5H758.66ZM788.02 107C787.95 105.488 787.936 103.962 787.936 101.736C787.936 99.44 787.964 97.872 787.992 96.5H782.84C782.42 97.494 781.706 99.09 780.95 100.756C780.754 101.246 780.516 101.862 780.292 102.478C780.054 101.862 779.816 101.246 779.606 100.756C778.808 99.034 778.15 97.508 777.73 96.5H772.032C772.074 97.872 772.088 99.44 772.088 101.736C772.088 103.962 772.074 105.488 772.004 107H775.728C775.672 105.502 775.644 104.186 775.63 102.464C775.616 101.708 775.574 100.98 775.532 100.252L775.602 100.238C775.854 100.966 776.148 101.722 776.428 102.296L778.794 107H780.908L783.12 102.548C783.4 101.974 783.68 101.218 783.946 100.448L784.016 100.462C783.974 101.204 783.932 101.974 783.932 102.646C783.918 104.284 783.876 105.516 783.82 107H788.02ZM804.132 101.596C804.132 97.858 801.738 96.22 796.852 96.22C791.966 96.22 789.642 97.858 789.642 101.596C789.642 105.306 791.7 107.28 796.838 107.28C801.99 107.28 804.132 105.306 804.132 101.596ZM796.852 104.214C794.92 104.214 794.136 103.374 794.136 101.624C794.136 99.888 794.934 99.132 796.852 99.132C798.784 99.132 799.568 99.902 799.568 101.624C799.568 103.36 798.798 104.214 796.852 104.214ZM815.12 99.608C817.01 99.608 819.264 99.622 821.574 99.636C821.56 99.23 821.546 98.642 821.546 98.096C821.546 97.55 821.574 96.92 821.588 96.5H810.668C810.696 97.942 810.696 99.524 810.696 101.75C810.696 103.976 810.682 105.544 810.64 107H815.274C815.218 106.16 815.19 105.25 815.162 104.326C817.374 104.326 819.544 104.354 821.42 104.354C821.42 103.598 821.42 102.17 821.448 101.442C819.53 101.498 817.36 101.498 815.12 101.498V101.204V99.608ZM837.368 101.596C837.368 97.858 834.974 96.22 830.088 96.22C825.202 96.22 822.878 97.858 822.878 101.596C822.878 105.306 824.936 107.28 830.074 107.28C835.226 107.28 837.368 105.306 837.368 101.596ZM830.088 104.214C828.156 104.214 827.372 103.374 827.372 101.624C827.372 99.888 828.17 99.132 830.088 99.132C832.02 99.132 832.804 99.902 832.804 101.624C832.804 103.36 832.034 104.214 830.088 104.214ZM845.912 101.484C844.834 101.484 843.854 101.484 843.266 101.456C843.252 100.672 843.252 99.846 843.252 99.034C844.078 99.006 845.31 98.992 845.8 98.992C847.116 98.992 847.662 99.244 847.662 100.224C847.662 101.092 847.158 101.484 845.912 101.484ZM848.81 102.632C851.008 102.352 851.89 101.484 851.89 99.608C851.89 97.41 850.21 96.5 847.046 96.5H838.982C839.024 98.012 839.052 99.524 839.052 101.75C839.052 104.004 839.01 105.474 838.982 107H843.462C843.378 106.216 843.322 105.096 843.294 103.78H845.618C846.934 103.78 847.2 104.074 847.508 105.642C847.746 106.818 847.914 107 848.6 107H852.408C852.254 106.552 852.058 105.684 851.848 104.9C851.484 103.374 850.686 102.926 848.81 102.716V102.632ZM699.158 122.162C697.912 122.204 696.722 122.19 695.784 122.19C694.734 122.19 693.306 122.19 691.906 122.162C691.92 122.442 691.92 122.792 691.92 123.198C691.92 123.422 691.92 123.982 691.906 124.192C692.802 124.164 693.964 124.15 695.014 124.15C694.832 125.158 694.16 125.578 692.634 125.578C690.534 125.578 689.792 124.682 689.792 122.708C689.792 120.594 690.576 119.866 692.48 119.866C694.118 119.866 694.832 120.216 694.832 121.07C694.832 121.154 694.818 121.252 694.818 121.35C695.364 121.322 696.12 121.308 696.932 121.308C697.73 121.308 698.556 121.322 699.172 121.35C699.186 121.182 699.186 121.014 699.186 120.846C699.186 118.564 697.31 117.248 692.494 117.248C687.748 117.248 685.298 118.746 685.298 122.638C685.298 126.502 687.734 128.252 692.522 128.252C698.5 128.252 699.424 126.278 699.158 122.162ZM701.074 117.5C701.13 118.9 701.13 120.524 701.13 122.75C701.13 124.99 701.13 126.572 701.074 128H712.386C712.372 127.636 712.372 127.076 712.372 126.628C712.372 126.11 712.372 125.508 712.386 125.158C710.412 125.172 707.388 125.186 705.512 125.186V123.716C707.654 123.716 710.538 123.744 712.232 123.772C712.232 123.198 712.232 121.994 712.246 121.462C710.51 121.504 707.668 121.504 705.512 121.504V120.09C707.374 120.09 710.23 120.104 712.386 120.118C712.358 119.796 712.358 119.222 712.358 118.774C712.358 118.34 712.372 117.808 712.386 117.5H701.074ZM723.84 117.5C723.91 118.27 723.952 119.922 723.952 121.49C723.966 122.106 723.994 122.834 724.064 123.604L724.036 123.618C723.784 123.072 723.462 122.554 723.14 122.078C721.95 120.594 719.738 118.144 719.416 117.5H714.404C714.46 118.914 714.446 120.524 714.446 122.75C714.446 124.99 714.418 126.586 714.404 128H718.338C718.31 127.44 718.31 126.11 718.282 124.178C718.254 123.352 718.226 122.554 718.156 121.7C718.478 122.302 718.884 122.904 719.304 123.506C720.634 125.018 722.538 127.09 723.084 128H727.704C727.662 126.642 727.662 125.06 727.662 122.736C727.662 120.51 727.69 118.62 727.718 117.5H723.84ZM734.831 128.014C735.839 127.972 736.567 127.972 737.225 127.972C737.897 127.972 738.597 127.972 739.647 128C739.605 126.544 739.591 124.976 739.591 122.75C739.591 120.51 739.605 118.76 739.647 117.5C739.381 117.514 738.975 117.514 738.541 117.514C738.177 117.514 737.799 117.514 737.351 117.5C736.623 118.06 735.741 118.62 734.719 118.984C734.761 119.572 734.873 120.482 734.873 122.75C734.873 124.99 734.859 126.53 734.831 128.014ZM755.686 117.5C755.728 118.466 755.742 119.964 755.756 121.21C755.028 121.238 754.216 121.238 753.404 121.238C752.606 121.238 751.794 121.238 751.066 121.21C751.066 119.964 751.08 118.48 751.122 117.5H746.628C746.698 118.97 746.698 120.538 746.698 122.75C746.698 124.976 746.698 126.488 746.628 128H751.122C751.08 127.02 751.066 125.564 751.066 124.36C751.794 124.346 752.606 124.346 753.404 124.346C754.216 124.346 755.028 124.346 755.756 124.374C755.742 125.564 755.728 127.006 755.686 128H760.18C760.138 126.488 760.11 124.976 760.11 122.75C760.11 120.538 760.138 118.956 760.18 117.5H755.686ZM776.282 122.596C776.282 118.858 773.888 117.22 769.002 117.22C764.116 117.22 761.792 118.858 761.792 122.596C761.792 126.306 763.85 128.28 768.988 128.28C774.14 128.28 776.282 126.306 776.282 122.596ZM769.002 125.214C767.07 125.214 766.286 124.374 766.286 122.624C766.286 120.888 767.084 120.132 769.002 120.132C770.934 120.132 771.718 120.902 771.718 122.624C771.718 124.36 770.948 125.214 769.002 125.214ZM777.868 117.5C777.91 118.508 777.924 120.384 777.924 122.75C777.924 124.99 777.882 127.09 777.868 128H787.108C787.094 127.426 787.08 126.866 787.08 126.292C787.08 125.718 787.094 125.144 787.108 124.584C785.54 124.626 783.72 124.626 782.376 124.626C782.376 124.052 782.376 123.422 782.376 122.792C782.39 120.468 782.404 118.284 782.446 117.5H777.868ZM794.893 125.088C794.067 125.088 793.451 125.102 792.695 125.032C792.681 124.444 792.681 123.73 792.681 122.778C792.681 121.952 792.695 121.07 792.709 120.258C793.423 120.23 794.137 120.216 794.907 120.216C796.475 120.216 797.161 120.65 797.161 122.582C797.161 124.584 796.433 125.088 794.893 125.088ZM788.313 117.5C788.355 118.9 788.369 120.538 788.369 122.764C788.369 124.99 788.355 126.53 788.313 128H795.285C800.003 128 801.557 126.53 801.557 122.47C801.557 118.746 799.849 117.5 795.341 117.5H788.313ZM803.189 117.5C803.245 118.9 803.245 120.524 803.245 122.75C803.245 124.99 803.245 126.572 803.189 128H814.501C814.487 127.636 814.487 127.076 814.487 126.628C814.487 126.11 814.487 125.508 814.501 125.158C812.527 125.172 809.503 125.186 807.627 125.186V123.716C809.769 123.716 812.653 123.744 814.347 123.772C814.347 123.198 814.347 121.994 814.361 121.462C812.625 121.504 809.783 121.504 807.627 121.504V120.09C809.489 120.09 812.345 120.104 814.501 120.118C814.473 119.796 814.473 119.222 814.473 118.774C814.473 118.34 814.487 117.808 814.501 117.5H803.189ZM823.435 122.484C822.357 122.484 821.377 122.484 820.789 122.456C820.775 121.672 820.775 120.846 820.775 120.034C821.601 120.006 822.833 119.992 823.323 119.992C824.639 119.992 825.185 120.244 825.185 121.224C825.185 122.092 824.681 122.484 823.435 122.484ZM826.333 123.632C828.531 123.352 829.413 122.484 829.413 120.608C829.413 118.41 827.733 117.5 824.569 117.5H816.505C816.547 119.012 816.575 120.524 816.575 122.75C816.575 125.004 816.533 126.474 816.505 128H820.985C820.901 127.216 820.845 126.096 820.817 124.78H823.141C824.457 124.78 824.723 125.074 825.031 126.642C825.269 127.818 825.437 128 826.123 128H829.931C829.777 127.552 829.581 126.684 829.371 125.9C829.007 124.374 828.209 123.926 826.333 123.716V123.632ZM834.937 124.542C834.545 124.57 834.041 124.584 833.495 124.584C832.613 124.584 831.689 124.528 831.045 124.472C831.017 124.738 831.003 124.99 831.003 125.228C831.003 127.314 832.501 128.252 837.401 128.252C842.091 128.252 843.659 127.118 843.659 124.864C843.659 122.666 842.427 121.812 838.465 121.462C835.595 121.21 835.343 120.888 835.343 120.398C835.343 119.978 835.707 119.726 837.359 119.726C839.277 119.726 839.641 120.02 839.641 120.622C839.641 120.692 839.641 120.79 839.627 120.874C839.977 120.86 840.551 120.846 841.153 120.846C841.951 120.846 842.889 120.874 843.435 120.916C843.449 120.692 843.449 120.482 843.449 120.272C843.449 118.186 842.063 117.248 837.205 117.248C832.809 117.248 831.031 118.368 831.031 120.594C831.031 122.554 832.039 123.576 836.407 123.912C839.053 124.094 839.347 124.444 839.347 124.99C839.347 125.466 838.997 125.732 837.191 125.732C835.441 125.732 834.937 125.438 834.937 124.71V124.542Z" fill="white"/>
<path d="M918.173 96.5C918.215 97.508 918.229 99.384 918.229 101.75C918.229 103.99 918.187 106.09 918.173 107H927.413C927.399 106.426 927.385 105.866 927.385 105.292C927.385 104.718 927.399 104.144 927.413 103.584C925.845 103.626 924.025 103.626 922.681 103.626C922.681 103.052 922.681 102.422 922.681 101.792C922.695 99.468 922.709 97.284 922.751 96.5H918.173ZM935.03 102.758C934.61 102.758 934.078 102.758 933.518 102.744C933.812 101.806 934.134 100.854 934.414 100.014C934.68 99.286 934.89 98.67 935.044 98.18C935.198 98.67 935.394 99.3 935.674 99.986C935.982 100.84 936.29 101.806 936.584 102.758H935.03ZM942.814 107C941.568 104.298 939.272 98.068 938.754 96.5H931.572C931.082 98.054 928.814 104.326 927.624 107H932.314C932.384 106.58 932.566 105.894 932.804 105.068C933.63 105.068 934.442 105.068 935.03 105.068C935.646 105.068 936.444 105.068 937.256 105.068C937.494 105.922 937.648 106.622 937.704 107H942.814ZM952.318 96.5C952.346 98.096 952.374 100.658 952.374 102.128C952.374 103.458 951.744 104.046 950.092 104.046C948.426 104.046 947.698 103.458 947.698 102.128C947.698 100.658 947.726 98.096 947.782 96.5H943.26C943.288 97.382 943.316 98.25 943.316 99.566C943.316 100.35 943.288 101.554 943.288 102.394C943.288 105.712 944.87 107.252 949.994 107.252C955.132 107.252 956.686 105.712 956.686 102.394C956.686 101.554 956.658 100.35 956.658 99.566C956.658 98.25 956.686 97.382 956.728 96.5H952.318ZM968.243 96.5C968.313 97.27 968.355 98.922 968.355 100.49C968.369 101.106 968.397 101.834 968.467 102.604L968.439 102.618C968.187 102.072 967.865 101.554 967.543 101.078C966.353 99.594 964.141 97.144 963.819 96.5H958.807C958.863 97.914 958.849 99.524 958.849 101.75C958.849 103.99 958.821 105.586 958.807 107H962.741C962.713 106.44 962.713 105.11 962.685 103.178C962.657 102.352 962.629 101.554 962.559 100.7C962.881 101.302 963.287 101.904 963.707 102.506C965.037 104.018 966.941 106.09 967.487 107H972.107C972.065 105.642 972.065 104.06 972.065 101.736C972.065 99.51 972.093 97.62 972.121 96.5H968.243ZM983.215 100.896C983.873 100.882 984.643 100.882 985.357 100.882C986.071 100.882 986.785 100.882 987.499 100.896C987.527 100.588 987.541 100.294 987.541 100.028C987.541 97.382 985.469 96.29 980.807 96.29C976.061 96.29 973.723 97.802 973.723 101.596C973.723 105.586 975.781 107.21 980.793 107.21C985.707 107.21 987.583 105.838 987.583 102.954C987.583 102.758 987.569 102.548 987.555 102.324C986.841 102.338 986.113 102.338 985.399 102.338C984.685 102.338 983.887 102.338 983.229 102.324V102.66C983.229 103.556 982.599 104.116 980.891 104.116C979.043 104.116 978.231 103.388 978.231 101.596C978.231 99.72 979.001 99.202 980.807 99.16C982.459 99.16 983.215 99.552 983.215 100.644V100.896ZM998.38 96.5C998.422 97.466 998.436 98.964 998.45 100.21C997.722 100.238 996.91 100.238 996.098 100.238C995.3 100.238 994.488 100.238 993.76 100.21C993.76 98.964 993.774 97.48 993.816 96.5H989.322C989.392 97.97 989.392 99.538 989.392 101.75C989.392 103.976 989.392 105.488 989.322 107H993.816C993.774 106.02 993.76 104.564 993.76 103.36C994.488 103.346 995.3 103.346 996.098 103.346C996.91 103.346 997.722 103.346 998.45 103.374C998.436 104.564 998.422 106.006 998.38 107H1002.87C1002.83 105.488 1002.8 103.976 1002.8 101.75C1002.8 99.538 1002.83 97.956 1002.87 96.5H998.38ZM1023.23 101.162C1021.98 101.204 1020.79 101.19 1019.85 101.19C1018.8 101.19 1017.37 101.19 1015.97 101.162C1015.99 101.442 1015.99 101.792 1015.99 102.198C1015.99 102.422 1015.99 102.982 1015.97 103.192C1016.87 103.164 1018.03 103.15 1019.08 103.15C1018.9 104.158 1018.23 104.578 1016.7 104.578C1014.6 104.578 1013.86 103.682 1013.86 101.708C1013.86 99.594 1014.64 98.866 1016.55 98.866C1018.19 98.866 1018.9 99.216 1018.9 100.07C1018.9 100.154 1018.89 100.252 1018.89 100.35C1019.43 100.322 1020.19 100.308 1021 100.308C1021.8 100.308 1022.62 100.322 1023.24 100.35C1023.25 100.182 1023.25 100.014 1023.25 99.846C1023.25 97.564 1021.38 96.248 1016.56 96.248C1011.82 96.248 1009.37 97.746 1009.37 101.638C1009.37 105.502 1011.8 107.252 1016.59 107.252C1022.57 107.252 1023.49 105.278 1023.23 101.162ZM1025.14 96.5C1025.2 97.9 1025.2 99.524 1025.2 101.75C1025.2 103.99 1025.2 105.572 1025.14 107H1036.45C1036.44 106.636 1036.44 106.076 1036.44 105.628C1036.44 105.11 1036.44 104.508 1036.45 104.158C1034.48 104.172 1031.46 104.186 1029.58 104.186V102.716C1031.72 102.716 1034.61 102.744 1036.3 102.772C1036.3 102.198 1036.3 100.994 1036.31 100.462C1034.58 100.504 1031.74 100.504 1029.58 100.504V99.09C1031.44 99.09 1034.3 99.104 1036.45 99.118C1036.43 98.796 1036.43 98.222 1036.43 97.774C1036.43 97.34 1036.44 96.808 1036.45 96.5H1025.14ZM1047.91 96.5C1047.98 97.27 1048.02 98.922 1048.02 100.49C1048.03 101.106 1048.06 101.834 1048.13 102.604L1048.1 102.618C1047.85 102.072 1047.53 101.554 1047.21 101.078C1046.02 99.594 1043.81 97.144 1043.48 96.5H1038.47C1038.53 97.914 1038.51 99.524 1038.51 101.75C1038.51 103.99 1038.49 105.586 1038.47 107H1042.41C1042.38 106.44 1042.38 105.11 1042.35 103.178C1042.32 102.352 1042.29 101.554 1042.22 100.7C1042.55 101.302 1042.95 101.904 1043.37 102.506C1044.7 104.018 1046.61 106.09 1047.15 107H1051.77C1051.73 105.642 1051.73 104.06 1051.73 101.736C1051.73 99.51 1051.76 97.62 1051.79 96.5H1047.91ZM1070.11 107C1070.09 106.678 1070.09 106.174 1070.09 105.614C1070.09 105.026 1070.1 104.424 1070.11 103.99C1069.05 104.032 1067.79 104.074 1066.42 104.074C1065.48 104.074 1063.86 104.088 1062.48 104.102C1062.61 103.584 1063.27 103.416 1065.86 103.052C1069.11 102.562 1070.3 101.862 1070.3 99.678C1070.3 97.578 1068.63 96.304 1064.4 96.304C1060.37 96.304 1058.44 97.424 1058.44 99.832C1058.44 100.098 1058.47 100.392 1058.49 100.714C1059.03 100.658 1059.77 100.644 1060.64 100.644C1061.31 100.644 1061.94 100.658 1062.39 100.686C1062.37 100.462 1062.36 100.294 1062.36 100.112C1062.36 99.328 1062.88 98.922 1064.35 98.922C1065.62 98.922 1066.17 99.272 1066.17 99.86C1066.17 100.714 1065.49 100.91 1062.86 101.442C1059.88 102.002 1058.37 102.646 1058.37 104.9C1058.37 105.264 1058.38 105.628 1058.38 105.95C1058.38 106.398 1058.37 106.776 1058.35 107H1070.11ZM939.322 121.896C939.98 121.882 940.75 121.882 941.464 121.882C942.178 121.882 942.892 121.882 943.606 121.896C943.634 121.588 943.648 121.294 943.648 121.028C943.648 118.382 941.576 117.29 936.914 117.29C932.168 117.29 929.83 118.802 929.83 122.596C929.83 126.586 931.888 128.21 936.9 128.21C941.814 128.21 943.69 126.838 943.69 123.954C943.69 123.758 943.676 123.548 943.662 123.324C942.948 123.338 942.22 123.338 941.506 123.338C940.792 123.338 939.994 123.338 939.336 123.324V123.66C939.336 124.556 938.706 125.116 936.998 125.116C935.15 125.116 934.338 124.388 934.338 122.596C934.338 120.72 935.108 120.202 936.914 120.16C938.566 120.16 939.322 120.552 939.322 121.644V121.896ZM959.4 122.596C959.4 118.858 957.006 117.22 952.12 117.22C947.234 117.22 944.91 118.858 944.91 122.596C944.91 126.306 946.968 128.28 952.106 128.28C957.258 128.28 959.4 126.306 959.4 122.596ZM952.12 125.214C950.188 125.214 949.404 124.374 949.404 122.624C949.404 120.888 950.202 120.132 952.12 120.132C954.052 120.132 954.836 120.902 954.836 122.624C954.836 124.36 954.066 125.214 952.12 125.214ZM960.986 117.5C961.028 118.508 961.042 120.384 961.042 122.75C961.042 124.99 961 127.09 960.986 128H970.226C970.212 127.426 970.198 126.866 970.198 126.292C970.198 125.718 970.212 125.144 970.226 124.584C968.658 124.626 966.838 124.626 965.494 124.626C965.494 124.052 965.494 123.422 965.494 122.792C965.508 120.468 965.522 118.284 965.564 117.5H960.986ZM971.445 117.5C971.487 118.508 971.501 120.384 971.501 122.75C971.501 124.99 971.459 127.09 971.445 128H980.685C980.671 127.426 980.657 126.866 980.657 126.292C980.657 125.718 980.671 125.144 980.685 124.584C979.117 124.626 977.297 124.626 975.953 124.626C975.953 124.052 975.953 123.422 975.953 122.792C975.967 120.468 975.981 118.284 976.023 117.5H971.445ZM981.932 117.5C981.988 118.9 981.988 120.524 981.988 122.75C981.988 124.99 981.988 126.572 981.932 128H993.244C993.23 127.636 993.23 127.076 993.23 126.628C993.23 126.11 993.23 125.508 993.244 125.158C991.27 125.172 988.246 125.186 986.37 125.186V123.716C988.512 123.716 991.396 123.744 993.09 123.772C993.09 123.198 993.09 121.994 993.104 121.462C991.368 121.504 988.526 121.504 986.37 121.504V120.09C988.232 120.09 991.088 120.104 993.244 120.118C993.216 119.796 993.216 119.222 993.216 118.774C993.216 118.34 993.23 117.808 993.244 117.5H981.932ZM1004.19 121.896C1004.85 121.882 1005.62 121.882 1006.34 121.882C1007.05 121.882 1007.76 121.882 1008.48 121.896C1008.51 121.588 1008.52 121.294 1008.52 121.028C1008.52 118.382 1006.45 117.29 1001.79 117.29C997.041 117.29 994.703 118.802 994.703 122.596C994.703 126.586 996.761 128.21 1001.77 128.21C1006.69 128.21 1008.56 126.838 1008.56 123.954C1008.56 123.758 1008.55 123.548 1008.53 123.324C1007.82 123.338 1007.09 123.338 1006.38 123.338C1005.66 123.338 1004.87 123.338 1004.21 123.324V123.66C1004.21 124.556 1003.58 125.116 1001.87 125.116C1000.02 125.116 999.211 124.388 999.211 122.596C999.211 120.72 999.981 120.202 1001.79 120.16C1003.44 120.16 1004.19 120.552 1004.19 121.644V121.896ZM1009.43 117.5C1009.45 117.934 1009.45 118.578 1009.45 119.166C1009.45 119.74 1009.45 120.44 1009.43 120.902C1010.62 120.874 1011.79 120.874 1012.86 120.86C1012.85 124.192 1012.82 127.272 1012.78 128.014C1013.44 127.972 1014.42 127.972 1015.13 127.972C1015.85 127.972 1016.85 127.972 1017.47 128.014C1017.43 127.258 1017.41 124.178 1017.41 120.86C1018.49 120.874 1019.65 120.874 1020.83 120.902C1020.8 120.44 1020.8 119.74 1020.8 119.166C1020.8 118.578 1020.8 117.92 1020.83 117.5H1009.43ZM1026.57 128C1026.54 126.418 1026.52 124.948 1026.52 122.736C1026.52 120.496 1026.52 119.04 1026.57 117.5H1022.09C1022.13 119.054 1022.13 120.524 1022.13 122.75C1022.13 124.976 1022.13 126.432 1022.09 128H1026.57ZM1042.66 122.596C1042.66 118.858 1040.27 117.22 1035.38 117.22C1030.5 117.22 1028.17 118.858 1028.17 122.596C1028.17 126.306 1030.23 128.28 1035.37 128.28C1040.52 128.28 1042.66 126.306 1042.66 122.596ZM1035.38 125.214C1033.45 125.214 1032.67 124.374 1032.67 122.624C1032.67 120.888 1033.46 120.132 1035.38 120.132C1037.31 120.132 1038.1 120.902 1038.1 122.624C1038.1 124.36 1037.33 125.214 1035.38 125.214ZM1053.73 117.5C1053.8 118.27 1053.84 119.922 1053.84 121.49C1053.85 122.106 1053.88 122.834 1053.95 123.604L1053.92 123.618C1053.67 123.072 1053.35 122.554 1053.03 122.078C1051.84 120.594 1049.62 118.144 1049.3 117.5H1044.29C1044.35 118.914 1044.33 120.524 1044.33 122.75C1044.33 124.99 1044.3 126.586 1044.29 128H1048.22C1048.2 127.44 1048.2 126.11 1048.17 124.178C1048.14 123.352 1048.11 122.554 1048.04 121.7C1048.36 122.302 1048.77 122.904 1049.19 123.506C1050.52 125.018 1052.42 127.09 1052.97 128H1057.59C1057.55 126.642 1057.55 125.06 1057.55 122.736C1057.55 120.51 1057.58 118.62 1057.6 117.5H1053.73Z" fill="white"/>
<path d="M1173.61 107C1173.58 105.418 1173.56 103.948 1173.56 101.736C1173.56 99.496 1173.56 98.04 1173.61 96.5H1169.13C1169.17 98.054 1169.17 99.524 1169.17 101.75C1169.17 103.976 1169.17 105.432 1169.13 107H1173.61ZM1174.86 96.5C1174.88 96.934 1174.88 97.578 1174.88 98.166C1174.88 98.74 1174.88 99.44 1174.86 99.902C1176.05 99.874 1177.21 99.874 1178.29 99.86C1178.28 103.192 1178.25 106.272 1178.21 107.014C1178.87 106.972 1179.85 106.972 1180.56 106.972C1181.27 106.972 1182.28 106.972 1182.9 107.014C1182.86 106.258 1182.84 103.178 1182.84 99.86C1183.92 99.874 1185.08 99.874 1186.26 99.902C1186.23 99.44 1186.23 98.74 1186.23 98.166C1186.23 97.578 1186.23 96.92 1186.26 96.5H1174.86ZM1198.95 104.088C1198.12 104.088 1197.51 104.102 1196.75 104.032C1196.74 103.444 1196.74 102.73 1196.74 101.778C1196.74 100.952 1196.75 100.07 1196.76 99.258C1197.48 99.23 1198.19 99.216 1198.96 99.216C1200.53 99.216 1201.22 99.65 1201.22 101.582C1201.22 103.584 1200.49 104.088 1198.95 104.088ZM1192.37 96.5C1192.41 97.9 1192.42 99.538 1192.42 101.764C1192.42 103.99 1192.41 105.53 1192.37 107H1199.34C1204.06 107 1205.61 105.53 1205.61 101.47C1205.61 97.746 1203.9 96.5 1199.4 96.5H1192.37ZM1221.22 101.596C1221.22 97.858 1218.82 96.22 1213.94 96.22C1209.05 96.22 1206.73 97.858 1206.73 101.596C1206.73 105.306 1208.78 107.28 1213.92 107.28C1219.07 107.28 1221.22 105.306 1221.22 101.596ZM1213.94 104.214C1212 104.214 1211.22 103.374 1211.22 101.624C1211.22 99.888 1212.02 99.132 1213.94 99.132C1215.87 99.132 1216.65 99.902 1216.65 101.624C1216.65 103.36 1215.88 104.214 1213.94 104.214ZM1222.83 96.5C1222.89 97.9 1222.89 99.524 1222.89 101.75C1222.89 103.99 1222.89 105.572 1222.83 107H1234.14C1234.13 106.636 1234.13 106.076 1234.13 105.628C1234.13 105.11 1234.13 104.508 1234.14 104.158C1232.17 104.172 1229.14 104.186 1227.27 104.186V102.716C1229.41 102.716 1232.29 102.744 1233.99 102.772C1233.99 102.198 1233.99 100.994 1234 100.462C1232.27 100.504 1229.42 100.504 1227.27 100.504V99.09C1229.13 99.09 1231.99 99.104 1234.14 99.118C1234.11 98.796 1234.11 98.222 1234.11 97.774C1234.11 97.34 1234.13 96.808 1234.14 96.5H1222.83ZM1239.72 103.542C1239.32 103.57 1238.82 103.584 1238.27 103.584C1237.39 103.584 1236.47 103.528 1235.82 103.472C1235.8 103.738 1235.78 103.99 1235.78 104.228C1235.78 106.314 1237.28 107.252 1242.18 107.252C1246.87 107.252 1248.44 106.118 1248.44 103.864C1248.44 101.666 1247.21 100.812 1243.24 100.462C1240.37 100.21 1240.12 99.888 1240.12 99.398C1240.12 98.978 1240.49 98.726 1242.14 98.726C1244.06 98.726 1244.42 99.02 1244.42 99.622C1244.42 99.692 1244.42 99.79 1244.41 99.874C1244.76 99.86 1245.33 99.846 1245.93 99.846C1246.73 99.846 1247.67 99.874 1248.21 99.916C1248.23 99.692 1248.23 99.482 1248.23 99.272C1248.23 97.186 1246.84 96.248 1241.98 96.248C1237.59 96.248 1235.81 97.368 1235.81 99.594C1235.81 101.554 1236.82 102.576 1241.19 102.912C1243.83 103.094 1244.13 103.444 1244.13 103.99C1244.13 104.466 1243.78 104.732 1241.97 104.732C1240.22 104.732 1239.72 104.438 1239.72 103.71V103.542ZM1259.53 96.5C1259.6 97.27 1259.64 98.922 1259.64 100.49C1259.65 101.106 1259.68 101.834 1259.75 102.604L1259.72 102.618C1259.47 102.072 1259.15 101.554 1258.83 101.078C1257.64 99.594 1255.43 97.144 1255.1 96.5H1250.09C1250.15 97.914 1250.13 99.524 1250.13 101.75C1250.13 103.99 1250.11 105.586 1250.09 107H1254.03C1254 106.44 1254 105.11 1253.97 103.178C1253.94 102.352 1253.91 101.554 1253.84 100.7C1254.17 101.302 1254.57 101.904 1254.99 102.506C1256.32 104.018 1258.23 106.09 1258.77 107H1263.39C1263.35 105.642 1263.35 104.06 1263.35 101.736C1263.35 99.51 1263.38 97.62 1263.41 96.5H1259.53ZM1265.22 96.5C1265.15 97.76 1264.87 100.518 1264.59 101.736C1265.37 101.82 1266.83 102.044 1267.6 102.17C1267.85 101.232 1268.7 97.942 1269.08 96.5C1268.58 96.528 1267.65 96.542 1267.04 96.542C1266.35 96.542 1265.68 96.528 1265.22 96.5ZM1269.35 96.5C1269.36 96.934 1269.36 97.578 1269.36 98.166C1269.36 98.74 1269.36 99.44 1269.35 99.902C1270.54 99.874 1271.7 99.874 1272.78 99.86C1272.76 103.192 1272.74 106.272 1272.69 107.014C1273.35 106.972 1274.33 106.972 1275.05 106.972C1275.76 106.972 1276.77 106.972 1277.38 107.014C1277.34 106.258 1277.33 103.178 1277.33 99.86C1278.41 99.874 1279.57 99.874 1280.74 99.902C1280.72 99.44 1280.72 98.74 1280.72 98.166C1280.72 97.578 1280.72 96.92 1280.74 96.5H1269.35ZM1167.04 124.542C1166.65 124.57 1166.15 124.584 1165.6 124.584C1164.72 124.584 1163.8 124.528 1163.15 124.472C1163.12 124.738 1163.11 124.99 1163.11 125.228C1163.11 127.314 1164.61 128.252 1169.51 128.252C1174.2 128.252 1175.77 127.118 1175.77 124.864C1175.77 122.666 1174.53 121.812 1170.57 121.462C1167.7 121.21 1167.45 120.888 1167.45 120.398C1167.45 119.978 1167.81 119.726 1169.47 119.726C1171.38 119.726 1171.75 120.02 1171.75 120.622C1171.75 120.692 1171.75 120.79 1171.73 120.874C1172.08 120.86 1172.66 120.846 1173.26 120.846C1174.06 120.846 1175 120.874 1175.54 120.916C1175.56 120.692 1175.56 120.482 1175.56 120.272C1175.56 118.186 1174.17 117.248 1169.31 117.248C1164.92 117.248 1163.14 118.368 1163.14 120.594C1163.14 122.554 1164.15 123.576 1168.51 123.912C1171.16 124.094 1171.45 124.444 1171.45 124.99C1171.45 125.466 1171.1 125.732 1169.3 125.732C1167.55 125.732 1167.04 125.438 1167.04 124.71V124.542ZM1176.54 117.5C1176.55 117.934 1176.55 118.578 1176.55 119.166C1176.55 119.74 1176.55 120.44 1176.54 120.902C1177.73 120.874 1178.89 120.874 1179.97 120.86C1179.95 124.192 1179.92 127.272 1179.88 128.014C1180.54 127.972 1181.52 127.972 1182.23 127.972C1182.95 127.972 1183.96 127.972 1184.57 128.014C1184.53 127.258 1184.52 124.178 1184.52 120.86C1185.59 120.874 1186.76 120.874 1187.93 120.902C1187.9 120.44 1187.9 119.74 1187.9 119.166C1187.9 118.578 1187.9 117.92 1187.93 117.5H1176.54ZM1203.08 122.596C1203.08 118.858 1200.69 117.22 1195.8 117.22C1190.91 117.22 1188.59 118.858 1188.59 122.596C1188.59 126.306 1190.65 128.28 1195.79 128.28C1200.94 128.28 1203.08 126.306 1203.08 122.596ZM1195.8 125.214C1193.87 125.214 1193.08 124.374 1193.08 122.624C1193.08 120.888 1193.88 120.132 1195.8 120.132C1197.73 120.132 1198.52 120.902 1198.52 122.624C1198.52 124.36 1197.75 125.214 1195.8 125.214ZM1211.27 123.114C1210.32 123.114 1209.47 123.1 1208.95 123.1C1208.94 122.176 1208.94 121.182 1208.94 120.132C1209.69 120.118 1210.85 120.104 1211.34 120.104C1212.69 120.104 1213.22 120.426 1213.22 121.588C1213.22 122.722 1212.73 123.114 1211.27 123.114ZM1204.65 117.5C1204.69 118.97 1204.72 120.524 1204.72 122.75C1204.72 124.99 1204.69 126.474 1204.65 128H1209.12C1209.06 127.356 1209.02 126.586 1208.99 125.69C1210.15 125.718 1211.05 125.718 1212.04 125.718C1215.92 125.718 1217.39 124.472 1217.39 121.476C1217.39 118.312 1215.59 117.5 1212.45 117.5H1204.65ZM1232.84 117.5C1232.88 118.466 1232.89 119.964 1232.91 121.21C1232.18 121.238 1231.37 121.238 1230.56 121.238C1229.76 121.238 1228.95 121.238 1228.22 121.21C1228.22 119.964 1228.23 118.48 1228.27 117.5H1223.78C1223.85 118.97 1223.85 120.538 1223.85 122.75C1223.85 124.976 1223.85 126.488 1223.78 128H1228.27C1228.23 127.02 1228.22 125.564 1228.22 124.36C1228.95 124.346 1229.76 124.346 1230.56 124.346C1231.37 124.346 1232.18 124.346 1232.91 124.374C1232.89 125.564 1232.88 127.006 1232.84 128H1237.33C1237.29 126.488 1237.26 124.976 1237.26 122.75C1237.26 120.538 1237.29 118.956 1237.33 117.5H1232.84ZM1239.46 117.5C1239.52 118.9 1239.52 120.524 1239.52 122.75C1239.52 124.99 1239.52 126.572 1239.46 128H1250.77C1250.76 127.636 1250.76 127.076 1250.76 126.628C1250.76 126.11 1250.76 125.508 1250.77 125.158C1248.8 125.172 1245.78 125.186 1243.9 125.186V123.716C1246.04 123.716 1248.93 123.744 1250.62 123.772C1250.62 123.198 1250.62 121.994 1250.63 121.462C1248.9 121.504 1246.06 121.504 1243.9 121.504V120.09C1245.76 120.09 1248.62 120.104 1250.77 120.118C1250.75 119.796 1250.75 119.222 1250.75 118.774C1250.75 118.34 1250.76 117.808 1250.77 117.5H1239.46ZM1259.71 122.484C1258.63 122.484 1257.65 122.484 1257.06 122.456C1257.05 121.672 1257.05 120.846 1257.05 120.034C1257.87 120.006 1259.11 119.992 1259.6 119.992C1260.91 119.992 1261.46 120.244 1261.46 121.224C1261.46 122.092 1260.95 122.484 1259.71 122.484ZM1262.61 123.632C1264.8 123.352 1265.69 122.484 1265.69 120.608C1265.69 118.41 1264.01 117.5 1260.84 117.5H1252.78C1252.82 119.012 1252.85 120.524 1252.85 122.75C1252.85 125.004 1252.81 126.474 1252.78 128H1257.26C1257.17 127.216 1257.12 126.096 1257.09 124.78H1259.41C1260.73 124.78 1261 125.074 1261.3 126.642C1261.54 127.818 1261.71 128 1262.4 128H1266.2C1266.05 127.552 1265.85 126.684 1265.64 125.9C1265.28 124.374 1264.48 123.926 1262.61 123.716V123.632ZM1267.69 117.5C1267.75 118.9 1267.75 120.524 1267.75 122.75C1267.75 124.99 1267.75 126.572 1267.69 128H1279.01C1278.99 127.636 1278.99 127.076 1278.99 126.628C1278.99 126.11 1278.99 125.508 1279.01 125.158C1277.03 125.172 1274.01 125.186 1272.13 125.186V123.716C1274.27 123.716 1277.16 123.744 1278.85 123.772C1278.85 123.198 1278.85 121.994 1278.87 121.462C1277.13 121.504 1274.29 121.504 1272.13 121.504V120.09C1273.99 120.09 1276.85 120.104 1279.01 120.118C1278.98 119.796 1278.98 119.222 1278.98 118.774C1278.98 118.34 1278.99 117.808 1279.01 117.5H1267.69ZM1281.19 124.556C1281.92 124.528 1282.72 124.528 1283.28 124.528C1283.88 124.528 1284.65 124.528 1285.35 124.556C1285.32 124.164 1285.34 123.66 1285.34 122.834C1285.34 121.084 1285.52 118.34 1285.6 117.5C1284.79 117.528 1283.94 117.528 1283.28 117.528C1282.63 117.528 1281.72 117.528 1280.91 117.5C1281.02 118.312 1281.22 121.014 1281.22 122.848C1281.22 123.534 1281.22 124.122 1281.19 124.556ZM1283.26 125.242C1281.6 125.242 1280.84 125.704 1280.84 126.684C1280.84 127.65 1281.6 128.126 1283.26 128.126C1284.94 128.126 1285.71 127.65 1285.71 126.684C1285.71 125.704 1284.93 125.242 1283.26 125.242Z" fill="white"/>
<line x1="74" y1="64" x2="314" y2="64" stroke="#FFFF00" stroke-width="4"/>
<line x1="314" y1="64" x2="534" y2="64" stroke="#FFFF00" stroke-width="4"/>
<line x1="534" y1="64" x2="1225" y2="64" stroke="white" stroke-width="4"/>
<circle cx="74" cy="64" r="15" fill="#FFFF00"/>
<circle cx="304" cy="64" r="15" fill="#FFFF00"/>
<circle cx="534" cy="64" r="15" fill="white"/>
<circle cx="764" cy="64" r="13" fill="#121212" stroke="white" stroke-width="4"/>
<circle cx="994" cy="64" r="13" fill="#121212" stroke="white" stroke-width="4"/>
<circle cx="1224" cy="64" r="13" fill="#121212" stroke="white" stroke-width="4"/>
<path fill-rule="evenodd" clip-rule="evenodd" d="M83 58.9947L81.0053 57L70.9707 67.0346L66.9947 63.0586L65 65.0533L70.9707 71.024L83 58.9947Z" fill="#121212"/>
<path fill-rule="evenodd" clip-rule="evenodd" d="M313 58.9947L311.005 57L300.971 67.0346L296.995 63.0586L295 65.0533L300.971 71.024L313 58.9947Z" fill="#121212"/>
<path d="M528 62C526.9 62 526 62.9 526 64C526 65.1 526.9 66 528 66C529.1 66 530 65.1 530 64C530 62.9 529.1 62 528 62ZM540 62C538.9 62 538 62.9 538 64C538 65.1 538.9 66 540 66C541.1 66 542 65.1 542 64C542 62.9 541.1 62 540 62ZM534 62C532.9 62 532 62.9 532 64C532 65.1 532.9 66 534 66C535.1 66 536 65.1 536 64C536 62.9 535.1 62 534 62Z" fill="#121212"/>
<path d="M779.967 26.8167L778.15 14.05C777.683 10.7667 774.867 8.33337 771.55 8.33337H756.45C753.133 8.33337 750.317 10.7667 749.85 14.05L748.033 26.8167C747.667 29.3834 749.65 31.6667 752.233 31.6667C753.367 31.6667 754.433 31.2167 755.233 30.4167L759 26.6667H769L772.75 30.4167C773.55 31.2167 774.633 31.6667 775.75 31.6667C778.35 31.6667 780.333 29.3834 779.967 26.8167ZM762.333 18.3334H759V21.6667H757.333V18.3334H754V16.6667H757.333V13.3334H759V16.6667H762.333V18.3334ZM769 16.6667C768.083 16.6667 767.333 15.9167 767.333 15C767.333 14.0834 768.083 13.3334 769 13.3334C769.917 13.3334 770.667 14.0834 770.667 15C770.667 15.9167 769.917 16.6667 769 16.6667ZM772.333 21.6667C771.417 21.6667 770.667 20.9167 770.667 20C770.667 19.0834 771.417 18.3334 772.333 18.3334C773.25 18.3334 774 19.0834 774 20C774 20.9167 773.25 21.6667 772.333 21.6667Z" fill="white"/>
<path fill-rule="evenodd" clip-rule="evenodd" d="M86.8475 27.9973C85.8562 28.2169 84.8258 28.3328 83.7684 28.3328C75.9438 28.3328 69.6006 21.9897 69.6006 14.165C69.6006 11.1246 70.5584 8.30783 72.1886 6C65.8445 7.40594 61.1 13.065 61.1 19.8322C61.1 27.6569 67.4431 34 75.2677 34C80.0519 34 84.2823 31.6287 86.8475 27.9973Z" fill="#FFFF00"/>
<path d="M525.667 30C523.833 30 522.35 31.5 522.35 33.3334C522.35 35.1667 523.833 36.6667 525.667 36.6667C527.5 36.6667 529 35.1667 529 33.3334C529 31.5 527.5 30 525.667 30ZM515.667 3.33337V6.66671H519L525 19.3167L522.75 23.4C522.483 23.8667 522.333 24.4167 522.333 25C522.333 26.8334 523.833 28.3334 525.667 28.3334H545.667V25H526.367C526.133 25 525.95 24.8167 525.95 24.5834L526 24.3834L527.5 21.6667H539.917C541.167 21.6667 542.267 20.9834 542.833 19.95L548.8 9.13337C548.933 8.90004 549 8.61671 549 8.33337C549 7.41671 548.25 6.66671 547.333 6.66671H522.683L521.117 3.33337H515.667ZM542.333 30C540.5 30 539.017 31.5 539.017 33.3334C539.017 35.1667 540.5 36.6667 542.333 36.6667C544.167 36.6667 545.667 35.1667 545.667 33.3334C545.667 31.5 544.167 30 542.333 30Z" fill="white"/>
<path d="M304 13.3333C300.317 13.3333 297.333 16.3166 297.333 20C297.333 23.6833 300.317 26.6666 304 26.6666C307.683 26.6666 310.667 23.6833 310.667 20C310.667 16.3166 307.683 13.3333 304 13.3333ZM318.9 18.3333C318.133 11.3833 312.617 5.86663 305.667 5.09996V1.66663H302.333V5.09996C295.383 5.86663 289.867 11.3833 289.1 18.3333H285.667V21.6666H289.1C289.867 28.6166 295.383 34.1333 302.333 34.9V38.3333H305.667V34.9C312.617 34.1333 318.133 28.6166 318.9 21.6666H322.333V18.3333H318.9ZM304 31.6666C297.55 31.6666 292.333 26.45 292.333 20C292.333 13.55 297.55 8.33329 304 8.33329C310.45 8.33329 315.667 13.55 315.667 20C315.667 26.45 310.45 31.6666 304 31.6666Z" fill="#FFFF00"/>
<path d="M989.317 10.5833C985.917 14.4 983.583 19.8833 983.367 20.4L977.333 17.8166L984.083 11.0666C984.867 10.2833 986 9.93331 987.1 10.15L989.317 10.5833ZM992.617 28.3333C992.617 28.3333 998.85 25.75 1002.43 22.1666C1011.43 13.1666 1009.93 6.13331 1009.45 4.54998C1007.87 4.04998 1000.83 2.56664 991.833 11.5666C988.25 15.15 985.667 21.3833 985.667 21.3833L992.617 28.3333ZM1003.42 24.6833C999.6 28.0833 994.117 30.4166 993.6 30.6333L996.183 36.6666L1002.93 29.9166C1003.72 29.1333 1004.07 28 1003.85 26.9L1003.42 24.6833ZM989 30C989 31.3833 988.433 32.6333 987.533 33.5333C985.567 35.5 977.333 36.6666 977.333 36.6666C977.333 36.6666 978.5 28.4333 980.467 26.4666C981.367 25.5666 982.617 25 984 25C986.767 25 989 27.2333 989 30ZM995.667 15C995.667 13.1666 997.167 11.6666 999 11.6666C1000.83 11.6666 1002.33 13.1666 1002.33 15C1002.33 16.8333 1000.83 18.3333 999 18.3333C997.167 18.3333 995.667 16.8333 995.667 15Z" fill="white"/>
<path d="M1222.45 21.4167C1223.73 19.1 1226.2 17.7333 1227.63 15.6833C1229.15 13.5333 1228.3 9.51667 1224 9.51667C1221.18 9.51667 1219.8 11.65 1219.22 13.4167L1214.9 11.6C1216.08 8.05 1219.3 5 1223.98 5C1227.9 5 1230.58 6.78333 1231.95 9.01667C1233.12 10.9333 1233.8 14.5167 1232 17.1833C1230 20.1333 1228.08 21.0333 1227.05 22.9333C1226.63 23.7 1226.47 24.2 1226.47 26.6667H1221.65C1221.63 25.3667 1221.43 23.25 1222.45 21.4167ZM1227.33 33.3333C1227.33 35.1667 1225.83 36.6667 1224 36.6667C1222.17 36.6667 1220.67 35.1667 1220.67 33.3333C1220.67 31.5 1222.17 30 1224 30C1225.83 30 1227.33 31.5 1227.33 33.3333Z" fill="white"/>
</svg>
