<svg width="36" height="36" viewBox="0 0 36 36" fill="none" xmlns="http://www.w3.org/2000/svg">
<path d="M36 18C36 27.936 27.936 36 18 36C8.064 36 0 27.936 0 18C0 8.064 8.064 0 18 0C27.936 0 36 8.064 36 18Z" fill="#FFFF00"/>
<path d="M14.3727 27.5999C22.9743 27.5999 27.6804 20.2123 27.6804 13.8078C27.6804 13.6001 27.6759 13.3878 27.667 13.1801C28.5825 12.494 29.3725 11.6441 30 10.6704C29.1474 11.0635 28.2422 11.3203 27.3152 11.4319C28.2912 10.8256 29.022 9.87303 29.3721 8.7509C28.4539 9.31486 27.4498 9.71269 26.4028 9.92732C25.6973 9.15044 24.7645 8.63605 23.7487 8.46369C22.7329 8.29132 21.6905 8.47058 20.7829 8.97374C19.8752 9.47691 19.1527 10.276 18.7272 11.2473C18.3016 12.2187 18.1967 13.3084 18.4286 14.3478C16.5694 14.2511 14.7506 13.7505 13.09 12.8786C11.4294 12.0066 9.96422 10.7827 8.78933 9.28627C8.19219 10.3533 8.00947 11.6159 8.27829 12.8175C8.54712 14.0192 9.24732 15.0696 10.2366 15.7554C9.49391 15.731 8.76749 15.5237 8.11736 15.1508V15.2108C8.11669 16.3306 8.49021 17.416 9.17441 18.2826C9.85861 19.1492 10.8113 19.7435 11.8704 19.9645C11.1825 20.1596 10.4604 20.188 9.76011 20.0476C10.059 21.0106 10.6405 21.8528 11.4235 22.4568C12.2065 23.0608 13.1519 23.3963 14.1277 23.4167C12.471 24.7654 10.4245 25.497 8.31775 25.4935C7.94413 25.4929 7.57089 25.4692 7.20001 25.4224C9.34023 26.8455 11.8299 27.6013 14.3727 27.5999Z" fill="#121212"/>
</svg>
